<?xml version="1.0" encoding="UTF-8" standalone="no"?>
<!-- Created with Inkscape (http://www.inkscape.org/) -->

<svg
   width="438.23267mm"
   height="438.23267mm"
   viewBox="0 0 109.55817 109.55817"
   version="1.1"
   id="svg123"
   xml:space="preserve"
   inkscape:version="1.3 (0e150ed6c4, 2023-07-21)"
   sodipodi:docname="chippalrus_c.svg"
   inkscape:export-filename="Vectors_LT 100 - RB 700 - WH 600\CAT\01_w.png"
   inkscape:export-xdpi="300"
   inkscape:export-ydpi="300"
   xmlns:inkscape="http://www.inkscape.org/namespaces/inkscape"
   xmlns:sodipodi="http://sodipodi.sourceforge.net/DTD/sodipodi-0.dtd"
   xmlns="http://www.w3.org/2000/svg"
   xmlns:svg="http://www.w3.org/2000/svg"><sodipodi:namedview
     id="namedview125"
     pagecolor="#282828"
     bordercolor="#1a1a1a"
     borderopacity="1"
     inkscape:showpageshadow="2"
     inkscape:pageopacity="0"
     inkscape:pagecheckerboard="0"
     inkscape:deskcolor="#414141"
     inkscape:document-units="mm"
     showgrid="false"
     showguides="true"
     inkscape:zoom="0.15315517"
     inkscape:cx="68.557921"
     inkscape:cy="166.49781"
     inkscape:window-width="1920"
     inkscape:window-height="1009"
     inkscape:window-x="1912"
     inkscape:window-y="-8"
     inkscape:window-maximized="1"
     inkscape:current-layer="svg123"><inkscape:grid
       id="grid11"
       units="px"
       originx="-683.64062"
       originy="-683.64062"
       spacingx="0.066145833"
       spacingy="0.066145833"
       empcolor="#0099e5"
       empopacity="0.30196078"
       color="#0099e5"
       opacity="0.14901961"
       empspacing="5"
       dotted="false"
       gridanglex="30"
       gridanglez="30"
       visible="false" /></sodipodi:namedview><defs
     id="defs120"><inkscape:path-effect
       effect="mirror_symmetry"
       start_point="100.0001,98.517629"
       end_point="100.0001,109.56889"
       center_point="100.0001,104.04326"
       id="path-effect7024"
       is_visible="true"
       lpeversion="1.2"
       lpesatellites=""
       mode="free"
       discard_orig_path="false"
       fuse_paths="false"
       oposite_fuse="false"
       split_items="false"
       split_open="false"
       link_styles="false" /><inkscape:path-effect
       effect="mirror_symmetry"
       start_point="99.999999,97.6866"
       end_point="99.999999,109.4366"
       center_point="99.999999,103.5616"
       id="path-effect7020"
       is_visible="true"
       lpeversion="1.2"
       lpesatellites=""
       mode="free"
       discard_orig_path="false"
       fuse_paths="false"
       oposite_fuse="false"
       split_items="false"
       split_open="false"
       link_styles="false" /><inkscape:path-effect
       effect="mirror_symmetry"
       start_point="100.0001,98.517629"
       end_point="100.0001,109.56889"
       center_point="100.0001,104.04326"
       id="path-effect3252"
       is_visible="true"
       lpeversion="1.2"
       lpesatellites=""
       mode="free"
       discard_orig_path="false"
       fuse_paths="false"
       oposite_fuse="false"
       split_items="false"
       split_open="false"
       link_styles="false" /><inkscape:path-effect
       effect="mirror_symmetry"
       start_point="99.999999,97.6866"
       end_point="99.999999,109.4366"
       center_point="99.999999,103.5616"
       id="path-effect3248"
       is_visible="true"
       lpeversion="1.2"
       lpesatellites=""
       mode="free"
       discard_orig_path="false"
       fuse_paths="false"
       oposite_fuse="false"
       split_items="false"
       split_open="false"
       link_styles="false" /><inkscape:path-effect
       effect="mirror_symmetry"
       start_point="100.0001,98.517629"
       end_point="100.0001,109.56889"
       center_point="100.0001,104.04326"
       id="path-effect3159"
       is_visible="true"
       lpeversion="1.2"
       lpesatellites=""
       mode="free"
       discard_orig_path="false"
       fuse_paths="false"
       oposite_fuse="false"
       split_items="false"
       split_open="false"
       link_styles="false" /><inkscape:path-effect
       effect="mirror_symmetry"
       start_point="99.999999,97.6866"
       end_point="99.999999,109.4366"
       center_point="99.999999,103.5616"
       id="path-effect3155"
       is_visible="true"
       lpeversion="1.2"
       lpesatellites=""
       mode="free"
       discard_orig_path="false"
       fuse_paths="false"
       oposite_fuse="false"
       split_items="false"
       split_open="false"
       link_styles="false" /><inkscape:path-effect
       effect="mirror_symmetry"
       start_point="100.0001,98.517629"
       end_point="100.0001,109.56889"
       center_point="100.0001,104.04326"
       id="path-effect11923"
       is_visible="true"
       lpeversion="1.2"
       lpesatellites=""
       mode="free"
       discard_orig_path="false"
       fuse_paths="false"
       oposite_fuse="false"
       split_items="false"
       split_open="false"
       link_styles="false" /><inkscape:path-effect
       effect="mirror_symmetry"
       start_point="99.999999,97.6866"
       end_point="99.999999,109.4366"
       center_point="99.999999,103.5616"
       id="path-effect11919"
       is_visible="true"
       lpeversion="1.2"
       lpesatellites=""
       mode="free"
       discard_orig_path="false"
       fuse_paths="false"
       oposite_fuse="false"
       split_items="false"
       split_open="false"
       link_styles="false" /><inkscape:path-effect
       effect="mirror_symmetry"
       start_point="100.0001,98.517629"
       end_point="100.0001,109.56889"
       center_point="100.0001,104.04326"
       id="path-effect4089"
       is_visible="true"
       lpeversion="1.2"
       lpesatellites=""
       mode="free"
       discard_orig_path="false"
       fuse_paths="false"
       oposite_fuse="false"
       split_items="false"
       split_open="false"
       link_styles="false" /><inkscape:path-effect
       effect="mirror_symmetry"
       start_point="99.999999,97.6866"
       end_point="99.999999,109.4366"
       center_point="99.999999,103.5616"
       id="path-effect4084"
       is_visible="true"
       lpeversion="1.2"
       lpesatellites=""
       mode="free"
       discard_orig_path="false"
       fuse_paths="false"
       oposite_fuse="false"
       split_items="false"
       split_open="false"
       link_styles="false" /><inkscape:path-effect
       effect="mirror_symmetry"
       start_point="99.961235,104.5939"
       end_point="99.961235,110.9737"
       center_point="99.961235,107.7838"
       id="path-effect1958"
       is_visible="true"
       lpeversion="1.2"
       lpesatellites=""
       mode="free"
       discard_orig_path="false"
       fuse_paths="false"
       oposite_fuse="false"
       split_items="false"
       split_open="false"
       link_styles="false" /><inkscape:path-effect
       effect="mirror_symmetry"
       start_point="100.0001,98.517629"
       end_point="100.0001,109.56889"
       center_point="100.0001,104.04326"
       id="path-effect1954"
       is_visible="true"
       lpeversion="1.2"
       lpesatellites=""
       mode="free"
       discard_orig_path="false"
       fuse_paths="false"
       oposite_fuse="false"
       split_items="false"
       split_open="false"
       link_styles="false" /><inkscape:path-effect
       effect="mirror_symmetry"
       start_point="99.999999,97.6866"
       end_point="99.999999,109.4366"
       center_point="99.999999,103.5616"
       id="path-effect1950"
       is_visible="true"
       lpeversion="1.2"
       lpesatellites=""
       mode="free"
       discard_orig_path="false"
       fuse_paths="false"
       oposite_fuse="false"
       split_items="false"
       split_open="false"
       link_styles="false" /><inkscape:path-effect
       effect="mirror_symmetry"
       start_point="99.961235,104.5939"
       end_point="99.961235,110.9737"
       center_point="99.961235,107.7838"
       id="path-effect1721"
       is_visible="true"
       lpeversion="1.2"
       lpesatellites=""
       mode="free"
       discard_orig_path="false"
       fuse_paths="false"
       oposite_fuse="false"
       split_items="false"
       split_open="false"
       link_styles="false" /><inkscape:path-effect
       effect="mirror_symmetry"
       start_point="100.0001,98.517629"
       end_point="100.0001,109.56889"
       center_point="100.0001,104.04326"
       id="path-effect1717"
       is_visible="true"
       lpeversion="1.2"
       lpesatellites=""
       mode="free"
       discard_orig_path="false"
       fuse_paths="false"
       oposite_fuse="false"
       split_items="false"
       split_open="false"
       link_styles="false" /><inkscape:path-effect
       effect="mirror_symmetry"
       start_point="99.999999,97.6866"
       end_point="99.999999,109.4366"
       center_point="99.999999,103.5616"
       id="path-effect1713"
       is_visible="true"
       lpeversion="1.2"
       lpesatellites=""
       mode="free"
       discard_orig_path="false"
       fuse_paths="false"
       oposite_fuse="false"
       split_items="false"
       split_open="false"
       link_styles="false" /><inkscape:path-effect
       effect="mirror_symmetry"
       start_point="100.0001,98.517629"
       end_point="100.0001,109.56889"
       center_point="100.0001,104.04326"
       id="path-effect1462"
       is_visible="true"
       lpeversion="1.2"
       lpesatellites=""
       mode="free"
       discard_orig_path="false"
       fuse_paths="false"
       oposite_fuse="false"
       split_items="false"
       split_open="false"
       link_styles="false" /><inkscape:path-effect
       effect="mirror_symmetry"
       start_point="99.999999,97.6866"
       end_point="99.999999,109.4366"
       center_point="99.999999,103.5616"
       id="path-effect1458"
       is_visible="true"
       lpeversion="1.2"
       lpesatellites=""
       mode="free"
       discard_orig_path="false"
       fuse_paths="false"
       oposite_fuse="false"
       split_items="false"
       split_open="false"
       link_styles="false" /><inkscape:path-effect
       effect="mirror_symmetry"
       start_point="100.0001,98.517629"
       end_point="100.0001,109.56889"
       center_point="100.0001,104.04326"
       id="path-effect7326"
       is_visible="true"
       lpeversion="1.2"
       lpesatellites=""
       mode="free"
       discard_orig_path="false"
       fuse_paths="false"
       oposite_fuse="false"
       split_items="false"
       split_open="false"
       link_styles="false" /><inkscape:path-effect
       effect="mirror_symmetry"
       start_point="99.999999,97.6866"
       end_point="99.999999,109.4366"
       center_point="99.999999,103.5616"
       id="path-effect7322"
       is_visible="true"
       lpeversion="1.2"
       lpesatellites=""
       mode="free"
       discard_orig_path="false"
       fuse_paths="false"
       oposite_fuse="false"
       split_items="false"
       split_open="false"
       link_styles="false" /><inkscape:path-effect
       effect="mirror_symmetry"
       start_point="100.0001,98.517629"
       end_point="100.0001,109.56889"
       center_point="100.0001,104.04326"
       id="path-effect4512"
       is_visible="true"
       lpeversion="1.2"
       lpesatellites=""
       mode="free"
       discard_orig_path="false"
       fuse_paths="false"
       oposite_fuse="false"
       split_items="false"
       split_open="false"
       link_styles="false" /><inkscape:path-effect
       effect="mirror_symmetry"
       start_point="99.999999,97.6866"
       end_point="99.999999,109.4366"
       center_point="99.999999,103.5616"
       id="path-effect4507"
       is_visible="true"
       lpeversion="1.2"
       lpesatellites=""
       mode="free"
       discard_orig_path="false"
       fuse_paths="false"
       oposite_fuse="false"
       split_items="false"
       split_open="false"
       link_styles="false" /><inkscape:path-effect
       effect="mirror_symmetry"
       start_point="100.0001,98.517629"
       end_point="100.0001,109.56889"
       center_point="100.0001,104.04326"
       id="path-effect4503"
       is_visible="true"
       lpeversion="1.2"
       lpesatellites=""
       mode="free"
       discard_orig_path="false"
       fuse_paths="false"
       oposite_fuse="false"
       split_items="false"
       split_open="false"
       link_styles="false" /><inkscape:path-effect
       effect="mirror_symmetry"
       start_point="99.999999,97.6866"
       end_point="99.999999,109.4366"
       center_point="99.999999,103.5616"
       id="path-effect4499"
       is_visible="true"
       lpeversion="1.2"
       lpesatellites=""
       mode="free"
       discard_orig_path="false"
       fuse_paths="false"
       oposite_fuse="false"
       split_items="false"
       split_open="false"
       link_styles="false" /><inkscape:path-effect
       effect="mirror_symmetry"
       start_point="99.999065,43.893269"
       end_point="99.999065,157.92616"
       center_point="99.999065,100.90971"
       id="path-effect3781"
       is_visible="true"
       lpeversion="1.2"
       lpesatellites=""
       mode="vertical"
       discard_orig_path="false"
       fuse_paths="false"
       oposite_fuse="false"
       split_items="false"
       split_open="false"
       link_styles="false" /><inkscape:path-effect
       effect="lattice2"
       gridpoint0="63.803853,63.803848"
       gridpoint1="136.19633,63.803848"
       gridpoint2="63.803853,124.4978"
       gridpoint3="136.19633,124.4978"
       gridpoint4="81.901973,63.803848"
       gridpoint5="118.09821,63.803848"
       gridpoint6="81.901973,124.4978"
       gridpoint7="118.09821,124.4978"
       gridpoint8x9="100.00009,68.932744"
       gridpoint10x11="100.00009,123.21558"
       gridpoint12="63.803853,78.977337"
       gridpoint13="136.19633,78.977337"
       gridpoint14="60.920844,121.35413"
       gridpoint15="139.07934,121.35413"
       gridpoint16="88.274733,83.771459"
       gridpoint17="111.72545,83.771459"
       gridpoint18="93.495833,105.05959"
       gridpoint19="106.50435,105.05959"
       gridpoint20x21="100.00009,78.977337"
       gridpoint22x23="99.99906,104.69359"
       gridpoint24x26="63.803853,94.150826"
       gridpoint25x27="136.19633,94.150826"
       gridpoint28x30="81.901973,94.150826"
       gridpoint29x31="118.09821,94.150826"
       gridpoint32x33x34x35="100.00009,94.150826"
       id="path-effect2132"
       is_visible="true"
       lpeversion="1"
       horizontal_mirror="false"
       vertical_mirror="true"
       perimetral="false"
       live_update="true" /><inkscape:path-effect
       effect="mirror_symmetry"
       start_point="-110.86041,-98.543123"
       end_point="-110.86041,-37.848849"
       center_point="-110.86041,-68.195986"
       id="path-effect6643"
       is_visible="true"
       lpeversion="1.2"
       lpesatellites=""
       mode="free"
       discard_orig_path="false"
       fuse_paths="false"
       oposite_fuse="false"
       split_items="false"
       split_open="false"
       link_styles="false" /><inkscape:path-effect
       effect="mirror_symmetry"
       start_point="100.0001,98.517629"
       end_point="100.0001,109.56889"
       center_point="100.0001,104.04326"
       id="path-effect2218"
       is_visible="true"
       lpeversion="1.2"
       lpesatellites=""
       mode="free"
       discard_orig_path="false"
       fuse_paths="false"
       oposite_fuse="false"
       split_items="false"
       split_open="false"
       link_styles="false" /><inkscape:path-effect
       effect="mirror_symmetry"
       start_point="99.999999,97.6866"
       end_point="99.999999,109.4366"
       center_point="99.999999,103.5616"
       id="path-effect2214"
       is_visible="true"
       lpeversion="1.2"
       lpesatellites=""
       mode="free"
       discard_orig_path="false"
       fuse_paths="false"
       oposite_fuse="false"
       split_items="false"
       split_open="false"
       link_styles="false" /><inkscape:path-effect
       effect="mirror_symmetry"
       start_point="97.375562,46.615495"
       end_point="97.375562,156.17367"
       center_point="97.375562,101.39458"
       id="path-effect4716"
       is_visible="true"
       lpeversion="1.2"
       lpesatellites=""
       mode="vertical"
       discard_orig_path="false"
       fuse_paths="false"
       oposite_fuse="false"
       split_items="false"
       split_open="false"
       link_styles="false" /><inkscape:path-effect
       effect="lattice2"
       gridpoint0="60.308459,109.83515"
       gridpoint1="63.169266,110.94309"
       gridpoint2="60.291923,111.70377"
       gridpoint3="62.415608,112.67948"
       gridpoint4="63.483821,109.8308"
       gridpoint5="62.449931,110.94309"
       gridpoint6="61.095108,110.88851"
       gridpoint7="62.546837,112.27105"
       gridpoint8x9="61.730595,110.94309"
       gridpoint10x11="62.039442,111.14847"
       gridpoint12="60.432483,110.34778"
       gridpoint13="63.169266,111.13326"
       gridpoint14="60.291923,111.5136"
       gridpoint15="63.169266,111.5136"
       gridpoint16="60.833427,110.28589"
       gridpoint17="62.449931,111.13326"
       gridpoint18="60.829001,111.41766"
       gridpoint19="62.888843,111.70437"
       gridpoint20x21="61.730595,111.13326"
       gridpoint22x23="61.287621,111.83506"
       gridpoint24x26="60.291923,111.32343"
       gridpoint25x27="63.169266,111.32343"
       gridpoint28x30="61.854652,110.49915"
       gridpoint29x31="62.432391,111.6333"
       gridpoint32x33x34x35="62.630542,111.56679"
       id="path-effect4713"
       is_visible="true"
       lpeversion="1"
       horizontal_mirror="false"
       vertical_mirror="false"
       perimetral="false"
       live_update="true" /><inkscape:path-effect
       effect="mirror_symmetry"
       start_point="64.580576,109.49009"
       end_point="64.580576,92.202716"
       center_point="64.580576,100.84641"
       id="path-effect4709"
       is_visible="true"
       lpeversion="1.2"
       lpesatellites=""
       mode="vertical"
       discard_orig_path="false"
       fuse_paths="false"
       oposite_fuse="false"
       split_items="false"
       split_open="false"
       link_styles="false" /><inkscape:path-effect
       effect="lattice2"
       gridpoint0="58.08291,100.65369"
       gridpoint1="63.256682,97.538546"
       gridpoint2="58.08291,101.98455"
       gridpoint3="63.271049,101.98455"
       gridpoint4="59.379944,100.65369"
       gridpoint5="61.833697,101.27343"
       gridpoint6="60.420625,101.35313"
       gridpoint7="61.927242,102.97846"
       gridpoint8x9="61.02777,100.46661"
       gridpoint10x11="60.676979,101.98455"
       gridpoint12="58.08291,100.98641"
       gridpoint13="63.688829,98.52971"
       gridpoint14="58.08291,101.65184"
       gridpoint15="63.271049,101.65184"
       gridpoint16="59.379944,100.98641"
       gridpoint17="61.974014,100.98641"
       gridpoint18="60.011369,101.39459"
       gridpoint19="61.974014,101.65184"
       gridpoint20x21="60.676979,100.98641"
       gridpoint22x23="60.676979,101.65184"
       gridpoint24x26="58.08291,101.31912"
       gridpoint25x27="63.271049,101.31912"
       gridpoint28x30="59.040846,100.39537"
       gridpoint29x31="62.16011,101.98456"
       gridpoint32x33x34x35="60.676979,101.31912"
       id="path-effect4705"
       is_visible="true"
       lpeversion="1"
       horizontal_mirror="false"
       vertical_mirror="false"
       perimetral="false"
       live_update="true" /><inkscape:path-effect
       effect="mirror_symmetry"
       start_point="67.448327,89.015912"
       end_point="67.448327,110.65059"
       center_point="67.448327,99.833252"
       id="path-effect4701"
       is_visible="true"
       lpeversion="1.2"
       lpesatellites=""
       mode="vertical"
       discard_orig_path="false"
       fuse_paths="false"
       oposite_fuse="false"
       split_items="false"
       split_open="false"
       link_styles="false" /><inkscape:path-effect
       effect="lattice2"
       gridpoint0="58.08291,100.65369"
       gridpoint1="63.256682,97.538546"
       gridpoint2="58.08291,101.98455"
       gridpoint3="63.271049,101.98455"
       gridpoint4="59.379944,100.65369"
       gridpoint5="61.833697,101.27343"
       gridpoint6="60.420625,101.35313"
       gridpoint7="61.927242,102.97846"
       gridpoint8x9="61.02777,100.46661"
       gridpoint10x11="60.676979,101.98455"
       gridpoint12="58.08291,100.98641"
       gridpoint13="63.688829,98.52971"
       gridpoint14="58.08291,101.65184"
       gridpoint15="63.271049,101.65184"
       gridpoint16="59.379944,100.98641"
       gridpoint17="61.974014,100.98641"
       gridpoint18="60.011369,101.39459"
       gridpoint19="61.974014,101.65184"
       gridpoint20x21="60.676979,100.98641"
       gridpoint22x23="60.676979,101.65184"
       gridpoint24x26="58.08291,101.31912"
       gridpoint25x27="63.271049,101.31912"
       gridpoint28x30="59.040846,100.39537"
       gridpoint29x31="62.16011,101.98456"
       gridpoint32x33x34x35="60.676979,101.31912"
       id="path-effect4697"
       is_visible="true"
       lpeversion="1"
       horizontal_mirror="false"
       vertical_mirror="false"
       perimetral="false"
       live_update="true" /><inkscape:path-effect
       effect="lattice2"
       gridpoint0="62.330632,63.756904"
       gridpoint1="137.6675,63.756904"
       gridpoint2="62.330632,124.831"
       gridpoint3="137.6675,124.831"
       gridpoint4="81.164842,63.756904"
       gridpoint5="118.83329,63.756904"
       gridpoint6="88.516152,121.14246"
       gridpoint7="111.48198,121.14246"
       gridpoint8x9="99.999999,63.756904"
       gridpoint10x11="100.04449,124.49111"
       gridpoint12="62.330632,79.025427"
       gridpoint13="137.6675,79.025427"
       gridpoint14="62.330632,109.56248"
       gridpoint15="137.6675,109.56248"
       gridpoint16="81.164842,79.025427"
       gridpoint17="118.83329,79.025427"
       gridpoint18="81.164842,109.56248"
       gridpoint19="118.83329,109.56248"
       gridpoint20x21="99.999999,79.025427"
       gridpoint22x23="99.999999,109.56248"
       gridpoint24x26="62.330632,94.293951"
       gridpoint25x27="137.6675,94.293951"
       gridpoint28x30="81.164842,94.293951"
       gridpoint29x31="118.83329,94.293951"
       gridpoint32x33x34x35="99.999999,94.293951"
       id="path-effect929"
       is_visible="true"
       lpeversion="1"
       horizontal_mirror="false"
       vertical_mirror="true"
       perimetral="false"
       live_update="true" /><inkscape:path-effect
       effect="mirror_symmetry"
       start_point="99.999065,45.219978"
       end_point="99.999065,154.77815"
       center_point="99.999065,99.999065"
       id="path-effect925"
       is_visible="true"
       lpeversion="1.2"
       lpesatellites=""
       mode="vertical"
       discard_orig_path="false"
       fuse_paths="false"
       oposite_fuse="false"
       split_items="false"
       split_open="false"
       link_styles="false" /><inkscape:path-effect
       effect="lattice2"
       gridpoint0="62.7569,63.756904"
       gridpoint1="137.24309,63.756904"
       gridpoint2="62.7569,112.41743"
       gridpoint3="137.24309,112.41743"
       gridpoint4="81.37845,63.756904"
       gridpoint5="118.62154,63.756904"
       gridpoint6="81.37845,112.41743"
       gridpoint7="118.62154,112.41743"
       gridpoint8x9="99.999995,63.756904"
       gridpoint10x11="100.0001,108.31845"
       gridpoint12="62.7569,75.922035"
       gridpoint13="137.24309,75.922035"
       gridpoint14="62.7569,100.2523"
       gridpoint15="137.24309,100.2523"
       gridpoint16="81.37845,75.922035"
       gridpoint17="118.62154,75.922035"
       gridpoint18="91.865359,89.282692"
       gridpoint19="108.13463,89.282692"
       gridpoint20x21="99.999995,75.922035"
       gridpoint22x23="99.999995,100.2523"
       gridpoint24x26="62.7569,88.087167"
       gridpoint25x27="137.24309,88.087167"
       gridpoint28x30="81.37845,88.087167"
       gridpoint29x31="118.62154,88.087167"
       gridpoint32x33x34x35="99.999995,88.087167"
       id="path-effect4827"
       is_visible="true"
       lpeversion="1"
       horizontal_mirror="false"
       vertical_mirror="true"
       perimetral="false"
       live_update="true" /><inkscape:path-effect
       effect="mirror_symmetry"
       start_point="100.0001,98.517629"
       end_point="100.0001,109.56889"
       center_point="100.0001,104.04326"
       id="path-effect4798"
       is_visible="true"
       lpeversion="1.2"
       lpesatellites=""
       mode="free"
       discard_orig_path="false"
       fuse_paths="false"
       oposite_fuse="false"
       split_items="false"
       split_open="false"
       link_styles="false" /><inkscape:path-effect
       effect="mirror_symmetry"
       start_point="99.999999,97.6866"
       end_point="99.999999,109.4366"
       center_point="99.999999,103.5616"
       id="path-effect4794"
       is_visible="true"
       lpeversion="1.2"
       lpesatellites=""
       mode="free"
       discard_orig_path="false"
       fuse_paths="false"
       oposite_fuse="false"
       split_items="false"
       split_open="false"
       link_styles="false" /><inkscape:path-effect
       effect="mirror_symmetry"
       start_point="1511.797,683.64065"
       end_point="1511.797,2339.9533"
       center_point="1511.797,1511.797"
       id="path-effect4774"
       is_visible="true"
       lpeversion="1.2"
       lpesatellites=""
       mode="vertical"
       discard_orig_path="false"
       fuse_paths="false"
       oposite_fuse="false"
       split_items="false"
       split_open="false"
       link_styles="false" /><inkscape:path-effect
       effect="mirror_symmetry"
       start_point="99.999044,45.219979"
       end_point="99.999044,154.77816"
       center_point="99.999044,99.999067"
       id="path-effect4755"
       is_visible="true"
       lpeversion="1.2"
       lpesatellites=""
       mode="vertical"
       discard_orig_path="false"
       fuse_paths="false"
       oposite_fuse="false"
       split_items="false"
       split_open="false"
       link_styles="false" /><inkscape:path-effect
       effect="mirror_symmetry"
       start_point="99.961235,104.5939"
       end_point="99.961235,110.9737"
       center_point="99.961235,107.7838"
       id="path-effect4469"
       is_visible="true"
       lpeversion="1.2"
       lpesatellites=""
       mode="free"
       discard_orig_path="false"
       fuse_paths="false"
       oposite_fuse="false"
       split_items="false"
       split_open="false"
       link_styles="false" /><inkscape:path-effect
       effect="mirror_symmetry"
       start_point="100.0001,98.517629"
       end_point="100.0001,109.56889"
       center_point="100.0001,104.04326"
       id="path-effect1383"
       is_visible="true"
       lpeversion="1.2"
       lpesatellites=""
       mode="free"
       discard_orig_path="false"
       fuse_paths="false"
       oposite_fuse="false"
       split_items="false"
       split_open="false"
       link_styles="false" /><inkscape:path-effect
       effect="mirror_symmetry"
       start_point="99.999999,97.6866"
       end_point="99.999999,109.4366"
       center_point="99.999999,103.5616"
       id="path-effect1379"
       is_visible="true"
       lpeversion="1.2"
       lpesatellites=""
       mode="free"
       discard_orig_path="false"
       fuse_paths="false"
       oposite_fuse="false"
       split_items="false"
       split_open="false"
       link_styles="false" /><inkscape:path-effect
       effect="mirror_symmetry"
       start_point="100.0001,98.517629"
       end_point="100.0001,109.56889"
       center_point="100.0001,104.04326"
       id="path-effect2031"
       is_visible="true"
       lpeversion="1.2"
       lpesatellites=""
       mode="free"
       discard_orig_path="false"
       fuse_paths="false"
       oposite_fuse="false"
       split_items="false"
       split_open="false"
       link_styles="false" /><inkscape:path-effect
       effect="mirror_symmetry"
       start_point="100.0001,98.517629"
       end_point="100.0001,109.56889"
       center_point="100.0001,104.04326"
       id="path-effect1722"
       is_visible="true"
       lpeversion="1.2"
       lpesatellites=""
       mode="free"
       discard_orig_path="false"
       fuse_paths="false"
       oposite_fuse="false"
       split_items="false"
       split_open="false"
       link_styles="false" /><inkscape:path-effect
       effect="mirror_symmetry"
       start_point="99.999999,97.6866"
       end_point="99.999999,109.4366"
       center_point="99.999999,103.5616"
       id="path-effect1326"
       is_visible="true"
       lpeversion="1.2"
       lpesatellites=""
       mode="free"
       discard_orig_path="false"
       fuse_paths="false"
       oposite_fuse="false"
       split_items="false"
       split_open="false"
       link_styles="false" /><inkscape:path-effect
       effect="mirror_symmetry"
       start_point="99.999999,97.6866"
       end_point="99.999999,109.4366"
       center_point="99.999999,103.5616"
       id="path-effect1319"
       is_visible="true"
       lpeversion="1.2"
       lpesatellites=""
       mode="free"
       discard_orig_path="false"
       fuse_paths="false"
       oposite_fuse="false"
       split_items="false"
       split_open="false"
       link_styles="false" /><inkscape:path-effect
       effect="bend_path"
       id="path-effect2477"
       is_visible="true"
       lpeversion="1"
       bendpath="m 26.143084,162.99576 c 7.580604,1.35983 17.39129,1.11133 20.863127,0.24926"
       prop_scale="1"
       scale_y_rel="false"
       vertical="false"
       hide_knot="false"
       bendpath-nodetypes="cc" /><inkscape:path-effect
       effect="perspective-envelope"
       up_left_point="71.10829,116.75588"
       up_right_point="157.41103,118.69526"
       down_left_point="70.360468,142.07599"
       down_right_point="157.55704,140.78944"
       id="path-effect2304"
       is_visible="true"
       lpeversion="1"
       deform_type="perspective"
       horizontal_mirror="false"
       vertical_mirror="false"
       overflow_perspective="false" /><inkscape:path-effect
       effect="bend_path"
       id="path-effect2302"
       is_visible="true"
       lpeversion="1"
       bendpath="M 69.621686,129.63203 H 157.51103"
       prop_scale="1"
       scale_y_rel="false"
       vertical="false"
       hide_knot="false" /><linearGradient
       id="linearGradient4769"
       inkscape:swatch="gradient"><stop
         style="stop-color:#ffffff;stop-opacity:1;"
         offset="0"
         id="stop4765" /><stop
         style="stop-color:#ffffff;stop-opacity:0;"
         offset="1"
         id="stop4767" /></linearGradient><linearGradient
       id="linearGradient2383"
       inkscape:swatch="solid"><stop
         style="stop-color:#000000;stop-opacity:1;"
         offset="0"
         id="stop2381" /></linearGradient><inkscape:path-effect
       effect="mirror_symmetry"
       start_point="-110.86041,-98.543123"
       end_point="-110.86041,-37.848849"
       center_point="-110.86041,-68.195986"
       id="path-effect2503"
       is_visible="true"
       lpeversion="1.2"
       lpesatellites=""
       mode="free"
       discard_orig_path="false"
       fuse_paths="false"
       oposite_fuse="false"
       split_items="false"
       split_open="false"
       link_styles="false" /></defs><path
     id="path5272"
     style="display:inline;fill:#014896;fill-opacity:1;stroke:none;stroke-width:4.20003;stroke-linecap:butt;stroke-linejoin:round;stroke-miterlimit:30;stroke-dasharray:none;stroke-opacity:1;paint-order:stroke fill markers"
     inkscape:label="C"
     d="m 51.759631,108.31845 v 9.48831 l 0.0013,5.2e-4 48.23814,19.34507 48.239439,-19.34559 v -9.48831 h -0.002 -9.45033 c -0.0647,0.26494 -0.13494,0.53326 -0.20193,0.76481 -0.13091,0.45255 -0.35438,1.10622 -0.56068,1.66605 -0.23171,0.62873 -0.56372,1.39335 -0.85938,1.97249 -0.28729,0.56272 -0.68744,1.24788 -1.03508,1.77147 -0.32178,0.48462 -0.74704,1.07666 -1.08417,1.4981 -0.33957,0.42446 -0.81387,0.95597 -1.21285,1.36736 -0.42843,0.44175 -1.02466,0.9891 -1.52135,1.4025 -0.51126,0.42553 -1.23036,0.96007 -1.80506,1.34565 -0.56695,0.38038 -1.36096,0.86351 -1.95285,1.18907 -0.60781,0.33431 -1.49856,0.768 -2.18747,1.06867 -0.73728,0.32179 -1.93123,0.76586 -2.88509,1.08417 -0.93509,0.31205 -2.15073,0.683 -2.88458,0.87489 -0.70355,0.18397 -1.77635,0.42784 -2.5368,0.57774 -0.76221,0.15025 -2.08418,0.37778 -3.05304,0.52555 -0.9845,0.15014 -2.59565,0.35857 -3.68556,0.47852 -1.07968,0.11882 -2.6726,0.26998 -3.62304,0.34365 -0.93817,0.0727 -2.45723,0.17153 -3.43958,0.22273 -0.96529,0.0503 -2.09046,0.10149 -2.58176,0.1173 -0.39182,0.0126 -0.99619,0.0109 -1.66036,0.006 -0.0133,1e-4 -0.01977,-1.1e-4 -0.03307,0 -0.664168,0.005 -1.268554,0.007 -1.660364,-0.006 -0.491298,-0.0158 -1.616476,-0.067 -2.581754,-0.1173 -0.982348,-0.0512 -2.501426,-0.15001 -3.439584,-0.22273 -0.950438,-0.0737 -2.543356,-0.22483 -3.623034,-0.34365 -1.089918,-0.11995 -2.701065,-0.32838 -3.685563,-0.47852 -0.968858,-0.14777 -2.290319,-0.3753 -3.052527,-0.52555 -0.76045,-0.1499 -1.833765,-0.39377 -2.537313,-0.57774 -0.733858,-0.19189 -1.951558,-0.56284 -2.886646,-0.87489 -0.953868,-0.31831 -2.14729,-0.76238 -2.884578,-1.08417 -0.688898,-0.30067 -1.578115,-0.73436 -2.185913,-1.06867 -0.591898,-0.32556 -1.385904,-0.80869 -1.952852,-1.18907 -0.5747,-0.38558 -1.293293,-0.92012 -1.804541,-1.34565 -0.4967,-0.4134 -1.093443,-0.96075 -1.521871,-1.4025 -0.39898,-0.41139 -0.873278,-0.9429 -1.212846,-1.36736 -0.33714,-0.42144 -0.761875,-1.01348 -1.083655,-1.4981 -0.34765,-0.52359 -0.748316,-1.20875 -1.035596,-1.77147 -0.295668,-0.57914 -0.627669,-1.34376 -0.859379,-1.97249 -0.20631,-0.55983 -0.429252,-1.2135 -0.560172,-1.66605 -0.06698,-0.23154 -0.137352,-0.49987 -0.202184,-0.76481 H 51.76131 Z m 84.215139,1.9079 c -0.0835,0.21405 -0.1837,0.4557 -0.28667,0.69272 0.10297,-0.23702 0.20319,-0.47867 0.28667,-0.69272 z m -69.380903,4.45347 c 0.130385,0.16298 0.317153,0.38138 0.513018,0.60203 -0.195863,-0.22065 -0.382633,-0.43905 -0.513018,-0.60203 z m 66.810393,0 c -0.13039,0.16298 -0.31715,0.38138 -0.51302,0.60203 0.19587,-0.22065 0.38263,-0.43905 0.51302,-0.60203 z m -35.013884,9.81077 c 0.30149,0.01 0.937789,0.009 1.608687,0.004 0.670897,0.005 1.307197,0.006 1.608687,-0.004 -0.30149,0.01 -0.93779,0.009 -1.608687,0.004 -0.670899,0.005 -1.307197,0.006 -1.608687,-0.004 z"
     transform="translate(-45.219978,-45.219978)" /><path
     id="path5291"
     style="display:inline;fill:#ffffff;stroke-width:0.0846667"
     class="UnoptimicedTransforms"
     inkscape:label="W"
     d="m -110.86041,-98.543123 c -1.92559,0 -2.7399,0.03404 -3.55585,0.148828 -0.58208,0.08188 -1.45874,0.225454 -1.94769,0.318844 -0.48895,0.09339 -1.42235,0.303288 -2.07429,0.466638 -0.65193,0.163349 -1.60446,0.431911 -2.11667,0.596346 -0.5122,0.164437 -1.50291,0.528424 -2.20141,0.809253 -0.6985,0.280827 -1.82231,0.7915 -2.49752,1.134814 -0.67522,0.343316 -1.47499,0.761135 -1.77767,0.928109 -0.45435,0.25064 -0.61283,0.29632 -0.90744,0.26355 -0.19628,-0.02183 -0.53941,-0.154619 -0.76223,-0.295073 -0.22283,-0.140455 -0.74775,-0.388489 -1.16685,-0.551387 -0.4191,-0.162898 -1.08576,-0.3764 -1.48157,-0.47439 -0.39578,-0.09799 -1.08155,-0.215869 -1.52393,-0.261999 -0.44239,-0.04613 -1.14722,-0.08372 -1.56632,-0.08372 -0.41908,0 -1.10535,0.03585 -1.52445,0.0801 -0.4191,0.04425 -1.13226,0.174485 -1.58492,0.289388 -0.45266,0.114902 -1.15373,0.34418 -1.55804,0.509013 -0.4043,0.164832 -1.01312,0.458789 -1.35289,0.65319 -0.33977,0.1944 -0.94865,0.601599 -1.35341,0.905371 -0.40473,0.303778 -1.06773,0.887898 -1.47329,1.298112 -0.40556,0.410216 -0.99081,1.099084 -1.30018,1.530656 -0.30936,0.431574 -0.75244,1.165762 -0.98444,1.631425 -0.232,0.465664 -0.53558,1.199014 -0.67489,1.629358 -0.13931,0.430346 -0.31679,1.135179 -0.39429,1.566313 -0.0958,0.532577 -0.14122,1.258836 -0.14211,2.265494 -9.2e-4,1.031641 0.0425,1.725616 0.14314,2.285649 0.0795,0.442381 0.27344,1.191894 0.43098,1.665015 0.15755,0.47312 0.42612,1.13977 0.59687,1.481563 0.17074,0.341791 0.46317,0.821525 0.65009,1.066085 0.23622,0.309053 0.35245,0.555188 0.38085,0.807186 0.0334,0.296028 -0.0326,0.540625 -0.35967,1.333252 -0.2203,0.533923 -0.58662,1.484918 -0.81442,2.113566 -0.2278,0.628646 -0.56338,1.638429 -0.74569,2.24379 -0.1823,0.605365 -0.43125,1.495267 -0.55294,1.977657 -0.12169,0.482396 -0.29682,1.244274 -0.38912,1.69292 -0.0923,0.448651 -0.24048,1.292457 -0.32918,1.874821 -0.0887,0.582367 -0.20823,1.496923 -0.26613,2.032434 -0.058,0.535516 -0.10484,1.849724 -0.10284,2.920752 0.002,1.351195 0.0476,2.271162 0.1478,3.004985 0.0795,0.581664 0.20021,1.324682 0.26871,1.651062 0.0685,0.326374 0.20181,0.860007 0.29611,1.185974 0.0943,0.325964 0.32593,1.011704 0.5147,1.523938 0.18877,0.512227 0.52954,1.296906 0.75757,1.743563 0.22803,0.446651 0.64028,1.151492 0.91571,1.566312 0.27544,0.414826 0.71386,1.021239 0.97462,1.347205 0.26077,0.325965 0.74713,0.873714 1.08055,1.217497 0.33341,0.343778 0.94396,0.906235 1.35702,1.250053 0.41308,0.343816 1.14736,0.891176 1.63143,1.215946 0.48406,0.324772 1.2914,0.816397 1.79421,1.092957 0.50278,0.276556 1.40949,0.719192 2.01486,0.983402 0.60537,0.26421 1.82467,0.722259 2.70939,1.017509 0.88475,0.295249 2.12316,0.671228 2.75177,0.835608 0.62863,0.16438 1.71428,0.411113 2.41278,0.548804 0.6985,0.13769 2.03231,0.366971 2.96364,0.509012 0.93134,0.142037 2.55048,0.352365 3.59823,0.467672 1.04775,0.115308 2.64781,0.267067 3.55586,0.337447 0.90805,0.07039 2.43226,0.168834 3.38687,0.218592 0.95462,0.04976 2.09752,0.102035 2.5399,0.116271 0.30149,0.0097 0.93778,0.009 1.60868,0.0036 0.6709,0.0054 1.3072,0.0061 1.60869,-0.0036 0.44238,-0.01424 1.58528,-0.06652 2.5399,-0.116271 0.95461,-0.04976 2.47882,-0.148202 3.38687,-0.218592 0.90805,-0.07038 2.50811,-0.222139 3.555856,-0.337447 1.047746,-0.115307 2.666894,-0.325635 3.59823,-0.467672 0.931326,-0.142041 2.265147,-0.371322 2.963643,-0.509012 0.6985,-0.137691 1.784143,-0.384424 2.412773,-0.548804 0.628646,-0.16438 1.867024,-0.540359 2.75177,-0.835608 0.884756,-0.29525 2.104029,-0.753299 2.709395,-1.017509 0.60537,-0.26421 1.512048,-0.706846 2.014864,-0.983402 0.50281,-0.27656 1.310146,-0.768185 1.794206,-1.092957 0.48407,-0.32477 1.218345,-0.87213 1.631425,-1.215946 0.4131,-0.343818 1.023613,-0.906275 1.357023,-1.250053 0.33342,-0.343783 0.819784,-0.891532 1.080554,-1.217497 0.26076,-0.325966 0.699178,-0.932379 0.974618,-1.347205 0.275426,-0.41482 0.687676,-1.119661 0.915706,-1.566312 0.22803,-0.446657 0.568807,-1.231336 0.757577,-1.743563 0.188766,-0.512234 0.420397,-1.197974 0.514697,-1.523938 0.0943,-0.325967 0.227606,-0.8596 0.296106,-1.185974 0.0685,-0.32638 0.189217,-1.069398 0.268717,-1.651062 0.1002,-0.733823 0.145795,-1.65379 0.147795,-3.004985 0.002,-1.071028 -0.04484,-2.385236 -0.102836,-2.920752 -0.0579,-0.535511 -0.177434,-1.450067 -0.266134,-2.032434 -0.0887,-0.582364 -0.236879,-1.42617 -0.329179,-1.874821 -0.0923,-0.448646 -0.267433,-1.210524 -0.389123,-1.69292 -0.12169,-0.48239 -0.370638,-1.372292 -0.552938,-1.977657 -0.18231,-0.605361 -0.517891,-1.615144 -0.745691,-2.24379 -0.2278,-0.628648 -0.594121,-1.579643 -0.814421,-2.113566 -0.327066,-0.792627 -0.393064,-1.037224 -0.359668,-1.333252 0.0284,-0.251998 0.144636,-0.498133 0.380856,-0.807186 0.18692,-0.24456 0.479349,-0.724294 0.650089,-1.066085 0.17075,-0.341793 0.439313,-1.008443 0.596863,-1.481563 0.15754,-0.473121 0.351482,-1.222634 0.430982,-1.665015 0.100636,-0.560033 0.144063,-1.254008 0.143143,-2.285649 -8.9e-4,-1.006658 -0.04631,-1.732917 -0.14211,-2.265494 -0.0775,-0.431134 -0.254981,-1.135967 -0.394291,-1.566313 -0.13931,-0.430344 -0.442898,-1.163694 -0.674894,-1.629358 -0.232,-0.465663 -0.67508,-1.199851 -0.984436,-1.631425 -0.30937,-0.431572 -0.894623,-1.12044 -1.300179,-1.530656 -0.40556,-0.410214 -1.068569,-0.994334 -1.473295,-1.298112 -0.40476,-0.303772 -1.01364,-0.710971 -1.353406,-0.905371 -0.33977,-0.194401 -0.948593,-0.488358 -1.352889,-0.65319 -0.40431,-0.164833 -1.105385,-0.394111 -1.558045,-0.509013 -0.452656,-0.114903 -1.165816,-0.245138 -1.584916,-0.289388 -0.419096,-0.04425 -1.105375,-0.0801 -1.524455,-0.0801 -0.419096,0 -1.123926,0.03759 -1.566312,0.08372 -0.44238,0.04613 -1.128122,0.164009 -1.523938,0.261999 -0.39581,0.09799 -1.062467,0.311492 -1.481563,0.47439 -0.4191,0.162898 -0.944028,0.410932 -1.166854,0.551387 -0.22282,0.140454 -0.565948,0.273243 -0.762228,0.295073 -0.294606,0.03277 -0.453088,-0.01291 -0.907438,-0.26355 -0.302676,-0.166974 -1.102453,-0.584793 -1.777669,-0.928109 -0.675206,-0.343314 -1.799026,-0.853987 -2.497522,-1.134814 -0.698496,-0.280829 -1.689178,-0.644816 -2.201418,-0.809253 -0.51221,-0.164435 -1.46477,-0.432997 -2.11666,-0.596346 -0.65194,-0.16335 -1.58535,-0.373248 -2.0743,-0.466638 -0.48895,-0.09339 -1.3656,-0.236964 -1.94768,-0.318844 -0.81595,-0.114789 -1.63023,-0.148828 -3.55586,-0.148828 z m -24.90029,6.957715 c 1.1104,0.003 2.24895,0.119286 2.43758,0.307991 0.0436,0.04361 -0.26885,0.343719 -0.74724,0.717786 -3.06781,2.398768 -5.72527,5.113835 -7.74216,7.909595 -0.40971,0.567929 -0.77536,1.032495 -0.81287,1.032495 -0.0819,0 -0.35077,-0.708704 -0.51263,-1.351856 -0.0743,-0.295361 -0.11513,-0.911129 -0.11214,-1.689819 0.004,-1.154963 0.0204,-1.271267 0.27854,-2.023649 0.36242,-1.056468 0.7459,-1.667307 1.60972,-2.564701 1.13587,-1.180023 2.41269,-1.914312 3.84472,-2.210201 0.43417,-0.08971 1.09028,-0.129637 1.75648,-0.127641 z m 49.800582,0 c 0.666227,-0.0015 1.322317,0.03792 1.756482,0.127641 1.432035,0.295889 2.708847,1.030178 3.844727,2.210201 0.863809,0.897394 1.247281,1.508233 1.60972,2.564701 0.258083,0.752382 0.274546,0.868686 0.278536,2.023649 0.003,0.77869 -0.03781,1.394458 -0.112138,1.689819 -0.161863,0.643152 -0.430719,1.351856 -0.51263,1.351856 -0.03751,0 -0.403158,-0.464566 -0.81287,-1.032495 -2.016889,-2.79576 -4.674357,-5.510827 -7.742163,-7.909595 -0.478393,-0.374067 -0.79084,-0.674172 -0.747241,-0.717786 0.188633,-0.188705 1.327188,-0.304997 2.437577,-0.307991 z m -49.825382,27.756057 8.6527,4.995561 c 0.002,0.06 0.003,0.120258 0.003,0.180738 0,3.244674 -2.63029,5.874965 -5.87496,5.874965 -3.24466,0 -5.87497,-2.630291 -5.87497,-5.874965 0,-2.238616 1.2522,-4.184646 3.09426,-5.176299 z m 49.852254,0 c 1.842056,0.991653 3.094255,2.937683 3.094255,5.176299 0,3.244674 -2.63031,5.874965 -5.874964,5.874965 -3.244664,0 -5.874964,-2.630291 -5.874964,-5.874965 0,-0.06048 9.71e-4,-0.120738 0.003,-0.180738 z m -24.927294,8.956947 v 1.298112 c -0.0653,1.3e-5 -0.13049,8.89e-4 -0.19572,0.0026 -0.0652,0.0017 -0.13044,0.0042 -0.1956,0.0076 -0.0652,0.0034 -0.13032,0.0076 -0.19533,0.01266 -0.065,0.0051 -0.12987,0.01096 -0.19469,0.0177 -0.0648,0.0067 -0.1296,0.01432 -0.19418,0.02274 -0.0646,0.0084 -0.12899,0.01767 -0.19327,0.02778 -0.0643,0.0101 -0.12832,0.02103 -0.19223,0.03281 -0.0639,0.01178 -0.12771,0.02439 -0.19121,0.03785 -0.0635,0.01346 -0.12675,0.02775 -0.18978,0.04289 -0.063,0.01514 -0.12586,0.03111 -0.18836,0.04793 -0.0625,0.01682 -0.12463,0.03447 -0.18655,0.05297 -0.0619,0.0185 -0.12359,0.03783 -0.18487,0.05801 -0.0613,0.02018 -0.12222,0.04119 -0.18281,0.06305 -0.0606,0.02186 -0.1209,0.04455 -0.18074,0.06808 -0.0598,0.02353 -0.11924,0.04791 -0.17828,0.07312 -0.059,0.02521 -0.11765,0.05127 -0.17583,0.07816 -0.0505,0.02334 -0.0988,0.04501 -0.14495,0.06498 -0.0461,0.01997 -0.09,0.03827 -0.13139,0.05478 -0.0414,0.01651 -0.0804,0.03123 -0.11679,0.04418 -0.0363,0.01295 -0.07,0.02416 -0.10103,0.03346 -0.031,0.0093 -0.0592,0.01667 -0.0845,0.02222 -0.0253,0.0055 -0.0478,0.0093 -0.067,0.01098 -0.0193,0.0017 -0.0354,0.0015 -0.0483,-7.75e-4 -0.006,-0.0011 -0.0121,-0.0028 -0.0169,-0.0049 -3e-5,-1.6e-5 -9e-5,1.6e-5 -1.3e-4,0 -0.005,-0.0021 -0.009,-0.0047 -0.0119,-0.0079 -0.006,-0.0059 -0.0108,-0.01265 -0.0146,-0.02015 -0.004,-0.0075 -0.007,-0.01582 -0.008,-0.02481 -0.002,-0.009 -0.002,-0.01868 -0.002,-0.02907 1.7e-4,-0.01039 0.001,-0.02137 0.003,-0.03307 0.002,-0.0117 0.005,-0.02416 0.009,-0.03708 0.004,-0.01292 0.008,-0.02638 0.0141,-0.04044 0.0112,-0.02812 0.0258,-0.05841 0.0434,-0.09056 0.0176,-0.03216 0.0382,-0.06618 0.0616,-0.101673 0.0234,-0.03549 0.0496,-0.07244 0.0782,-0.110588 0.0286,-0.03814 0.0596,-0.07747 0.0928,-0.117563 0.0332,-0.0401 0.0686,-0.08099 0.10568,-0.122344 0.0371,-0.04136 0.076,-0.08326 0.1164,-0.125187 0.0404,-0.04193 0.0824,-0.0839 0.12558,-0.125702 0.0431,-0.0418 0.0875,-0.08343 0.13268,-0.124411 0.0452,-0.04098 0.0913,-0.08132 0.13797,-0.120794 0.0467,-0.03947 0.0938,-0.07797 0.14134,-0.115239 0.0475,-0.03727 0.0953,-0.07337 0.14301,-0.107745 0.0477,-0.03437 0.0954,-0.06714 0.14276,-0.09793 0.0473,-0.03078 0.0943,-0.05954 0.14056,-0.08604 0.0449,-0.02573 0.0891,-0.05028 0.13255,-0.07377 0.0435,-0.02349 0.0864,-0.04598 0.1288,-0.06731 0.0424,-0.02133 0.0844,-0.04159 0.12609,-0.06085 0.0417,-0.01925 0.0831,-0.03738 0.12441,-0.05465 0.0413,-0.01726 0.0827,-0.03361 0.12403,-0.04896 0.0414,-0.01536 0.0828,-0.02974 0.12454,-0.04328 0.0417,-0.01354 0.0837,-0.02618 0.12622,-0.03798 0.0425,-0.0118 0.0855,-0.02279 0.12906,-0.03294 0.0436,-0.01015 0.0879,-0.01945 0.13293,-0.02803 0.0901,-0.01717 0.18355,-0.03135 0.28177,-0.04276 0.0491,-0.0057 0.0995,-0.01072 0.15115,-0.01512 0.0517,-0.0044 0.10468,-0.0082 0.1593,-0.01137 0.0546,-0.0032 0.1108,-0.0057 0.16872,-0.0078 0.0579,-0.002 0.1176,-0.0035 0.17919,-0.0045 0.0616,-9.72e-4 0.12507,-0.0014 0.19068,-0.0014 z m 2.6e-4,0 c 0.0656,0 0.1291,4.49e-4 0.19069,0.0014 0.0616,9.72e-4 0.12127,0.0025 0.17919,0.0045 0.0579,0.002 0.1141,0.0046 0.16872,0.0078 0.0546,0.0032 0.10761,0.007 0.15929,0.01137 0.0517,0.0044 0.10204,0.0094 0.15116,0.01512 0.0982,0.01142 0.19163,0.02559 0.28176,0.04276 0.0451,0.0086 0.0894,0.01788 0.13294,0.02803 0.0436,0.01015 0.0866,0.02114 0.12906,0.03294 0.0425,0.0118 0.0845,0.02444 0.12622,0.03798 0.0417,0.01354 0.0832,0.02792 0.12454,0.04328 0.0414,0.01536 0.0827,0.0317 0.12402,0.04896 0.0414,0.01726 0.0827,0.0354 0.12442,0.05465 0.0417,0.01925 0.0837,0.03952 0.12609,0.06085 0.0424,0.02133 0.0853,0.04382 0.1288,0.06731 0.0435,0.02349 0.0876,0.04804 0.13255,0.07377 0.0463,0.0265 0.0932,0.05526 0.14056,0.08604 0.0473,0.03078 0.095,0.06355 0.14276,0.09793 0.0477,0.03437 0.0955,0.07048 0.14301,0.107745 0.0475,0.03727 0.0947,0.07576 0.14134,0.115239 0.0467,0.03947 0.0928,0.07981 0.13797,0.120794 0.0452,0.04098 0.0896,0.08261 0.13268,0.124411 0.0431,0.0418 0.0851,0.08378 0.12557,0.125702 0.0404,0.04193 0.0793,0.08383 0.11641,0.125187 0.0371,0.04136 0.0725,0.08225 0.10567,0.122344 0.0332,0.0401 0.0642,0.07942 0.0928,0.117563 0.0286,0.03814 0.0547,0.07509 0.0782,0.110588 0.0234,0.0355 0.044,0.06952 0.0616,0.101673 0.0176,0.03215 0.0322,0.06244 0.0434,0.09056 0.006,0.01406 0.0102,0.02752 0.0141,0.04044 0.004,0.01292 0.007,0.02538 0.009,0.03708 0.002,0.0117 0.003,0.02269 0.003,0.03307 1.8e-4,0.01039 -5.4e-4,0.02008 -0.002,0.02907 -0.002,0.009 -0.005,0.0173 -0.008,0.02481 -0.004,0.0075 -0.009,0.01422 -0.0146,0.02015 -0.003,0.0031 -0.007,0.0058 -0.0119,0.0079 -0.005,0.0021 -0.0106,0.0038 -0.017,0.0049 -0.0129,0.0022 -0.029,0.0025 -0.0483,7.75e-4 -0.0193,-0.0017 -0.0417,-0.0054 -0.067,-0.01098 -0.0253,-0.0055 -0.0535,-0.01292 -0.0845,-0.02222 -0.031,-0.0093 -0.0647,-0.02051 -0.10103,-0.03346 -0.0363,-0.01295 -0.0754,-0.02767 -0.11678,-0.04418 -0.0414,-0.01651 -0.0853,-0.0348 -0.13139,-0.05478 -0.0461,-0.01997 -0.0944,-0.04164 -0.14495,-0.06498 -0.0582,-0.02689 -0.1168,-0.05295 -0.17583,-0.07816 -0.059,-0.02521 -0.11845,-0.04959 -0.17829,-0.07312 -0.0598,-0.02353 -0.12014,-0.04623 -0.18073,-0.06808 -0.0606,-0.02186 -0.12153,-0.04287 -0.18281,-0.06305 -0.0613,-0.02018 -0.12295,-0.03951 -0.18487,-0.05801 -0.0619,-0.0185 -0.12405,-0.03615 -0.18655,-0.05297 -0.0625,-0.01682 -0.12534,-0.03279 -0.18836,-0.04793 -0.063,-0.01514 -0.12629,-0.02943 -0.18979,-0.04289 -0.0635,-0.01346 -0.12729,-0.02607 -0.1912,-0.03785 -0.0639,-0.01178 -0.12796,-0.02271 -0.19224,-0.03281 -0.0643,-0.0101 -0.12869,-0.01936 -0.19327,-0.02778 -0.0646,-0.0084 -0.12935,-0.016 -0.19417,-0.02274 -0.0648,-0.0067 -0.12967,-0.01264 -0.19469,-0.0177 -0.065,-0.0051 -0.13018,-0.0093 -0.19534,-0.01266 -0.0652,-0.0034 -0.13036,-0.0059 -0.19559,-0.0076 -0.0652,-0.0017 -0.13047,-0.0026 -0.19573,-0.0026 z"
     transform="translate(165.63949,117.127)" /></svg>
