<?xml version="1.0" encoding="UTF-8" standalone="no"?>
<!-- Created with Inkscape (http://www.inkscape.org/) -->

<svg
   width="438.23267mm"
   height="438.23267mm"
   viewBox="0 0 109.55817 109.55817"
   version="1.1"
   id="svg123"
   xml:space="preserve"
   inkscape:version="1.3 (0e150ed6c4, 2023-07-21)"
   sodipodi:docname="chippalrus_b.svg"
   inkscape:export-filename="Vectors_LT 100 - RB 700 - WH 600\CAT\01_w.png"
   inkscape:export-xdpi="300"
   inkscape:export-ydpi="300"
   xmlns:inkscape="http://www.inkscape.org/namespaces/inkscape"
   xmlns:sodipodi="http://sodipodi.sourceforge.net/DTD/sodipodi-0.dtd"
   xmlns="http://www.w3.org/2000/svg"
   xmlns:svg="http://www.w3.org/2000/svg"><sodipodi:namedview
     id="namedview125"
     pagecolor="#282828"
     bordercolor="#1a1a1a"
     borderopacity="1"
     inkscape:showpageshadow="2"
     inkscape:pageopacity="0"
     inkscape:pagecheckerboard="0"
     inkscape:deskcolor="#414141"
     inkscape:document-units="mm"
     showgrid="false"
     showguides="true"
     inkscape:zoom="0.15315517"
     inkscape:cx="68.557921"
     inkscape:cy="166.49781"
     inkscape:window-width="1920"
     inkscape:window-height="1009"
     inkscape:window-x="1912"
     inkscape:window-y="-8"
     inkscape:window-maximized="1"
     inkscape:current-layer="svg123"><sodipodi:guide
       position="31.095916,277.5625"
       orientation="0,-1"
       id="guide925"
       inkscape:locked="false" /><inkscape:grid
       id="grid11"
       units="px"
       originx="-683.64062"
       originy="-683.64062"
       spacingx="0.066145833"
       spacingy="0.066145833"
       empcolor="#0099e5"
       empopacity="0.30196078"
       color="#0099e5"
       opacity="0.14901961"
       empspacing="5"
       dotted="false"
       gridanglex="30"
       gridanglez="30"
       visible="false" /></sodipodi:namedview><defs
     id="defs120"><linearGradient
       id="linearGradient4769"
       inkscape:swatch="gradient"><stop
         style="stop-color:#ffffff;stop-opacity:1;"
         offset="0"
         id="stop4765" /><stop
         style="stop-color:#ffffff;stop-opacity:0;"
         offset="1"
         id="stop4767" /></linearGradient><linearGradient
       id="linearGradient2383"
       inkscape:swatch="solid"><stop
         style="stop-color:#000000;stop-opacity:1;"
         offset="0"
         id="stop2381" /></linearGradient></defs><path
     id="path7405"
     style="display:inline;fill:#ffffff;fill-opacity:1;stroke:none;stroke-width:4.20003;stroke-linecap:butt;stroke-linejoin:round;stroke-miterlimit:30;stroke-dasharray:none;stroke-opacity:1;paint-order:stroke fill markers"
     inkscape:label="chippalrus"
     d="m 99.999067,63.803858 c -1.925586,0 -2.739906,0.03404 -3.555856,0.148828 -0.582078,0.08188 -1.458736,0.225454 -1.947684,0.318844 -0.48895,0.09339 -1.422353,0.303288 -2.074293,0.466638 -0.651928,0.163349 -1.604458,0.431911 -2.116666,0.596346 -0.5122,0.164437 -1.502918,0.528424 -2.201416,0.809253 -0.6985,0.280827 -1.822313,0.791502 -2.497523,1.134814 -0.675218,0.343316 -1.474989,0.761135 -1.777669,0.928109 -0.45435,0.25064 -0.61283,0.29632 -0.907438,0.26355 -0.19628,-0.02183 -0.539408,-0.15462 -0.762228,-0.295072 -0.222828,-0.140455 -0.747754,-0.38849 -1.166854,-0.551388 -0.419098,-0.162898 -1.085753,-0.3764 -1.481563,-0.47439 -0.39578,-0.09799 -1.08156,-0.215869 -1.523938,-0.261999 -0.44239,-0.04613 -1.147213,-0.08372 -1.566313,-0.08372 -0.419078,0 -1.105355,0.03585 -1.524455,0.0801 -0.419098,0.04425 -1.132256,0.174487 -1.584916,0.289388 -0.45266,0.114902 -1.153735,0.344182 -1.558045,0.509013 -0.404298,0.164832 -1.013119,0.45879 -1.352889,0.653191 -0.339768,0.194398 -0.948647,0.601599 -1.353405,0.905371 -0.40473,0.303776 -1.067736,0.887898 -1.473296,1.298112 -0.405558,0.410214 -0.990809,1.099084 -1.300179,1.530656 -0.309358,0.431572 -0.752436,1.165762 -0.984436,1.631425 -0.232,0.465662 -0.535584,1.199014 -0.674894,1.629358 -0.13931,0.430344 -0.316791,1.135179 -0.394291,1.566313 -0.0958,0.532575 -0.141221,1.258839 -0.142111,2.265495 -9.2e-4,1.031639 0.0425,1.725617 0.143144,2.285648 0.0795,0.442381 0.273442,1.191896 0.430982,1.665015 0.157548,0.47312 0.426114,1.139771 0.596862,1.481564 0.17074,0.341789 0.46317,0.821526 0.65009,1.066084 0.23622,0.309053 0.352455,0.55519 0.380855,0.807186 0.0334,0.296028 -0.0326,0.540627 -0.359668,1.333252 -0.220298,0.533923 -0.58662,1.484919 -0.81442,2.113567 -0.2278,0.628644 -0.563381,1.638431 -0.745691,2.24379 -0.1823,0.605365 -0.431248,1.495268 -0.552938,1.977658 -0.12169,0.482394 -0.296824,1.244274 -0.389124,1.69292 -0.0923,0.448649 -0.240479,1.292457 -0.329179,1.874821 -0.0887,0.582365 -0.208233,1.496925 -0.266133,2.032434 -0.058,0.535516 -0.104836,1.849726 -0.102836,2.920756 0.002,1.35118 0.04759,2.27116 0.147794,3.00498 0.0795,0.58166 0.200218,1.32468 0.268718,1.65106 0.0685,0.32638 0.201806,0.86001 0.296106,1.18598 0.0943,0.32596 0.325927,1.0117 0.514697,1.52394 0.18877,0.51221 0.529547,1.2969 0.757577,1.74356 0.228028,0.44665 0.640276,1.15149 0.915706,1.56631 0.27544,0.41483 0.713858,1.02124 0.974618,1.34721 0.260768,0.32596 0.747134,0.87371 1.080554,1.21749 0.33341,0.34378 0.943965,0.90624 1.357023,1.25006 0.41308,0.34381 1.147357,0.89117 1.631425,1.21594 0.48406,0.32477 1.291398,0.8164 1.794206,1.09296 0.50278,0.27655 1.409496,0.71919 2.014864,0.9834 0.60537,0.26421 1.824678,0.72226 2.709396,1.01751 0.884748,0.29525 2.123162,0.67123 2.75177,0.83561 0.628628,0.16438 1.714273,0.41111 2.412773,0.5488 0.698498,0.13769 2.032315,0.36698 2.963643,0.50901 0.931338,0.14204 2.550483,0.35237 3.598231,0.46768 1.047748,0.1153 2.647807,0.26706 3.555855,0.33744 0.908048,0.0704 2.432266,0.16884 3.386874,0.2186 0.954618,0.0498 2.097517,0.10203 2.539897,0.11627 0.301488,0.01 0.937789,0.009 1.608687,0.004 4.31e-4,1e-5 6.03e-4,0 0.001,0 V 63.803858 Z m -24.900291,6.957715 c 1.110398,0.003 2.248948,0.119287 2.437578,0.307992 0.0436,0.04361 -0.268853,0.34372 -0.747241,0.717785 -3.067804,2.398764 -5.725278,5.11384 -7.742164,7.909596 -0.40971,0.567927 -0.77536,1.032495 -0.81287,1.032495 -0.0819,0 -0.350771,-0.708704 -0.512631,-1.351856 -0.0743,-0.295359 -0.115127,-0.911131 -0.112137,-1.689819 0.004,-1.154961 0.0204,-1.271269 0.278536,-2.023649 0.362418,-1.056466 0.745901,-1.66731 1.609721,-2.564702 1.135866,-1.180021 2.4127,-1.914312 3.844726,-2.210201 0.43417,-0.08971 1.090284,-0.129637 1.756482,-0.127641 z m -0.0248,27.75606 8.652702,4.995557 c 0.002,0.06 0.003,0.12026 0.003,0.18074 0,3.24467 -2.630301,5.87497 -5.874965,5.87497 -3.244654,0 -5.874965,-2.6303 -5.874965,-5.87497 0,-2.23861 1.2522,-4.184646 3.094256,-5.176297 z m 24.924966,8.956947 v 1.29811 c -0.0653,2e-5 -0.130495,8.8e-4 -0.195725,0.003 -0.0652,0.002 -0.130435,0.004 -0.195595,0.008 -0.0652,0.003 -0.130327,0.008 -0.195337,0.0127 -0.065,0.005 -0.129871,0.011 -0.194691,0.0177 -0.0648,0.007 -0.129594,0.0143 -0.194174,0.0227 -0.0646,0.008 -0.12899,0.0177 -0.19327,0.0278 -0.0643,0.0101 -0.128326,0.021 -0.192236,0.0328 -0.0639,0.0118 -0.127703,0.0244 -0.191203,0.0378 -0.0635,0.0135 -0.126752,0.0278 -0.189782,0.0429 -0.063,0.0151 -0.12586,0.0311 -0.18836,0.0479 -0.0625,0.0168 -0.124632,0.0345 -0.186552,0.053 -0.0619,0.0185 -0.123593,0.0378 -0.184873,0.058 -0.0613,0.0202 -0.122215,0.0412 -0.182805,0.063 -0.0606,0.0219 -0.120899,0.0446 -0.180739,0.0681 -0.0598,0.0235 -0.119243,0.0479 -0.178283,0.0731 -0.059,0.0252 -0.117649,0.0513 -0.175829,0.0782 -0.0505,0.0233 -0.0988,0.045 -0.144953,0.065 -0.0461,0.02 -0.09,0.0383 -0.131387,0.0548 -0.0414,0.0165 -0.0804,0.0312 -0.116789,0.0442 -0.0363,0.013 -0.07,0.0242 -0.101027,0.0335 -0.031,0.009 -0.05919,0.0167 -0.08449,0.0222 -0.0253,0.005 -0.04785,0.009 -0.06705,0.011 -0.0193,0.002 -0.03542,0.002 -0.04832,-7.7e-4 -0.006,-0.001 -0.012,-0.003 -0.0168,-0.005 h -1.29e-4 c -0.005,-0.002 -0.0091,-0.005 -0.01202,-0.008 -0.006,-0.006 -0.0108,-0.0127 -0.0146,-0.0202 -0.004,-0.008 -0.0069,-0.0158 -0.0079,-0.0248 -0.002,-0.009 -0.0021,-0.0187 -0.0021,-0.0291 1.7e-4,-0.0104 9.71e-4,-0.0214 0.003,-0.0331 0.002,-0.0117 0.005,-0.0242 0.009,-0.0371 0.004,-0.0129 0.008,-0.0264 0.01408,-0.0404 0.0112,-0.0281 0.02581,-0.0584 0.04341,-0.0906 0.0176,-0.0322 0.03822,-0.0662 0.06162,-0.10167 0.0234,-0.0355 0.04956,-0.0724 0.07816,-0.11059 0.0286,-0.0381 0.05956,-0.0775 0.09276,-0.11756 0.0332,-0.0401 0.0686,-0.081 0.105678,-0.12235 0.0371,-0.0414 0.076,-0.0833 0.116401,-0.12518 0.0404,-0.0419 0.08239,-0.0839 0.125574,-0.12571 0.0431,-0.0418 0.08763,-0.0834 0.132808,-0.12441 0.0452,-0.041 0.09118,-0.0813 0.137847,-0.12079 0.0467,-0.0395 0.0938,-0.078 0.141335,-0.11524 0.0475,-0.0373 0.0953,-0.0734 0.143015,-0.10774 0.0477,-0.0344 0.0954,-0.0671 0.142756,-0.0979 0.0473,-0.0308 0.0943,-0.0595 0.14056,-0.086 0.0449,-0.0257 0.0891,-0.0503 0.13255,-0.0738 0.0435,-0.0235 0.0864,-0.046 0.128804,-0.0673 0.0424,-0.0213 0.0844,-0.0416 0.12609,-0.0609 0.0417,-0.0192 0.0831,-0.0374 0.124411,-0.0546 0.0413,-0.0173 0.08269,-0.0336 0.124024,-0.049 0.0414,-0.0154 0.0828,-0.0297 0.12454,-0.0433 0.0417,-0.0135 0.0837,-0.0262 0.126219,-0.038 0.0425,-0.0118 0.0855,-0.0228 0.129062,-0.0329 0.0436,-0.0101 0.08791,-0.0195 0.132938,-0.028 0.0901,-0.0172 0.183546,-0.0314 0.281766,-0.0428 0.0491,-0.006 0.0995,-0.0107 0.151153,-0.0151 0.0517,-0.004 0.104673,-0.008 0.159293,-0.0114 0.0546,-0.003 0.110804,-0.006 0.168724,-0.008 0.0579,-0.002 0.117598,-0.003 0.179188,-0.004 0.06143,-9.7e-4 0.124748,-0.001 0.190169,-0.001 z m -48.239307,0.84388 v 9.48831 l 0.0013,5.1e-4 48.238144,19.34508 0.001,-3.9e-4 v -10.55685 c -0.0053,-3e-5 -0.0105,-6e-5 -0.01757,0 -0.664168,0.005 -1.268556,0.007 -1.660364,-0.006 -0.491298,-0.0158 -1.616479,-0.067 -2.581755,-0.11731 -0.982346,-0.0512 -2.501428,-0.15 -3.439584,-0.22272 -0.950436,-0.0737 -2.543359,-0.22483 -3.623035,-0.34365 -1.089914,-0.11995 -2.701067,-0.32839 -3.685563,-0.47853 -0.968856,-0.14777 -2.290321,-0.3753 -3.052527,-0.52555 -0.760448,-0.1499 -1.833767,-0.39377 -2.537313,-0.57774 -0.733856,-0.19189 -1.95156,-0.56283 -2.886646,-0.87488 -0.953866,-0.31831 -2.147292,-0.76238 -2.884578,-1.08417 -0.688898,-0.30067 -1.578116,-0.73436 -2.185914,-1.06867 -0.591896,-0.32556 -1.385906,-0.8087 -1.952852,-1.18908 -0.5747,-0.38556 -1.293295,-0.92012 -1.804541,-1.34565 -0.4967,-0.4134 -1.093445,-0.96075 -1.521871,-1.4025 -0.39898,-0.41139 -0.87328,-0.9429 -1.212846,-1.36736 -0.33714,-0.42144 -0.761875,-1.01348 -1.083655,-1.4981 -0.34765,-0.52359 -0.748316,-1.20876 -1.035596,-1.77146 -0.295668,-0.57914 -0.627669,-1.34376 -0.859379,-1.97249 -0.20631,-0.55983 -0.429253,-1.2135 -0.560173,-1.66605 -0.06698,-0.23154 -0.137352,-0.49987 -0.202184,-0.76481 H 51.76131 Z M 100.00113,63.803858 c 1.92559,0 2.73991,0.03404 3.55586,0.148828 0.58208,0.08188 1.45874,0.225454 1.94768,0.318844 0.48895,0.09339 1.42236,0.303288 2.0743,0.466638 0.65192,0.163349 1.60445,0.431911 2.11666,0.596346 0.5122,0.164437 1.50292,0.528424 2.20142,0.809253 0.6985,0.280827 1.82231,0.791502 2.49752,1.134814 0.67522,0.343316 1.47499,0.761135 1.77767,0.928109 0.45435,0.25064 0.61283,0.29632 0.90744,0.26355 0.19628,-0.02183 0.53941,-0.15462 0.76223,-0.295072 0.22282,-0.140455 0.74775,-0.38849 1.16685,-0.551388 0.4191,-0.162898 1.08575,-0.3764 1.48156,-0.47439 0.39578,-0.09799 1.08156,-0.215869 1.52394,-0.261999 0.44239,-0.04613 1.14721,-0.08372 1.56631,-0.08372 0.41908,0 1.10536,0.03585 1.52446,0.0801 0.4191,0.04425 1.13226,0.174487 1.58492,0.289388 0.45266,0.114902 1.15373,0.344182 1.55804,0.509013 0.4043,0.164832 1.01312,0.45879 1.35289,0.653191 0.33977,0.194398 0.94865,0.601599 1.3534,0.905371 0.40473,0.303776 1.06774,0.887898 1.4733,1.298112 0.40556,0.410214 0.99081,1.099084 1.30018,1.530656 0.30936,0.431572 0.75243,1.165762 0.98443,1.631425 0.232,0.465662 0.53559,1.199014 0.6749,1.629358 0.13931,0.430344 0.31679,1.135179 0.39429,1.566313 0.0958,0.532575 0.14122,1.258839 0.14211,2.265495 9.2e-4,1.031639 -0.0425,1.725617 -0.14314,2.285648 -0.0795,0.442381 -0.27344,1.191896 -0.43099,1.665015 -0.15754,0.47312 -0.42611,1.139771 -0.59686,1.481564 -0.17074,0.341789 -0.46317,0.821526 -0.65009,1.066084 -0.23622,0.309053 -0.35245,0.55519 -0.38085,0.807186 -0.0334,0.296028 0.0326,0.540627 0.35967,1.333252 0.22029,0.533923 0.58662,1.484919 0.81442,2.113567 0.2278,0.628644 0.56338,1.638431 0.74569,2.24379 0.1823,0.605365 0.43124,1.495268 0.55293,1.977658 0.12169,0.482394 0.29683,1.244274 0.38913,1.69292 0.0923,0.448649 0.24048,1.292457 0.32918,1.874821 0.0887,0.582365 0.20823,1.496925 0.26613,2.032434 0.058,0.535516 0.10484,1.849726 0.10284,2.920756 -0.002,1.35118 -0.0476,2.27116 -0.1478,3.00498 -0.0795,0.58166 -0.20022,1.32468 -0.26872,1.65106 -0.0685,0.32638 -0.2018,0.86001 -0.2961,1.18598 -0.0943,0.32596 -0.32593,1.0117 -0.5147,1.52394 -0.18877,0.51221 -0.52955,1.2969 -0.75758,1.74356 -0.22802,0.44665 -0.64027,1.15149 -0.9157,1.56631 -0.27544,0.41483 -0.71386,1.02124 -0.97462,1.34721 -0.26077,0.32596 -0.74713,0.87371 -1.08055,1.21749 -0.33341,0.34378 -0.94397,0.90624 -1.35703,1.25006 -0.41308,0.34381 -1.14735,0.89117 -1.63142,1.21594 -0.48406,0.32477 -1.2914,0.8164 -1.79421,1.09296 -0.50278,0.27655 -1.40949,0.71919 -2.01486,0.9834 -0.60537,0.26421 -1.82468,0.72226 -2.7094,1.01751 -0.88474,0.29525 -2.12316,0.67123 -2.75177,0.83561 -0.62862,0.16438 -1.71427,0.41111 -2.41277,0.5488 -0.6985,0.13769 -2.03231,0.36698 -2.96364,0.50901 -0.93134,0.14204 -2.55049,0.35237 -3.59823,0.46768 -1.04775,0.1153 -2.64781,0.26706 -3.55586,0.33744 -0.90805,0.0704 -2.43226,0.16884 -3.38687,0.2186 -0.95462,0.0498 -2.09752,0.10203 -2.5399,0.11627 -0.30149,0.01 -0.93779,0.009 -1.60869,0.004 -4.3e-4,1e-5 -6e-4,0 -0.001,0 V 63.803858 Z m 24.90029,6.957715 c -1.11039,0.003 -2.24894,0.119287 -2.43757,0.307992 -0.0436,0.04361 0.26885,0.34372 0.74724,0.717785 3.0678,2.398764 5.72528,5.11384 7.74216,7.909596 0.40971,0.567927 0.77536,1.032495 0.81287,1.032495 0.0819,0 0.35077,-0.708704 0.51263,-1.351856 0.0743,-0.295359 0.11513,-0.911131 0.11214,-1.689819 -0.004,-1.154961 -0.0204,-1.271269 -0.27854,-2.023649 -0.36242,-1.056466 -0.7459,-1.66731 -1.60972,-2.564702 -1.13586,-1.180021 -2.4127,-1.914312 -3.84472,-2.210201 -0.43417,-0.08971 -1.09029,-0.129637 -1.75649,-0.127641 z m 0.0248,27.75606 -8.6527,4.995557 c -0.002,0.06 -0.003,0.12026 -0.003,0.18074 0,3.24467 2.63031,5.87497 5.87497,5.87497 3.24465,0 5.87496,-2.6303 5.87496,-5.87497 0,-2.23861 -1.2522,-4.184646 -3.09425,-5.176297 z m -24.92497,8.956947 v 1.29811 c 0.0653,2e-5 0.1305,8.8e-4 0.19573,0.003 0.0652,0.002 0.13043,0.004 0.19559,0.008 0.0652,0.003 0.13033,0.008 0.19534,0.0127 0.065,0.005 0.12987,0.011 0.19469,0.0177 0.0648,0.007 0.12959,0.0143 0.19417,0.0227 0.0646,0.008 0.12899,0.0177 0.19327,0.0278 0.0643,0.0101 0.12833,0.021 0.19224,0.0328 0.0639,0.0118 0.1277,0.0244 0.1912,0.0378 0.0635,0.0135 0.12676,0.0278 0.18979,0.0429 0.063,0.0151 0.12586,0.0311 0.18836,0.0479 0.0625,0.0168 0.12463,0.0345 0.18655,0.053 0.0619,0.0185 0.12359,0.0378 0.18487,0.058 0.0613,0.0202 0.12222,0.0412 0.18281,0.063 0.0606,0.0219 0.12089,0.0446 0.18073,0.0681 0.0598,0.0235 0.11925,0.0479 0.17829,0.0731 0.059,0.0252 0.11765,0.0513 0.17583,0.0782 0.0505,0.0233 0.0988,0.045 0.14495,0.065 0.0461,0.02 0.09,0.0383 0.13139,0.0548 0.0414,0.0165 0.0804,0.0312 0.11679,0.0442 0.0363,0.013 0.07,0.0242 0.10102,0.0335 0.031,0.009 0.0592,0.0167 0.0845,0.0222 0.0253,0.005 0.0478,0.009 0.067,0.011 0.0193,0.002 0.0354,0.002 0.0483,-7.7e-4 0.006,-0.001 0.012,-0.003 0.0168,-0.005 h 1.3e-4 c 0.005,-0.002 0.009,-0.005 0.012,-0.008 0.006,-0.006 0.0108,-0.0127 0.0146,-0.0202 0.004,-0.008 0.007,-0.0158 0.008,-0.0248 0.002,-0.009 0.002,-0.0187 0.002,-0.0291 -1.7e-4,-0.0104 -9.7e-4,-0.0214 -0.003,-0.0331 -0.002,-0.0117 -0.005,-0.0242 -0.009,-0.0371 -0.004,-0.0129 -0.008,-0.0264 -0.0141,-0.0404 -0.0112,-0.0281 -0.0258,-0.0584 -0.0434,-0.0906 -0.0176,-0.0322 -0.0382,-0.0662 -0.0616,-0.10167 -0.0234,-0.0355 -0.0496,-0.0724 -0.0782,-0.11059 -0.0286,-0.0381 -0.0596,-0.0775 -0.0928,-0.11756 -0.0332,-0.0401 -0.0686,-0.081 -0.10568,-0.12235 -0.0371,-0.0414 -0.076,-0.0833 -0.1164,-0.12518 -0.0404,-0.0419 -0.0824,-0.0839 -0.12558,-0.12571 -0.0431,-0.0418 -0.0876,-0.0834 -0.1328,-0.12441 -0.0452,-0.041 -0.0912,-0.0813 -0.13785,-0.12079 -0.0467,-0.0395 -0.0938,-0.078 -0.14134,-0.11524 -0.0475,-0.0373 -0.0953,-0.0734 -0.14301,-0.10774 -0.0477,-0.0344 -0.0954,-0.0671 -0.14276,-0.0979 -0.0473,-0.0308 -0.0943,-0.0595 -0.14056,-0.086 -0.0449,-0.0257 -0.0891,-0.0503 -0.13255,-0.0738 -0.0435,-0.0235 -0.0864,-0.046 -0.1288,-0.0673 -0.0424,-0.0213 -0.0844,-0.0416 -0.12609,-0.0609 -0.0417,-0.0192 -0.0831,-0.0374 -0.12441,-0.0546 -0.0413,-0.0173 -0.0827,-0.0336 -0.12403,-0.049 -0.0414,-0.0154 -0.0828,-0.0297 -0.12454,-0.0433 -0.0417,-0.0135 -0.0837,-0.0262 -0.12621,-0.038 -0.0425,-0.0118 -0.0855,-0.0228 -0.12907,-0.0329 -0.0436,-0.0101 -0.0879,-0.0195 -0.13293,-0.028 -0.0901,-0.0172 -0.18355,-0.0314 -0.28177,-0.0428 -0.0491,-0.006 -0.0995,-0.0107 -0.15115,-0.0151 -0.0517,-0.004 -0.10468,-0.008 -0.1593,-0.0114 -0.0546,-0.003 -0.1108,-0.006 -0.16872,-0.008 -0.0579,-0.002 -0.1176,-0.003 -0.17919,-0.004 -0.0614,-9.7e-4 -0.12475,-0.001 -0.19017,-0.001 z m 48.23931,0.84388 v 9.48831 l -0.001,5.1e-4 -48.23815,19.34508 -0.001,-3.9e-4 v -10.55685 c 0.005,-3e-5 0.0105,-6e-5 0.0176,0 0.66417,0.005 1.26856,0.007 1.66036,-0.006 0.4913,-0.0158 1.61648,-0.067 2.58176,-0.11731 0.98234,-0.0512 2.50143,-0.15 3.43958,-0.22272 0.95044,-0.0737 2.54336,-0.22483 3.62304,-0.34365 1.08991,-0.11995 2.70106,-0.32839 3.68556,-0.47853 0.96886,-0.14777 2.29032,-0.3753 3.05253,-0.52555 0.76045,-0.1499 1.83376,-0.39377 2.53731,-0.57774 0.73386,-0.19189 1.95156,-0.56283 2.88665,-0.87488 0.95386,-0.31831 2.14729,-0.76238 2.88457,-1.08417 0.6889,-0.30067 1.57812,-0.73436 2.18592,-1.06867 0.59189,-0.32556 1.3859,-0.8087 1.95285,-1.18908 0.5747,-0.38556 1.29329,-0.92012 1.80454,-1.34565 0.4967,-0.4134 1.09345,-0.96075 1.52187,-1.4025 0.39898,-0.41139 0.87328,-0.9429 1.21285,-1.36736 0.33714,-0.42144 0.76187,-1.01348 1.08365,-1.4981 0.34765,-0.52359 0.74832,-1.20876 1.0356,-1.77146 0.29567,-0.57914 0.62767,-1.34376 0.85938,-1.97249 0.20631,-0.55983 0.42925,-1.2135 0.56017,-1.66605 0.067,-0.23154 0.13735,-0.49987 0.20218,-0.76481 h 9.45085 z"
     transform="translate(-45.219978,-45.219978)" /></svg>
