<?xml version="1.0" encoding="UTF-8" standalone="no"?>
<svg
   width="438.23267mm"
   height="438.23267mm"
   viewBox="0 0 109.55817 109.55817"
   version="1.2"
   xml:space="preserve"
   id="svg1"
   xmlns="http://www.w3.org/2000/svg"
   xmlns:svg="http://www.w3.org/2000/svg">
  <title
   id="title1">bimi-svg-tiny-12-ps</title>
  <defs
   id="defs120" />
  
  <path
   id="path8647"
   d="m 54.778056,17.533298 c -1.937999,0 -2.818048,0.03597 -3.701067,0.160197 -0.605719,0.08521 -1.476471,0.226503 -1.997811,0.326078 -0.531839,0.101583 -1.457774,0.311354 -2.133203,0.480591 -0.681229,0.170689 -1.625143,0.436418 -2.181262,0.61495 -0.56646,0.181841 -1.547804,0.542187 -2.273764,0.834057 -0.745589,0.299765 -1.861935,0.808092 -2.581754,1.174089 -0.68342,0.347487 -1.469706,0.7561 -1.808676,0.943095 -0.153569,0.08471 -0.227493,0.118675 -0.263033,0.134359 -0.0348,-0.0236 -0.28755,-0.102256 -0.33848,-0.134359 -0.38038,-0.239757 -0.869102,-0.454757 -1.347722,-0.640788 -0.480789,-0.186876 -1.135521,-0.397818 -1.609721,-0.515214 -0.479739,-0.118765 -1.150952,-0.233663 -1.665531,-0.287321 -0.49829,-0.05196 -1.193988,-0.08992 -1.675867,-0.08992 -0.47896,0 -1.155803,0.0357 -1.635043,0.0863 -0.509339,0.05378 -1.208024,0.183201 -1.732194,0.316259 -0.524929,0.133246 -1.215531,0.357967 -1.697571,0.554489 -0.467179,0.190469 -1.065433,0.476816 -1.478462,0.713134 -0.41902,0.23974 -1.012094,0.641406 -1.460893,0.978235 -0.48125,0.361214 -1.132128,0.935668 -1.589567,1.398365 -0.46368,0.469 -1.040183,1.147091 -1.406633,1.658297 -0.3613,0.504021 -0.798776,1.224542 -1.072286,1.773535 -0.26518,0.532259 -0.565002,1.252548 -0.734322,1.775602 -0.1623,0.501342 -0.335734,1.192999 -0.427364,1.702739 -0.11501,0.63936 -0.15721,1.41373 -0.15813,2.45153 -9.5e-4,1.061524 0.0401,1.815809 0.15813,2.472717 0.0956,0.531762 0.287755,1.266806 0.468705,1.810226 0.17715,0.531978 0.436254,1.182708 0.654224,1.619023 0.209399,0.41918 0.485589,0.883424 0.753959,1.23455 0.1738,0.227389 0.170346,0.276524 0.171566,0.287321 0.004,0.03944 0.01536,-0.01687 -0.01344,0.08992 -0.0288,0.106794 -0.113308,0.340375 -0.271818,0.724503 -0.23143,0.560917 -0.596911,1.507202 -0.831991,2.155941 -0.23797,0.656711 -0.571331,1.661766 -0.763261,2.299085 -0.18812,0.624686 -0.436514,1.50838 -0.566374,2.023132 -0.12738,0.504964 -0.300585,1.262782 -0.398425,1.738396 -0.1,0.485909 -0.247851,1.324397 -0.340031,1.929598 -0.0922,0.605318 -0.210531,1.51432 -0.271301,2.076359 -0.0713,0.658174 -0.111614,1.933774 -0.109554,3.037024 0.002,1.37275 0.0478,2.33695 0.15813,3.14451 0.0826,0.60409 0.19775,1.32775 0.281119,1.72496 0.04851,0.23113 0.125765,0.51327 0.197017,0.78962 H 6.541328 6.539628 v 9.48831 l 0.0013,5.1e-4 48.238144,19.34508 48.239428,-19.34559 v -9.48831 h -0.002 -10.542768 c 0.0712,-0.27635 0.1485,-0.55849 0.19701,-0.78962 0.0834,-0.39721 0.19856,-1.12087 0.28112,-1.72496 0.11027,-0.80756 0.15605,-1.77176 0.15813,-3.14451 v -0.002 c 0.002,-1.10275 -0.0378,-2.3772 -0.10903,-3.034954 -0.0608,-0.562039 -0.17963,-1.471041 -0.27182,-2.076359 -0.0922,-0.605201 -0.23955,-1.443689 -0.33952,-1.929598 -0.0978,-0.475614 -0.27156,-1.233432 -0.39894,-1.738396 -0.12985,-0.514752 -0.37825,-1.398446 -0.56637,-2.023132 -0.19193,-0.637319 -0.5253,-1.642374 -0.76326,-2.299085 -0.23508,-0.648739 -0.60056,-1.595024 -0.83199,-2.155941 -0.15851,-0.384128 -0.24301,-0.618224 -0.27182,-0.72502 -0.0288,-0.106796 -0.0179,-0.04997 -0.0134,-0.0894 0.001,-0.0108 -0.004,-0.05993 0.17002,-0.287321 0.26837,-0.351126 0.54611,-0.81537 0.75551,-1.23455 0.21797,-0.436315 0.47707,-1.087045 0.65422,-1.619023 0.18095,-0.54342 0.37314,-1.278981 0.46871,-1.810742 0.11804,-0.656908 0.15959,-1.410677 0.15864,-2.472201 -9.1e-4,-1.0378 -0.0436,-1.81217 -0.15864,-2.45153 -0.0916,-0.50974 -0.26507,-1.201397 -0.42737,-1.702739 -0.16932,-0.523054 -0.46914,-1.243343 -0.73432,-1.775602 -0.27351,-0.548993 -0.711,-1.269514 -1.07229,-1.773535 -0.36645,-0.511206 -0.94295,-1.189297 -1.40663,-1.658297 -0.45744,-0.462697 -1.10831,-1.037151 -1.58957,-1.398365 -0.4488,-0.336829 -1.04187,-0.738495 -1.46089,-0.978235 -0.41303,-0.236318 -1.01128,-0.522665 -1.47846,-0.713134 -0.48204,-0.196522 -1.17265,-0.421243 -1.69757,-0.554489 -0.52418,-0.133058 -1.22285,-0.262998 -1.7322,-0.316776 -0.47923,-0.0506 -1.15608,-0.08578 -1.63504,-0.08578 -0.48188,0 -1.17706,0.03797 -1.67535,0.08992 -0.51458,0.05366 -1.18631,0.168556 -1.66605,0.287321 -0.47419,0.117396 -1.12893,0.328338 -1.60972,0.515214 -0.47861,0.186031 -0.96735,0.401031 -1.34772,0.640788 -0.0509,0.03211 -0.30365,0.110759 -0.33848,0.134359 -0.0357,-0.01576 -0.10978,-0.04982 -0.26303,-0.134359 -0.33897,-0.186995 -1.12526,-0.595608 -1.80868,-0.943095 -0.71981,-0.365997 -1.83616,-0.874324 -2.58175,-1.174089 -0.72596,-0.29187 -1.7068,-0.652216 -2.27325,-0.834057 -0.55613,-0.178532 -1.50056,-0.444261 -2.18178,-0.61495 -0.67544,-0.169237 -1.60084,-0.379008 -2.13269,-0.480591 -0.52132,-0.09958 -1.39259,-0.240871 -1.99832,-0.326078 -0.88302,-0.124223 -1.76514,-0.160197 -3.703133,-0.160197 z m 10e-4,1.050582 c 1.925636,0 2.739906,0.03404 3.555856,0.148828 0.58208,0.08188 1.45874,0.225454 1.94769,0.318844 0.48895,0.09339 1.42235,0.303288 2.07429,0.466638 0.65193,0.163349 1.60446,0.431912 2.11667,0.596346 0.51224,0.164437 1.50291,0.528425 2.20141,0.809253 0.6985,0.280831 1.82232,0.791497 2.49752,1.134814 0.67522,0.343315 1.47499,0.761136 1.77767,0.928109 0.45435,0.25064 0.61283,0.29632 0.90744,0.26355 0.19628,-0.02183 0.53941,-0.154619 0.76223,-0.295072 0.22283,-0.140455 0.74776,-0.38849 1.16685,-0.551388 0.4191,-0.162898 1.08576,-0.3764 1.48157,-0.47439 0.39582,-0.09799 1.08156,-0.215869 1.52394,-0.261999 0.44238,-0.04613 1.14721,-0.08372 1.56631,-0.08372 0.41908,0 1.10535,0.03585 1.52445,0.0801 0.4191,0.04425 1.13226,0.174486 1.58492,0.289388 0.45266,0.114902 1.15373,0.344181 1.55804,0.509013 0.4043,0.164832 1.01312,0.45879 1.35289,0.653191 0.33977,0.194399 0.94865,0.601595 1.35341,0.905371 0.40473,0.303777 1.06773,0.887894 1.47329,1.298112 0.40556,0.410214 0.99081,1.09908 1.30018,1.530656 0.30936,0.431572 0.75244,1.165758 0.98444,1.631425 0.232,0.465662 0.53558,1.19901 0.67489,1.629358 0.13931,0.430344 0.31679,1.13518 0.39429,1.566313 0.0958,0.53258 0.14122,1.258831 0.14211,2.265495 9.2e-4,1.031643 -0.0425,1.725612 -0.14314,2.285648 -0.0795,0.44238 -0.27344,1.191896 -0.43098,1.665015 -0.15755,0.473124 -0.42611,1.139771 -0.59686,1.481564 -0.17074,0.341789 -0.46317,0.821526 -0.65009,1.066084 -0.23622,0.309057 -0.35246,0.55519 -0.38086,0.807186 -0.0334,0.296032 0.0326,0.540627 0.35967,1.333252 0.2203,0.533927 0.58662,1.48492 0.81442,2.113567 0.2278,0.628649 0.56338,1.638427 0.74569,2.24379 0.1823,0.605364 0.43125,1.495265 0.55294,1.977658 0.12169,0.482395 0.29682,1.24427 0.38912,1.69292 0.0923,0.44865 0.24048,1.292454 0.32918,1.874821 0.0887,0.582365 0.20824,1.496921 0.26614,2.032434 0.058,0.535518 0.10483,1.849728 0.10283,2.920758 -0.002,1.35119 -0.0476,2.27115 -0.14779,3.00498 -0.0795,0.58167 -0.20022,1.32468 -0.26872,1.65106 -0.0613,0.29229 -0.1745,0.73537 -0.26523,1.06208 -0.0105,0.0436 -0.0212,0.0898 -0.031,0.1239 -0.0943,0.32596 -0.32592,1.0117 -0.51469,1.52394 -0.18877,0.51222 -0.52955,1.2969 -0.75758,1.74356 -0.22803,0.44665 -0.64028,1.15149 -0.91571,1.56631 -0.27544,0.41483 -0.71385,1.02124 -0.97461,1.34721 -0.26077,0.32596 -0.74714,0.87371 -1.08056,1.21749 -0.33339,0.34376 -0.94392,0.90623 -1.35702,1.25006 -0.41306,0.3438 -1.14736,0.89117 -1.63143,1.21594 -0.48403,0.32475 -1.29139,0.81639 -1.7942,1.09296 -0.5028,0.27654 -1.4095,0.71919 -2.01487,0.9834 -0.60534,0.2642 -1.82464,0.72226 -2.70939,1.01751 -0.88471,0.29524 -2.1231,0.67122 -2.75177,0.83561 -0.6286,0.16437 -1.71427,0.41111 -2.41277,0.5488 -0.69847,0.1377 -2.03232,0.36697 -2.96365,0.50901 -0.9313,0.14204 -2.55048,0.35236 -3.59823,0.46768 -1.04771,0.11529 -2.64779,0.26706 -3.55585,0.33744 -0.90801,0.0704 -2.43226,0.16883 -3.38688,0.2186 -0.95457,0.0498 -2.09747,0.10202 -2.53989,0.11627 -2.2e-4,0 -9.5e-4,-1e-5 -0.001,0 -0.30178,0.01 -0.93703,0.009 -1.607396,0.004 -0.670899,0.005 -1.307198,0.006 -1.608687,-0.004 h -1.3e-4 c -0.442357,-0.0142 -1.585179,-0.0665 -2.539767,-0.11627 h -1.29e-4 c -0.954572,-0.0498 -2.478684,-0.14821 -3.386745,-0.2186 h -1.29e-4 c -0.908015,-0.0704 -2.507976,-0.22215 -3.555726,-0.33744 h -1.3e-4 c -1.047711,-0.11531 -2.666747,-0.32564 -3.598101,-0.46768 h -1.29e-4 c -0.931288,-0.14203 -2.264992,-0.37131 -2.963514,-0.50901 h -1.29e-4 c -0.698464,-0.13768 -1.784001,-0.38442 -2.412644,-0.5488 h -1.29e-4 c -0.628622,-0.16437 -1.866901,-0.54037 -2.751641,-0.83561 h -1.29e-4 c -0.442345,-0.14761 -0.968294,-0.33595 -1.459343,-0.52038 h -1.29e-4 c -0.491039,-0.18443 -0.94711,-0.36503 -1.249795,-0.49713 h -1.29e-4 c -0.605337,-0.26419 -1.5119,-0.70684 -2.014735,-0.9834 h -1.29e-4 c -0.502782,-0.27655 -1.310009,-0.76819 -1.794077,-1.09296 h -1.29e-4 c -0.484044,-0.32475 -1.218205,-0.87212 -1.631296,-1.21594 h -1.29e-4 c -0.413077,-0.34381 -1.023473,-0.90627 -1.356894,-1.25006 -0.33342,-0.34378 -0.819785,-0.89153 -1.080554,-1.21749 -0.26076,-0.32597 -0.699178,-0.93238 -0.974618,-1.34721 -0.27543,-0.41482 -0.687677,-1.11966 -0.915706,-1.56631 -0.22803,-0.44666 -0.568807,-1.23134 -0.757577,-1.74356 -0.18877,-0.51224 -0.420397,-1.19798 -0.514697,-1.52394 -0.0943,-0.32597 -0.227606,-0.8596 -0.296106,-1.18598 -0.0685,-0.32638 -0.189218,-1.06939 -0.268718,-1.65106 -0.1002,-0.73383 -0.145794,-1.65379 -0.147794,-3.00498 -0.002,-1.07103 0.0448,-2.38524 0.102836,-2.920758 0.0579,-0.535513 0.177434,-1.450069 0.266133,-2.032434 0.0887,-0.582367 0.236879,-1.426171 0.329179,-1.874821 0.0923,-0.44865 0.267434,-1.210525 0.389124,-1.69292 0.12169,-0.482393 0.370638,-1.372294 0.552938,-1.977658 0.18231,-0.605363 0.517891,-1.615141 0.745691,-2.24379 0.2278,-0.628647 0.594121,-1.57964 0.81442,-2.113567 0.32707,-0.792625 0.393068,-1.03722 0.359668,-1.333252 -0.0284,-0.251996 -0.144635,-0.498129 -0.380855,-0.807186 -0.18692,-0.244558 -0.47935,-0.724295 -0.65009,-1.066084 -0.170749,-0.341793 -0.439313,-1.00844 -0.596862,-1.481564 -0.15754,-0.473119 -0.351482,-1.222635 -0.430982,-1.665015 -0.10064,-0.560036 -0.144064,-1.254005 -0.143144,-2.285648 8.9e-4,-1.006664 0.0463,-1.732915 0.142111,-2.265495 0.0775,-0.431133 0.254981,-1.135969 0.394291,-1.566313 0.13931,-0.430348 0.442894,-1.163696 0.674894,-1.629358 0.232,-0.465667 0.675077,-1.199853 0.984436,-1.631425 0.30937,-0.431576 0.89462,-1.120442 1.300179,-1.530656 0.40556,-0.410218 1.068576,-0.994335 1.473296,-1.298112 0.404759,-0.303776 1.013636,-0.710972 1.353405,-0.905371 0.33977,-0.194401 0.94859,-0.488359 1.352889,-0.653191 0.40431,-0.164832 1.105385,-0.394111 1.558045,-0.509013 0.45266,-0.114902 1.165817,-0.245138 1.584916,-0.289388 0.4191,-0.04425 1.105386,-0.0801 1.524455,-0.0801 0.4191,0 1.123923,0.03759 1.566313,0.08372 0.442379,0.04613 1.128118,0.164009 1.523938,0.261999 0.39581,0.09799 1.062464,0.311492 1.481563,0.47439 0.4191,0.162898 0.944025,0.410933 1.166854,0.551388 0.22282,0.140453 0.565948,0.273242 0.762228,0.295072 0.294609,0.03277 0.453088,-0.01291 0.907438,-0.26355 0.30268,-0.166973 1.10245,-0.584794 1.777669,-0.928109 0.67521,-0.343317 1.799023,-0.853983 2.497523,-1.134814 0.698499,-0.280828 1.689176,-0.644816 2.201416,-0.809253 0.512199,-0.164434 1.464737,-0.432997 2.116666,-0.596346 0.65194,-0.16335 1.585343,-0.373248 2.074293,-0.466638 0.488949,-0.09339 1.365605,-0.236965 1.947684,-0.318844 0.81595,-0.114789 1.630238,-0.148828 3.555856,-0.148828 z m -16.96279,3.623035 h 10e-4 c 0.004,4.25e-4 0.0029,-2.21e-4 0.0059,0 -4.9e-4,2.11e-4 -0.002,8.85e-4 -0.003,0.001 -0.004,-5.67e-4 0.002,-3.99e-4 -0.004,-0.001 z m 33.918866,0 c 0.003,-2.18e-4 0.002,3.9e-4 0.006,0 -0.005,5.94e-4 6.6e-4,5.53e-4 -0.003,0.001 -4.1e-4,-1.8e-4 -0.002,-8.59e-4 -0.003,-0.001 z m -41.856367,3.33468 c -0.666218,-0.002 -1.322316,0.03793 -1.756482,0.127641 -1.432036,0.295892 -2.708855,1.030176 -3.844726,2.210201 -0.863812,0.897397 -1.24728,1.508231 -1.609721,2.564702 -0.258083,0.752384 -0.274546,0.868694 -0.278536,2.023649 -0.003,0.778692 0.03782,1.394456 0.112137,1.689819 0.161866,0.643152 0.43072,1.351856 0.512631,1.351856 0.03751,0 0.403158,-0.464564 0.81287,-1.032495 2.016894,-2.795764 4.674352,-5.510823 7.742164,-7.909596 0.478393,-0.374066 0.79084,-0.674172 0.747241,-0.717785 -0.188634,-0.188705 -1.327187,-0.304998 -2.437578,-0.307992 z m 49.800587,0 c -1.11039,0.003 -2.24895,0.119287 -2.43758,0.307992 -0.0436,0.04361 0.26886,0.343719 0.74724,0.717785 3.06781,2.398773 5.72528,5.113832 7.74217,7.909596 0.40971,0.567931 0.77535,1.032495 0.81287,1.032495 0.0819,0 0.35076,-0.708704 0.51263,-1.351856 0.0743,-0.295363 0.11513,-0.911127 0.11213,-1.689819 -0.004,-1.154955 -0.0205,-1.271265 -0.27853,-2.023649 -0.36244,-1.056471 -0.74591,-1.667305 -1.60972,-2.564702 -1.13589,-1.180025 -2.41269,-1.914309 -3.84473,-2.210201 -0.43416,-0.08972 -1.09025,-0.129168 -1.75648,-0.127641 z m -49.825391,27.75606 c -1.842058,0.991653 -3.094256,2.937687 -3.094256,5.176297 0,3.24468 2.630312,5.87497 5.874965,5.87497 3.244663,0 5.874965,-2.63029 5.874965,-5.87497 0,-0.0605 -9.76e-4,-0.12074 -0.003,-0.18074 z m 49.852261,0 -8.6527,4.995557 c -0.002,0.06 -0.003,0.12026 -0.003,0.18074 0,3.24468 2.6303,5.87497 5.87496,5.87497 3.24466,0 5.87497,-2.63029 5.87497,-5.87497 0,-2.23861 -1.2522,-4.184644 -3.09426,-5.176297 z m -24.927295,8.956947 c -1.049841,0 -1.560342,0.119 -2.279448,0.53072 -0.740566,0.42402 -1.652721,1.44057 -1.46296,1.63039 0.05018,0.0502 0.318919,-0.0303 0.722954,-0.21704 0.930806,-0.43019 1.97532,-0.64575 3.019454,-0.64596 z m 2.58e-4,0 v 1.29811 c 1.044137,2.1e-4 2.088637,0.21577 3.019457,0.64596 0.40404,0.18673 0.67277,0.26723 0.72295,0.21704 0.18976,-0.18982 -0.72239,-1.20637 -1.46296,-1.63039 -0.7191,-0.41172 -1.2296,-0.53072 -2.279447,-0.53072 z"
   fill="#014896"
   fill-opacity="1"
   stroke="none"
   stroke-width="4.20003"
   stroke-linecap="butt"
   stroke-linejoin="round"
   stroke-miterlimit="30"
   stroke-dasharray="none"
   stroke-opacity="1"
   style="display:inline;fill:#000000;fill-opacity:1" />
</svg>
