<?xml version="1.0" encoding="UTF-8" standalone="no"?>
<!-- Created with Inkscape (http://www.inkscape.org/) -->

<svg
   width="438.23267mm"
   height="438.23267mm"
   viewBox="0 0 109.55817 109.55817"
   version="1.1"
   id="svg123"
   xml:space="preserve"
   inkscape:version="1.3 (0e150ed6c4, 2023-07-21)"
   sodipodi:docname="chippalrus_old.svg"
   inkscape:export-filename="Vectors_LT 100 - RB 700 - WH 600\CAT\01_w.png"
   inkscape:export-xdpi="300"
   inkscape:export-ydpi="300"
   xmlns:inkscape="http://www.inkscape.org/namespaces/inkscape"
   xmlns:sodipodi="http://sodipodi.sourceforge.net/DTD/sodipodi-0.dtd"
   xmlns="http://www.w3.org/2000/svg"
   xmlns:svg="http://www.w3.org/2000/svg"><sodipodi:namedview
     id="namedview125"
     pagecolor="#282828"
     bordercolor="#1a1a1a"
     borderopacity="1"
     inkscape:showpageshadow="2"
     inkscape:pageopacity="0"
     inkscape:pagecheckerboard="0"
     inkscape:deskcolor="#414141"
     inkscape:document-units="mm"
     showgrid="false"
     showguides="true"
     inkscape:zoom="0.15315517"
     inkscape:cx="68.557921"
     inkscape:cy="166.49781"
     inkscape:window-width="1920"
     inkscape:window-height="1009"
     inkscape:window-x="1912"
     inkscape:window-y="-8"
     inkscape:window-maximized="1"
     inkscape:current-layer="svg123"><inkscape:grid
       id="grid11"
       units="px"
       originx="-683.64062"
       originy="-683.64062"
       spacingx="0.066145833"
       spacingy="0.066145833"
       empcolor="#0099e5"
       empopacity="0.30196078"
       color="#0099e5"
       opacity="0.14901961"
       empspacing="5"
       dotted="false"
       gridanglex="30"
       gridanglez="30"
       visible="false" /></sodipodi:namedview><defs
     id="defs120"><inkscape:path-effect
       effect="mirror_symmetry"
       start_point="-110.86041,-98.543123"
       end_point="-110.86041,-37.848849"
       center_point="-110.86041,-68.195986"
       id="path-effect8"
       is_visible="true"
       lpeversion="1.2"
       lpesatellites=""
       mode="free"
       discard_orig_path="false"
       fuse_paths="false"
       oposite_fuse="false"
       split_items="false"
       split_open="false"
       link_styles="false" /><inkscape:path-effect
       effect="mirror_symmetry"
       start_point="-110.86041,-98.543123"
       end_point="-110.86041,-37.848849"
       center_point="-110.86041,-68.195986"
       id="path-effect6"
       is_visible="true"
       lpeversion="1.2"
       lpesatellites=""
       mode="free"
       discard_orig_path="false"
       fuse_paths="false"
       oposite_fuse="false"
       split_items="false"
       split_open="false"
       link_styles="false" /><inkscape:path-effect
       effect="mirror_symmetry"
       start_point="100.0001,98.517629"
       end_point="100.0001,109.56889"
       center_point="100.0001,104.04326"
       id="path-effect7024"
       is_visible="true"
       lpeversion="1.2"
       lpesatellites=""
       mode="free"
       discard_orig_path="false"
       fuse_paths="false"
       oposite_fuse="false"
       split_items="false"
       split_open="false"
       link_styles="false" /><inkscape:path-effect
       effect="mirror_symmetry"
       start_point="99.999999,97.6866"
       end_point="99.999999,109.4366"
       center_point="99.999999,103.5616"
       id="path-effect7020"
       is_visible="true"
       lpeversion="1.2"
       lpesatellites=""
       mode="free"
       discard_orig_path="false"
       fuse_paths="false"
       oposite_fuse="false"
       split_items="false"
       split_open="false"
       link_styles="false" /><inkscape:path-effect
       effect="mirror_symmetry"
       start_point="100.0001,98.517629"
       end_point="100.0001,109.56889"
       center_point="100.0001,104.04326"
       id="path-effect3252"
       is_visible="true"
       lpeversion="1.2"
       lpesatellites=""
       mode="free"
       discard_orig_path="false"
       fuse_paths="false"
       oposite_fuse="false"
       split_items="false"
       split_open="false"
       link_styles="false" /><inkscape:path-effect
       effect="mirror_symmetry"
       start_point="99.999999,97.6866"
       end_point="99.999999,109.4366"
       center_point="99.999999,103.5616"
       id="path-effect3248"
       is_visible="true"
       lpeversion="1.2"
       lpesatellites=""
       mode="free"
       discard_orig_path="false"
       fuse_paths="false"
       oposite_fuse="false"
       split_items="false"
       split_open="false"
       link_styles="false" /><inkscape:path-effect
       effect="mirror_symmetry"
       start_point="100.0001,98.517629"
       end_point="100.0001,109.56889"
       center_point="100.0001,104.04326"
       id="path-effect3159"
       is_visible="true"
       lpeversion="1.2"
       lpesatellites=""
       mode="free"
       discard_orig_path="false"
       fuse_paths="false"
       oposite_fuse="false"
       split_items="false"
       split_open="false"
       link_styles="false" /><inkscape:path-effect
       effect="mirror_symmetry"
       start_point="99.999999,97.6866"
       end_point="99.999999,109.4366"
       center_point="99.999999,103.5616"
       id="path-effect3155"
       is_visible="true"
       lpeversion="1.2"
       lpesatellites=""
       mode="free"
       discard_orig_path="false"
       fuse_paths="false"
       oposite_fuse="false"
       split_items="false"
       split_open="false"
       link_styles="false" /><inkscape:path-effect
       effect="mirror_symmetry"
       start_point="100.0001,98.517629"
       end_point="100.0001,109.56889"
       center_point="100.0001,104.04326"
       id="path-effect11923"
       is_visible="true"
       lpeversion="1.2"
       lpesatellites=""
       mode="free"
       discard_orig_path="false"
       fuse_paths="false"
       oposite_fuse="false"
       split_items="false"
       split_open="false"
       link_styles="false" /><inkscape:path-effect
       effect="mirror_symmetry"
       start_point="99.999999,97.6866"
       end_point="99.999999,109.4366"
       center_point="99.999999,103.5616"
       id="path-effect11919"
       is_visible="true"
       lpeversion="1.2"
       lpesatellites=""
       mode="free"
       discard_orig_path="false"
       fuse_paths="false"
       oposite_fuse="false"
       split_items="false"
       split_open="false"
       link_styles="false" /><inkscape:path-effect
       effect="mirror_symmetry"
       start_point="100.0001,98.517629"
       end_point="100.0001,109.56889"
       center_point="100.0001,104.04326"
       id="path-effect4089"
       is_visible="true"
       lpeversion="1.2"
       lpesatellites=""
       mode="free"
       discard_orig_path="false"
       fuse_paths="false"
       oposite_fuse="false"
       split_items="false"
       split_open="false"
       link_styles="false" /><inkscape:path-effect
       effect="mirror_symmetry"
       start_point="99.999999,97.6866"
       end_point="99.999999,109.4366"
       center_point="99.999999,103.5616"
       id="path-effect4084"
       is_visible="true"
       lpeversion="1.2"
       lpesatellites=""
       mode="free"
       discard_orig_path="false"
       fuse_paths="false"
       oposite_fuse="false"
       split_items="false"
       split_open="false"
       link_styles="false" /><inkscape:path-effect
       effect="mirror_symmetry"
       start_point="99.961235,104.5939"
       end_point="99.961235,110.9737"
       center_point="99.961235,107.7838"
       id="path-effect1958"
       is_visible="true"
       lpeversion="1.2"
       lpesatellites=""
       mode="free"
       discard_orig_path="false"
       fuse_paths="false"
       oposite_fuse="false"
       split_items="false"
       split_open="false"
       link_styles="false" /><inkscape:path-effect
       effect="mirror_symmetry"
       start_point="100.0001,98.517629"
       end_point="100.0001,109.56889"
       center_point="100.0001,104.04326"
       id="path-effect1954"
       is_visible="true"
       lpeversion="1.2"
       lpesatellites=""
       mode="free"
       discard_orig_path="false"
       fuse_paths="false"
       oposite_fuse="false"
       split_items="false"
       split_open="false"
       link_styles="false" /><inkscape:path-effect
       effect="mirror_symmetry"
       start_point="99.999999,97.6866"
       end_point="99.999999,109.4366"
       center_point="99.999999,103.5616"
       id="path-effect1950"
       is_visible="true"
       lpeversion="1.2"
       lpesatellites=""
       mode="free"
       discard_orig_path="false"
       fuse_paths="false"
       oposite_fuse="false"
       split_items="false"
       split_open="false"
       link_styles="false" /><inkscape:path-effect
       effect="mirror_symmetry"
       start_point="99.961235,104.5939"
       end_point="99.961235,110.9737"
       center_point="99.961235,107.7838"
       id="path-effect1721"
       is_visible="true"
       lpeversion="1.2"
       lpesatellites=""
       mode="free"
       discard_orig_path="false"
       fuse_paths="false"
       oposite_fuse="false"
       split_items="false"
       split_open="false"
       link_styles="false" /><inkscape:path-effect
       effect="mirror_symmetry"
       start_point="100.0001,98.517629"
       end_point="100.0001,109.56889"
       center_point="100.0001,104.04326"
       id="path-effect1717"
       is_visible="true"
       lpeversion="1.2"
       lpesatellites=""
       mode="free"
       discard_orig_path="false"
       fuse_paths="false"
       oposite_fuse="false"
       split_items="false"
       split_open="false"
       link_styles="false" /><inkscape:path-effect
       effect="mirror_symmetry"
       start_point="99.999999,97.6866"
       end_point="99.999999,109.4366"
       center_point="99.999999,103.5616"
       id="path-effect1713"
       is_visible="true"
       lpeversion="1.2"
       lpesatellites=""
       mode="free"
       discard_orig_path="false"
       fuse_paths="false"
       oposite_fuse="false"
       split_items="false"
       split_open="false"
       link_styles="false" /><inkscape:path-effect
       effect="mirror_symmetry"
       start_point="100.0001,98.517629"
       end_point="100.0001,109.56889"
       center_point="100.0001,104.04326"
       id="path-effect1462"
       is_visible="true"
       lpeversion="1.2"
       lpesatellites=""
       mode="free"
       discard_orig_path="false"
       fuse_paths="false"
       oposite_fuse="false"
       split_items="false"
       split_open="false"
       link_styles="false" /><inkscape:path-effect
       effect="mirror_symmetry"
       start_point="99.999999,97.6866"
       end_point="99.999999,109.4366"
       center_point="99.999999,103.5616"
       id="path-effect1458"
       is_visible="true"
       lpeversion="1.2"
       lpesatellites=""
       mode="free"
       discard_orig_path="false"
       fuse_paths="false"
       oposite_fuse="false"
       split_items="false"
       split_open="false"
       link_styles="false" /><inkscape:path-effect
       effect="mirror_symmetry"
       start_point="100.0001,98.517629"
       end_point="100.0001,109.56889"
       center_point="100.0001,104.04326"
       id="path-effect7326"
       is_visible="true"
       lpeversion="1.2"
       lpesatellites=""
       mode="free"
       discard_orig_path="false"
       fuse_paths="false"
       oposite_fuse="false"
       split_items="false"
       split_open="false"
       link_styles="false" /><inkscape:path-effect
       effect="mirror_symmetry"
       start_point="99.999999,97.6866"
       end_point="99.999999,109.4366"
       center_point="99.999999,103.5616"
       id="path-effect7322"
       is_visible="true"
       lpeversion="1.2"
       lpesatellites=""
       mode="free"
       discard_orig_path="false"
       fuse_paths="false"
       oposite_fuse="false"
       split_items="false"
       split_open="false"
       link_styles="false" /><inkscape:path-effect
       effect="mirror_symmetry"
       start_point="100.0001,98.517629"
       end_point="100.0001,109.56889"
       center_point="100.0001,104.04326"
       id="path-effect4512"
       is_visible="true"
       lpeversion="1.2"
       lpesatellites=""
       mode="free"
       discard_orig_path="false"
       fuse_paths="false"
       oposite_fuse="false"
       split_items="false"
       split_open="false"
       link_styles="false" /><inkscape:path-effect
       effect="mirror_symmetry"
       start_point="99.999999,97.6866"
       end_point="99.999999,109.4366"
       center_point="99.999999,103.5616"
       id="path-effect4507"
       is_visible="true"
       lpeversion="1.2"
       lpesatellites=""
       mode="free"
       discard_orig_path="false"
       fuse_paths="false"
       oposite_fuse="false"
       split_items="false"
       split_open="false"
       link_styles="false" /><inkscape:path-effect
       effect="mirror_symmetry"
       start_point="100.0001,98.517629"
       end_point="100.0001,109.56889"
       center_point="100.0001,104.04326"
       id="path-effect4503"
       is_visible="true"
       lpeversion="1.2"
       lpesatellites=""
       mode="free"
       discard_orig_path="false"
       fuse_paths="false"
       oposite_fuse="false"
       split_items="false"
       split_open="false"
       link_styles="false" /><inkscape:path-effect
       effect="mirror_symmetry"
       start_point="99.999999,97.6866"
       end_point="99.999999,109.4366"
       center_point="99.999999,103.5616"
       id="path-effect4499"
       is_visible="true"
       lpeversion="1.2"
       lpesatellites=""
       mode="free"
       discard_orig_path="false"
       fuse_paths="false"
       oposite_fuse="false"
       split_items="false"
       split_open="false"
       link_styles="false" /><inkscape:path-effect
       effect="mirror_symmetry"
       start_point="99.999065,43.893269"
       end_point="99.999065,157.92616"
       center_point="99.999065,100.90971"
       id="path-effect3781"
       is_visible="true"
       lpeversion="1.2"
       lpesatellites=""
       mode="vertical"
       discard_orig_path="false"
       fuse_paths="false"
       oposite_fuse="false"
       split_items="false"
       split_open="false"
       link_styles="false" /><inkscape:path-effect
       effect="lattice2"
       gridpoint0="63.803853,63.803848"
       gridpoint1="136.19633,63.803848"
       gridpoint2="63.803853,124.4978"
       gridpoint3="136.19633,124.4978"
       gridpoint4="81.901973,63.803848"
       gridpoint5="118.09821,63.803848"
       gridpoint6="81.901973,124.4978"
       gridpoint7="118.09821,124.4978"
       gridpoint8x9="100.00009,68.932744"
       gridpoint10x11="100.00009,123.21558"
       gridpoint12="63.803853,78.977337"
       gridpoint13="136.19633,78.977337"
       gridpoint14="60.920844,121.35413"
       gridpoint15="139.07934,121.35413"
       gridpoint16="88.274733,83.771459"
       gridpoint17="111.72545,83.771459"
       gridpoint18="93.495833,105.05959"
       gridpoint19="106.50435,105.05959"
       gridpoint20x21="100.00009,78.977337"
       gridpoint22x23="99.99906,104.69359"
       gridpoint24x26="63.803853,94.150826"
       gridpoint25x27="136.19633,94.150826"
       gridpoint28x30="81.901973,94.150826"
       gridpoint29x31="118.09821,94.150826"
       gridpoint32x33x34x35="100.00009,94.150826"
       id="path-effect2132"
       is_visible="true"
       lpeversion="1"
       horizontal_mirror="false"
       vertical_mirror="true"
       perimetral="false"
       live_update="true" /><inkscape:path-effect
       effect="mirror_symmetry"
       start_point="-110.86041,-98.543123"
       end_point="-110.86041,-37.848849"
       center_point="-110.86041,-68.195986"
       id="path-effect6643"
       is_visible="true"
       lpeversion="1.2"
       lpesatellites=""
       mode="free"
       discard_orig_path="false"
       fuse_paths="false"
       oposite_fuse="false"
       split_items="false"
       split_open="false"
       link_styles="false" /><inkscape:path-effect
       effect="mirror_symmetry"
       start_point="100.0001,98.517629"
       end_point="100.0001,109.56889"
       center_point="100.0001,104.04326"
       id="path-effect2218"
       is_visible="true"
       lpeversion="1.2"
       lpesatellites=""
       mode="free"
       discard_orig_path="false"
       fuse_paths="false"
       oposite_fuse="false"
       split_items="false"
       split_open="false"
       link_styles="false" /><inkscape:path-effect
       effect="mirror_symmetry"
       start_point="99.999999,97.6866"
       end_point="99.999999,109.4366"
       center_point="99.999999,103.5616"
       id="path-effect2214"
       is_visible="true"
       lpeversion="1.2"
       lpesatellites=""
       mode="free"
       discard_orig_path="false"
       fuse_paths="false"
       oposite_fuse="false"
       split_items="false"
       split_open="false"
       link_styles="false" /><inkscape:path-effect
       effect="mirror_symmetry"
       start_point="97.375562,46.615495"
       end_point="97.375562,156.17367"
       center_point="97.375562,101.39458"
       id="path-effect4716"
       is_visible="true"
       lpeversion="1.2"
       lpesatellites=""
       mode="vertical"
       discard_orig_path="false"
       fuse_paths="false"
       oposite_fuse="false"
       split_items="false"
       split_open="false"
       link_styles="false" /><inkscape:path-effect
       effect="lattice2"
       gridpoint0="60.308459,109.83515"
       gridpoint1="63.169266,110.94309"
       gridpoint2="60.291923,111.70377"
       gridpoint3="62.415608,112.67948"
       gridpoint4="63.483821,109.8308"
       gridpoint5="62.449931,110.94309"
       gridpoint6="61.095108,110.88851"
       gridpoint7="62.546837,112.27105"
       gridpoint8x9="61.730595,110.94309"
       gridpoint10x11="62.039442,111.14847"
       gridpoint12="60.432483,110.34778"
       gridpoint13="63.169266,111.13326"
       gridpoint14="60.291923,111.5136"
       gridpoint15="63.169266,111.5136"
       gridpoint16="60.833427,110.28589"
       gridpoint17="62.449931,111.13326"
       gridpoint18="60.829001,111.41766"
       gridpoint19="62.888843,111.70437"
       gridpoint20x21="61.730595,111.13326"
       gridpoint22x23="61.287621,111.83506"
       gridpoint24x26="60.291923,111.32343"
       gridpoint25x27="63.169266,111.32343"
       gridpoint28x30="61.854652,110.49915"
       gridpoint29x31="62.432391,111.6333"
       gridpoint32x33x34x35="62.630542,111.56679"
       id="path-effect4713"
       is_visible="true"
       lpeversion="1"
       horizontal_mirror="false"
       vertical_mirror="false"
       perimetral="false"
       live_update="true" /><inkscape:path-effect
       effect="mirror_symmetry"
       start_point="64.580576,109.49009"
       end_point="64.580576,92.202716"
       center_point="64.580576,100.84641"
       id="path-effect4709"
       is_visible="true"
       lpeversion="1.2"
       lpesatellites=""
       mode="vertical"
       discard_orig_path="false"
       fuse_paths="false"
       oposite_fuse="false"
       split_items="false"
       split_open="false"
       link_styles="false" /><inkscape:path-effect
       effect="lattice2"
       gridpoint0="58.08291,100.65369"
       gridpoint1="63.256682,97.538546"
       gridpoint2="58.08291,101.98455"
       gridpoint3="63.271049,101.98455"
       gridpoint4="59.379944,100.65369"
       gridpoint5="61.833697,101.27343"
       gridpoint6="60.420625,101.35313"
       gridpoint7="61.927242,102.97846"
       gridpoint8x9="61.02777,100.46661"
       gridpoint10x11="60.676979,101.98455"
       gridpoint12="58.08291,100.98641"
       gridpoint13="63.688829,98.52971"
       gridpoint14="58.08291,101.65184"
       gridpoint15="63.271049,101.65184"
       gridpoint16="59.379944,100.98641"
       gridpoint17="61.974014,100.98641"
       gridpoint18="60.011369,101.39459"
       gridpoint19="61.974014,101.65184"
       gridpoint20x21="60.676979,100.98641"
       gridpoint22x23="60.676979,101.65184"
       gridpoint24x26="58.08291,101.31912"
       gridpoint25x27="63.271049,101.31912"
       gridpoint28x30="59.040846,100.39537"
       gridpoint29x31="62.16011,101.98456"
       gridpoint32x33x34x35="60.676979,101.31912"
       id="path-effect4705"
       is_visible="true"
       lpeversion="1"
       horizontal_mirror="false"
       vertical_mirror="false"
       perimetral="false"
       live_update="true" /><inkscape:path-effect
       effect="mirror_symmetry"
       start_point="67.448327,89.015912"
       end_point="67.448327,110.65059"
       center_point="67.448327,99.833252"
       id="path-effect4701"
       is_visible="true"
       lpeversion="1.2"
       lpesatellites=""
       mode="vertical"
       discard_orig_path="false"
       fuse_paths="false"
       oposite_fuse="false"
       split_items="false"
       split_open="false"
       link_styles="false" /><inkscape:path-effect
       effect="lattice2"
       gridpoint0="58.08291,100.65369"
       gridpoint1="63.256682,97.538546"
       gridpoint2="58.08291,101.98455"
       gridpoint3="63.271049,101.98455"
       gridpoint4="59.379944,100.65369"
       gridpoint5="61.833697,101.27343"
       gridpoint6="60.420625,101.35313"
       gridpoint7="61.927242,102.97846"
       gridpoint8x9="61.02777,100.46661"
       gridpoint10x11="60.676979,101.98455"
       gridpoint12="58.08291,100.98641"
       gridpoint13="63.688829,98.52971"
       gridpoint14="58.08291,101.65184"
       gridpoint15="63.271049,101.65184"
       gridpoint16="59.379944,100.98641"
       gridpoint17="61.974014,100.98641"
       gridpoint18="60.011369,101.39459"
       gridpoint19="61.974014,101.65184"
       gridpoint20x21="60.676979,100.98641"
       gridpoint22x23="60.676979,101.65184"
       gridpoint24x26="58.08291,101.31912"
       gridpoint25x27="63.271049,101.31912"
       gridpoint28x30="59.040846,100.39537"
       gridpoint29x31="62.16011,101.98456"
       gridpoint32x33x34x35="60.676979,101.31912"
       id="path-effect4697"
       is_visible="true"
       lpeversion="1"
       horizontal_mirror="false"
       vertical_mirror="false"
       perimetral="false"
       live_update="true" /><inkscape:path-effect
       effect="lattice2"
       gridpoint0="62.330632,63.756904"
       gridpoint1="137.6675,63.756904"
       gridpoint2="62.330632,124.831"
       gridpoint3="137.6675,124.831"
       gridpoint4="81.164842,63.756904"
       gridpoint5="118.83329,63.756904"
       gridpoint6="88.516152,121.14246"
       gridpoint7="111.48198,121.14246"
       gridpoint8x9="99.999999,63.756904"
       gridpoint10x11="100.04449,124.49111"
       gridpoint12="62.330632,79.025427"
       gridpoint13="137.6675,79.025427"
       gridpoint14="62.330632,109.56248"
       gridpoint15="137.6675,109.56248"
       gridpoint16="81.164842,79.025427"
       gridpoint17="118.83329,79.025427"
       gridpoint18="81.164842,109.56248"
       gridpoint19="118.83329,109.56248"
       gridpoint20x21="99.999999,79.025427"
       gridpoint22x23="99.999999,109.56248"
       gridpoint24x26="62.330632,94.293951"
       gridpoint25x27="137.6675,94.293951"
       gridpoint28x30="81.164842,94.293951"
       gridpoint29x31="118.83329,94.293951"
       gridpoint32x33x34x35="99.999999,94.293951"
       id="path-effect929"
       is_visible="true"
       lpeversion="1"
       horizontal_mirror="false"
       vertical_mirror="true"
       perimetral="false"
       live_update="true" /><inkscape:path-effect
       effect="mirror_symmetry"
       start_point="99.999065,45.219978"
       end_point="99.999065,154.77815"
       center_point="99.999065,99.999065"
       id="path-effect925"
       is_visible="true"
       lpeversion="1.2"
       lpesatellites=""
       mode="vertical"
       discard_orig_path="false"
       fuse_paths="false"
       oposite_fuse="false"
       split_items="false"
       split_open="false"
       link_styles="false" /><inkscape:path-effect
       effect="lattice2"
       gridpoint0="62.7569,63.756904"
       gridpoint1="137.24309,63.756904"
       gridpoint2="62.7569,112.41743"
       gridpoint3="137.24309,112.41743"
       gridpoint4="81.37845,63.756904"
       gridpoint5="118.62154,63.756904"
       gridpoint6="81.37845,112.41743"
       gridpoint7="118.62154,112.41743"
       gridpoint8x9="99.999995,63.756904"
       gridpoint10x11="100.0001,108.31845"
       gridpoint12="62.7569,75.922035"
       gridpoint13="137.24309,75.922035"
       gridpoint14="62.7569,100.2523"
       gridpoint15="137.24309,100.2523"
       gridpoint16="81.37845,75.922035"
       gridpoint17="118.62154,75.922035"
       gridpoint18="91.865359,89.282692"
       gridpoint19="108.13463,89.282692"
       gridpoint20x21="99.999995,75.922035"
       gridpoint22x23="99.999995,100.2523"
       gridpoint24x26="62.7569,88.087167"
       gridpoint25x27="137.24309,88.087167"
       gridpoint28x30="81.37845,88.087167"
       gridpoint29x31="118.62154,88.087167"
       gridpoint32x33x34x35="99.999995,88.087167"
       id="path-effect4827"
       is_visible="true"
       lpeversion="1"
       horizontal_mirror="false"
       vertical_mirror="true"
       perimetral="false"
       live_update="true" /><inkscape:path-effect
       effect="mirror_symmetry"
       start_point="100.0001,98.517629"
       end_point="100.0001,109.56889"
       center_point="100.0001,104.04326"
       id="path-effect4798"
       is_visible="true"
       lpeversion="1.2"
       lpesatellites=""
       mode="free"
       discard_orig_path="false"
       fuse_paths="false"
       oposite_fuse="false"
       split_items="false"
       split_open="false"
       link_styles="false" /><inkscape:path-effect
       effect="mirror_symmetry"
       start_point="99.999999,97.6866"
       end_point="99.999999,109.4366"
       center_point="99.999999,103.5616"
       id="path-effect4794"
       is_visible="true"
       lpeversion="1.2"
       lpesatellites=""
       mode="free"
       discard_orig_path="false"
       fuse_paths="false"
       oposite_fuse="false"
       split_items="false"
       split_open="false"
       link_styles="false" /><inkscape:path-effect
       effect="mirror_symmetry"
       start_point="1511.797,683.64065"
       end_point="1511.797,2339.9533"
       center_point="1511.797,1511.797"
       id="path-effect4774"
       is_visible="true"
       lpeversion="1.2"
       lpesatellites=""
       mode="vertical"
       discard_orig_path="false"
       fuse_paths="false"
       oposite_fuse="false"
       split_items="false"
       split_open="false"
       link_styles="false" /><inkscape:path-effect
       effect="mirror_symmetry"
       start_point="99.999044,45.219979"
       end_point="99.999044,154.77816"
       center_point="99.999044,99.999067"
       id="path-effect4755"
       is_visible="true"
       lpeversion="1.2"
       lpesatellites=""
       mode="vertical"
       discard_orig_path="false"
       fuse_paths="false"
       oposite_fuse="false"
       split_items="false"
       split_open="false"
       link_styles="false" /><inkscape:path-effect
       effect="mirror_symmetry"
       start_point="99.961235,104.5939"
       end_point="99.961235,110.9737"
       center_point="99.961235,107.7838"
       id="path-effect4469"
       is_visible="true"
       lpeversion="1.2"
       lpesatellites=""
       mode="free"
       discard_orig_path="false"
       fuse_paths="false"
       oposite_fuse="false"
       split_items="false"
       split_open="false"
       link_styles="false" /><inkscape:path-effect
       effect="mirror_symmetry"
       start_point="100.0001,98.517629"
       end_point="100.0001,109.56889"
       center_point="100.0001,104.04326"
       id="path-effect1383"
       is_visible="true"
       lpeversion="1.2"
       lpesatellites=""
       mode="free"
       discard_orig_path="false"
       fuse_paths="false"
       oposite_fuse="false"
       split_items="false"
       split_open="false"
       link_styles="false" /><inkscape:path-effect
       effect="mirror_symmetry"
       start_point="99.999999,97.6866"
       end_point="99.999999,109.4366"
       center_point="99.999999,103.5616"
       id="path-effect1379"
       is_visible="true"
       lpeversion="1.2"
       lpesatellites=""
       mode="free"
       discard_orig_path="false"
       fuse_paths="false"
       oposite_fuse="false"
       split_items="false"
       split_open="false"
       link_styles="false" /><inkscape:path-effect
       effect="mirror_symmetry"
       start_point="100.0001,98.517629"
       end_point="100.0001,109.56889"
       center_point="100.0001,104.04326"
       id="path-effect2031"
       is_visible="true"
       lpeversion="1.2"
       lpesatellites=""
       mode="free"
       discard_orig_path="false"
       fuse_paths="false"
       oposite_fuse="false"
       split_items="false"
       split_open="false"
       link_styles="false" /><inkscape:path-effect
       effect="mirror_symmetry"
       start_point="100.0001,98.517629"
       end_point="100.0001,109.56889"
       center_point="100.0001,104.04326"
       id="path-effect1722"
       is_visible="true"
       lpeversion="1.2"
       lpesatellites=""
       mode="free"
       discard_orig_path="false"
       fuse_paths="false"
       oposite_fuse="false"
       split_items="false"
       split_open="false"
       link_styles="false" /><inkscape:path-effect
       effect="mirror_symmetry"
       start_point="99.999999,97.6866"
       end_point="99.999999,109.4366"
       center_point="99.999999,103.5616"
       id="path-effect1326"
       is_visible="true"
       lpeversion="1.2"
       lpesatellites=""
       mode="free"
       discard_orig_path="false"
       fuse_paths="false"
       oposite_fuse="false"
       split_items="false"
       split_open="false"
       link_styles="false" /><inkscape:path-effect
       effect="mirror_symmetry"
       start_point="99.999999,97.6866"
       end_point="99.999999,109.4366"
       center_point="99.999999,103.5616"
       id="path-effect1319"
       is_visible="true"
       lpeversion="1.2"
       lpesatellites=""
       mode="free"
       discard_orig_path="false"
       fuse_paths="false"
       oposite_fuse="false"
       split_items="false"
       split_open="false"
       link_styles="false" /><inkscape:path-effect
       effect="bend_path"
       id="path-effect2477"
       is_visible="true"
       lpeversion="1"
       bendpath="m 26.143084,162.99576 c 7.580604,1.35983 17.39129,1.11133 20.863127,0.24926"
       prop_scale="1"
       scale_y_rel="false"
       vertical="false"
       hide_knot="false"
       bendpath-nodetypes="cc" /><inkscape:path-effect
       effect="perspective-envelope"
       up_left_point="71.10829,116.75588"
       up_right_point="157.41103,118.69526"
       down_left_point="70.360468,142.07599"
       down_right_point="157.55704,140.78944"
       id="path-effect2304"
       is_visible="true"
       lpeversion="1"
       deform_type="perspective"
       horizontal_mirror="false"
       vertical_mirror="false"
       overflow_perspective="false" /><inkscape:path-effect
       effect="bend_path"
       id="path-effect2302"
       is_visible="true"
       lpeversion="1"
       bendpath="M 69.621686,129.63203 H 157.51103"
       prop_scale="1"
       scale_y_rel="false"
       vertical="false"
       hide_knot="false" /><linearGradient
       id="linearGradient4769"
       inkscape:swatch="gradient"><stop
         style="stop-color:#ffffff;stop-opacity:1;"
         offset="0"
         id="stop4765" /><stop
         style="stop-color:#ffffff;stop-opacity:0;"
         offset="1"
         id="stop4767" /></linearGradient><linearGradient
       id="linearGradient2383"
       inkscape:swatch="solid"><stop
         style="stop-color:#000000;stop-opacity:1;"
         offset="0"
         id="stop2381" /></linearGradient><inkscape:path-effect
       effect="mirror_symmetry"
       start_point="-110.86041,-98.543123"
       end_point="-110.86041,-37.848849"
       center_point="-110.86041,-68.195986"
       id="path-effect2503"
       is_visible="true"
       lpeversion="1.2"
       lpesatellites=""
       mode="free"
       discard_orig_path="false"
       fuse_paths="false"
       oposite_fuse="false"
       split_items="false"
       split_open="false"
       link_styles="false" /></defs><path
     id="path4"
     style="color:#000000;display:none;fill:#ffffff;fill-opacity:1;stroke-linejoin:round;-inkscape-stroke:none"
     d="m 99.997904,59.604631 c -1.974876,2e-6 -3.048627,0.034 -4.140187,0.187585 -0.672329,0.0945 -1.540183,0.236837 -2.150773,0.353467 -0.649229,0.12399 -1.56642,0.332398 -2.306319,0.517798 -0.762789,0.19112 -1.706721,0.455254 -2.38125,0.671794 -0.71123,0.228319 -1.68124,0.588072 -2.482019,0.910022 -0.87684,0.352516 -1.993827,0.864235 -2.833936,1.291394 v -0.0021 c -0.27875,0.141727 -0.483931,0.252956 -0.744141,0.388606 -0.15169,-0.06733 -0.286581,-0.151157 -0.445451,-0.212906 -0.628489,-0.244284 -1.328671,-0.473448 -1.996261,-0.638721 -0.680759,-0.168527 -1.409687,-0.289491 -2.097546,-0.361219 -0.642639,-0.06701 -1.363349,-0.105419 -1.999878,-0.105419 -0.628529,0 -1.335516,0.0367 -1.966805,0.103352 -0.72627,0.07669 -1.482446,0.217822 -2.177645,0.394292 -0.69921,0.177484 -1.437723,0.416031 -2.109432,0.68988 -0.61802,0.251963 -1.264515,0.561071 -1.853634,0.898136 -0.61232,0.350337 -1.236239,0.776776 -1.789038,1.191659 -0.67039,0.503174 -1.35286,1.111549 -1.93735,1.702739 -0.607109,0.614077 -1.220837,1.333021 -1.727026,2.039152 -0.48679,0.6791 -0.954195,1.451474 -1.329635,2.205033 -0.34409,0.69064 -0.669699,1.458321 -0.912089,2.207101 -0.21835,0.674489 -0.405274,1.416418 -0.531234,2.117183 -0.16861,0.937447 -0.20831,1.882868 -0.20929,3.003952 -10e-4,1.145163 0.0403,2.093086 0.20929,3.033406 0.13485,0.750435 0.34267,1.537834 0.57981,2.249993 0.222289,0.667523 0.495119,1.372105 0.824239,2.030883 0.0832,0.166639 0.182561,0.289226 0.271301,0.443384 -0.20927,0.532183 -0.429681,1.084212 -0.605131,1.56838 -0.26561,0.732986 -0.600932,1.733448 -0.820622,2.462899 -0.20481,0.680108 -0.449344,1.558906 -0.601513,2.162142 -0.14295,0.566673 -0.317939,1.321263 -0.431499,1.873271 -0.12133,0.58978 -0.265889,1.423215 -0.367419,2.089795 -0.10223,0.671174 -0.220142,1.579223 -0.288871,2.214852 -0.10355,0.958134 -0.129324,2.201144 -0.127124,3.378604 7.53e-4,0.53985 0.01534,0.99567 0.03075,1.45405 H 51.75976 c -2.293942,6.5e-4 -4.198572,1.90528 -4.199227,4.19923 v 9.48831 c 5.23e-4,1.86241 1.27665,3.40874 2.976563,3.9473 a 2.1002099,2.1002099 0 0 0 0.05465,0.10155 l 47.841915,19.19534 c 1.003524,0.40283 2.127299,0.40283 3.130819,0 l 47.84178,-19.19534 a 2.1002099,2.1002099 0 0 0 0.0977,-0.10943 c 1.67893,-0.55129 2.93315,-2.0921 2.93367,-3.93942 v -9.48831 c -6.6e-4,-2.29394 -1.90529,-4.19857 -4.19923,-4.19923 h -6.79054 c 0.0154,-0.45839 0.0301,-0.91433 0.0309,-1.45405 a 2.1002099,2.1002099 0 0 0 0,-1.2e-4 2.1002099,2.1002099 0 0 0 0,-1.3e-4 2.1002099,2.1002099 0 0 0 0,-1.3e-4 2.1002099,2.1002099 0 0 0 0,-1.3e-4 2.1002099,2.1002099 0 0 0 0,-1.3e-4 2.1002099,2.1002099 0 0 0 0,-1.3e-4 2.1002099,2.1002099 0 0 0 0,-1.3e-4 2.1002099,2.1002099 0 0 0 0,-1.3e-4 2.1002099,2.1002099 0 0 0 0,-1.3e-4 2.1002099,2.1002099 0 0 0 0,-1.3e-4 2.1002099,2.1002099 0 0 0 0,-1.3e-4 2.1002099,2.1002099 0 0 0 0,-1.3e-4 v -0.002 c 0.002,-1.17704 -0.0236,-2.42005 -0.12713,-3.377061 a 2.1002099,2.1002099 0 0 0 0,-1.29e-4 2.1002099,2.1002099 0 0 0 0,-1.29e-4 2.1002099,2.1002099 0 0 0 0,-1.3e-4 2.1002099,2.1002099 0 0 0 0,-1.29e-4 2.1002099,2.1002099 0 0 0 0,-1.29e-4 2.1002099,2.1002099 0 0 0 0,-1.29e-4 2.1002099,2.1002099 0 0 0 0,-1.29e-4 2.1002099,2.1002099 0 0 0 0,-1.3e-4 2.1002099,2.1002099 0 0 0 0,-1.29e-4 2.1002099,2.1002099 0 0 0 0,-1.29e-4 2.1002099,2.1002099 0 0 0 0,-1.29e-4 2.1002099,2.1002099 0 0 0 0,-1.29e-4 2.1002099,2.1002099 0 0 0 0,-1.3e-4 2.1002099,2.1002099 0 0 0 0,-1.29e-4 2.1002099,2.1002099 0 0 0 0,-1.29e-4 2.1002099,2.1002099 0 0 0 0,-1.29e-4 c -0.0688,-0.63606 -0.18682,-1.540724 -0.28887,-2.210718 -0.10153,-0.666633 -0.24609,-1.500038 -0.36742,-2.089795 -0.11328,-0.550634 -0.28617,-1.305361 -0.42943,-1.873271 -0.15246,-0.604394 -0.39906,-1.483007 -0.60358,-2.162142 -0.21968,-0.729461 -0.55501,-1.729898 -0.82062,-2.462899 -0.17564,-0.484714 -0.39564,-1.037825 -0.60513,-1.570447 0.0884,-0.153871 0.18843,-0.277489 0.2713,-0.443384 0.32884,-0.658256 0.60183,-1.361437 0.82424,-2.029333 0.23724,-0.712483 0.4455,-1.499768 0.58033,-2.249992 0.16892,-0.940008 0.20979,-1.887684 0.20877,-3.03289 -9.9e-4,-1.121086 -0.0402,-2.066534 -0.20877,-3.003952 -0.12598,-0.700774 -0.3129,-1.442716 -0.53124,-2.117183 -0.24206,-0.747769 -0.56757,-1.515601 -0.91209,-2.207101 -0.37584,-0.754381 -0.84383,-1.528665 -1.33015,-2.2071 -0.5062,-0.706159 -1.11941,-1.423022 -1.72651,-2.037085 -0.58448,-0.591199 -1.26747,-1.200084 -1.93786,-1.703256 a 2.1002099,2.1002099 0 0 0 -0.002,0 c -0.5543,-0.416004 -1.17795,-0.841502 -1.78904,-1.191142 -0.58787,-0.336355 -1.23287,-0.646412 -1.85157,-0.898653 -0.67171,-0.273852 -1.4097,-0.51188 -2.10891,-0.689363 -0.69519,-0.176468 -1.45187,-0.317608 -2.17816,-0.394292 -0.62998,-0.06652 -1.33696,-0.103869 -1.96681,-0.103869 -0.63787,0 -1.35854,0.03854 -1.99988,0.10542 -0.68784,0.07173 -1.41676,0.193202 -2.09754,0.361735 -0.66759,0.165274 -1.36778,0.394437 -1.99626,0.638721 -0.15887,0.06175 -0.29325,0.145055 -0.44494,0.21239 -0.26021,-0.135651 -0.4654,-0.246879 -0.74414,-0.388607 -0.84011,-0.42716 -1.95763,-0.9363 -2.83445,-1.28881 -0.80078,-0.32195 -1.77077,-0.681703 -2.48202,-0.910022 -0.67454,-0.21655 -1.6185,-0.481191 -2.38125,-0.672311 -0.7399,-0.18539 -1.65709,-0.393281 -2.30632,-0.517281 -0.61044,-0.11659 -1.47804,-0.258887 -2.15039,-0.353467 -1.0921,-0.153636 -2.16788,-0.187583 -4.142764,-0.187585 z m 1.3e-4,2.099613 c 1.950376,0 2.899836,0.0343 3.849896,0.167949 0.62939,0.0885 1.49473,0.230137 2.04845,0.335897 0.57474,0.109769 1.49267,0.317352 2.1916,0.492476 0.71052,0.178028 1.64791,0.441957 2.24792,0.634587 0.62069,0.199245 1.58856,0.55647 2.34198,0.859379 0.79269,0.318699 1.90157,0.824171 2.66599,1.212846 0.61973,0.315101 1.24271,0.641903 1.64848,0.861446 0.42116,-0.238169 0.81116,-0.429521 1.25367,-0.601514 0.54248,-0.210857 1.18581,-0.419753 1.73839,-0.556555 0.56366,-0.139539 1.22397,-0.251453 1.81074,-0.312643 0.55419,-0.05779 1.23817,-0.09405 1.78284,-0.09405 0.53884,0 1.20678,0.03503 1.74615,0.09198 0.59959,0.06331 1.28532,0.190885 1.88102,0.342098 0.59719,0.151589 1.27423,0.371236 1.834,0.599447 0.53006,0.216105 1.11515,0.49691 1.60145,0.775147 0.49826,0.285079 1.07967,0.67915 1.57251,1.049031 0.55778,0.418649 1.19549,0.984996 1.70481,1.500167 0.52179,0.527788 1.09007,1.194073 1.5136,1.784904 0.41322,0.576471 0.84356,1.285911 1.15859,1.91823 0.29836,0.598853 0.59338,1.301953 0.79271,1.917712 0.18528,0.572337 0.35726,1.253405 0.46303,1.841748 0.1342,0.746139 0.17475,1.566048 0.17569,2.634982 9.8e-4,1.091402 -0.0402,1.90601 -0.17569,2.659786 -0.11163,0.621144 -0.30156,1.343783 -0.50592,1.957503 -0.19674,0.590831 -0.44588,1.224611 -0.71106,1.755449 -0.208,0.416369 -0.44914,0.793603 -0.72037,1.176156 0.0374,0.100774 0.0364,0.109814 0.1111,0.290938 0.24257,0.587902 0.60513,1.530516 0.84749,2.199349 0.24814,0.68477 0.58186,1.684072 0.78342,2.353345 0.19393,0.644005 0.44024,1.523049 0.57826,2.070158 0.13307,0.527532 0.3064,1.280778 0.40979,1.783354 0.10763,0.52317 0.25214,1.354276 0.34778,1.982308 0.0956,0.627701 0.21383,1.532716 0.27751,2.121317 v 0.0021 c 0.0844,0.780439 0.11733,2.013949 0.11523,3.148129 v 0.002 c -8.3e-4,0.55427 -0.0145,1.00939 -0.0306,1.45766 H 60.649787 c -0.0162,-0.44827 -0.02995,-0.90339 -0.03075,-1.45766 -0.002,-1.13476 0.0307,-2.36928 0.115239,-3.150199 0.0636,-0.588561 0.181802,-1.495115 0.277502,-2.123384 0.0957,-0.628032 0.240153,-1.459138 0.347782,-1.982308 0.10339,-0.502576 0.277231,-1.255822 0.410311,-1.783354 0.13801,-0.547109 0.383803,-1.426153 0.577743,-2.070158 0.20156,-0.669273 0.535285,-1.668575 0.783415,-2.353345 0.242369,-0.668833 0.604923,-1.611447 0.847493,-2.199349 0.0747,-0.181124 0.07419,-0.190164 0.111621,-0.290938 -0.271209,-0.382553 -0.512896,-0.75927 -0.720886,-1.175639 -0.2652,-0.530838 -0.514318,-1.165135 -0.711068,-1.755966 -0.20436,-0.61372 -0.394292,-1.335845 -0.505912,-1.956986 -0.1355,-0.753778 -0.17668,-1.568901 -0.1757,-2.660303 9.4e-4,-1.068934 0.0415,-1.888843 0.1757,-2.634982 0.10576,-0.588343 0.277741,-1.269411 0.463021,-1.841748 0.19933,-0.615759 0.494873,-1.318859 0.793233,-1.917712 0.31503,-0.632319 0.744849,-1.341759 1.158069,-1.91823 0.42354,-0.590831 0.991813,-1.257116 1.513603,-1.784904 0.509329,-0.515171 1.147026,-1.081518 1.704805,-1.500167 0.49284,-0.369881 1.072188,-0.763437 1.570447,-1.048515 0.4863,-0.278235 1.073451,-0.559558 1.60352,-0.775663 0.55977,-0.228211 1.236807,-0.447858 1.833997,-0.599447 0.595709,-0.151213 1.281463,-0.278788 1.881022,-0.342098 0.53938,-0.05695 1.207307,-0.09147 1.746147,-0.09147 0.544669,0 1.228647,0.03576 1.782837,0.09353 0.586779,0.06119 1.247073,0.173104 1.810742,0.312643 0.55258,0.136802 1.195906,0.345698 1.738396,0.556555 0.442509,0.171993 0.83251,0.363345 1.25367,0.601514 0.405769,-0.219543 1.028749,-0.546345 1.648478,-0.861446 0.764419,-0.388675 1.873288,-0.894147 2.665988,-1.212846 0.753429,-0.302909 1.721306,-0.660134 2.341976,-0.859379 0.600039,-0.19263 1.537405,-0.456559 2.247925,-0.634587 0.698929,-0.175124 1.616858,-0.382707 2.191597,-0.492476 0.55372,-0.10576 1.419581,-0.247397 2.048971,-0.335897 0.950089,-0.13365 1.896952,-0.167949 3.847311,-0.167949 z"
     transform="translate(-45.219978,-45.219978)"
     inkscape:label="BG" /><path
     id="rect4244"
     style="display:inline;fill:#014896;fill-opacity:1;stroke:none;stroke-width:4.20003;stroke-linecap:butt;stroke-linejoin:round;stroke-miterlimit:30;stroke-dasharray:none;stroke-opacity:1;paint-order:stroke fill markers"
     inkscape:label="FILL_TAG"
     d="m 51.759631,108.31846 v 9.48831 l 0.0013,5.1e-4 48.238144,19.34508 48.239435,-19.34559 v -9.48831 h -0.002 -11.62462 c -0.0158,0.0577 -0.0308,0.13077 -0.0451,0.18035 -0.0943,0.32596 -0.32592,1.0117 -0.51469,1.52394 -0.18877,0.51223 -0.52955,1.2969 -0.75758,1.74356 -0.22803,0.44665 -0.64028,1.15149 -0.91571,1.56631 -0.27544,0.41483 -0.71385,1.02124 -0.97461,1.34721 -0.26077,0.32596 -0.74714,0.87371 -1.08056,1.21749 -0.33341,0.34378 -0.94392,0.90624 -1.35702,1.25006 -0.41308,0.34382 -1.14736,0.89117 -1.63143,1.21594 -0.48406,0.32477 -1.29139,0.8164 -1.7942,1.09296 -0.50282,0.27656 -1.4095,0.71919 -2.01487,0.9834 -0.60537,0.26421 -1.82463,0.72226 -2.70939,1.01751 -0.88475,0.29525 -2.12312,0.67123 -2.75177,0.83561 -0.62863,0.16438 -1.71428,0.41111 -2.41278,0.5488 -0.6985,0.1377 -2.03231,0.36697 -2.96364,0.50901 -0.93134,0.14204 -2.55048,0.35237 -3.59823,0.46768 -1.04775,0.1153 -2.64781,0.26706 -3.55586,0.33744 -0.90804,0.0704 -2.43226,0.16884 -3.38687,0.2186 -0.95462,0.0498 -2.09752,0.10203 -2.5399,0.11627 -0.30149,0.01 -0.93778,0.009 -1.608685,0.004 -0.670899,0.005 -1.307198,0.006 -1.608687,-0.004 -0.44238,-0.0142 -1.585278,-0.0665 -2.539897,-0.11627 -0.954609,-0.0498 -2.478825,-0.14821 -3.386874,-0.2186 -0.908049,-0.0704 -2.508106,-0.22214 -3.555855,-0.33744 -1.047749,-0.11531 -2.666892,-0.32564 -3.598231,-0.46768 -0.931329,-0.14204 -2.265144,-0.37131 -2.963643,-0.50901 -0.6985,-0.13769 -1.784144,-0.38442 -2.412773,-0.5488 -0.628649,-0.16438 -1.867021,-0.54036 -2.75177,-0.83561 -0.884759,-0.29525 -2.104026,-0.7533 -2.709396,-1.01751 -0.605369,-0.26421 -1.512044,-0.70684 -2.014864,-0.9834 -0.502809,-0.27656 -1.310146,-0.76819 -1.794206,-1.09296 -0.484069,-0.32477 -1.218345,-0.87212 -1.631425,-1.21594 -0.413099,-0.34382 -1.023613,-0.90628 -1.357023,-1.25006 -0.33342,-0.34378 -0.819785,-0.89153 -1.080554,-1.21749 -0.26076,-0.32597 -0.699178,-0.93238 -0.974618,-1.34721 -0.27543,-0.41482 -0.687677,-1.11966 -0.915706,-1.56631 -0.22803,-0.44666 -0.568807,-1.23133 -0.757577,-1.74356 -0.18877,-0.51224 -0.420397,-1.19798 -0.514697,-1.52394 -0.01434,-0.0496 -0.02931,-0.12263 -0.04509,-0.18035 H 51.76131 Z"
     transform="translate(-45.219978,-45.219978)" /><path
     id="path2384"
     style="display:inline;fill:#ffffff;stroke-width:0.0846667"
     d="m -110.86041,-98.543123 c -1.92563,0 -2.7399,0.03404 -3.55585,0.148829 -0.58208,0.08188 -1.45874,0.225453 -1.94769,0.318843 -0.48895,0.09339 -1.42235,0.303288 -2.07429,0.466638 -0.65193,0.163349 -1.60445,0.431911 -2.11666,0.596346 -0.51224,0.164437 -1.50292,0.528424 -2.20142,0.809253 -0.6985,0.280831 -1.82231,0.791497 -2.49752,1.134815 -0.67522,0.343316 -1.47499,0.761134 -1.77767,0.928108 -0.45435,0.25064 -0.61283,0.29632 -0.90744,0.26355 -0.19628,-0.02183 -0.53941,-0.154618 -0.76223,-0.295072 -0.22283,-0.140455 -0.74775,-0.38849 -1.16685,-0.551388 -0.4191,-0.162898 -1.08575,-0.376399 -1.48156,-0.474389 -0.39582,-0.09799 -1.08156,-0.21587 -1.52394,-0.262 -0.44239,-0.04613 -1.14722,-0.08372 -1.56632,-0.08372 -0.41908,0 -1.10535,0.03585 -1.52445,0.0801 -0.4191,0.04425 -1.13226,0.174485 -1.58492,0.289388 -0.45266,0.114902 -1.15373,0.34418 -1.55804,0.509013 -0.4043,0.164832 -1.01312,0.458789 -1.35289,0.65319 -0.33977,0.1944 -0.94865,0.601595 -1.35341,0.905371 -0.40473,0.303778 -1.06773,0.887894 -1.47329,1.298112 -0.40556,0.410216 -0.99081,1.09908 -1.30018,1.530656 -0.30936,0.431574 -0.75244,1.165758 -0.98444,1.631425 -0.232,0.465664 -0.53558,1.19901 -0.67489,1.629358 -0.13931,0.430346 -0.31679,1.135178 -0.39429,1.566312 -0.0958,0.532581 -0.14122,1.258829 -0.14211,2.265495 -9.2e-4,1.031645 0.0425,1.725612 0.14314,2.285649 0.0795,0.442381 0.27344,1.191893 0.43098,1.665014 0.15755,0.473124 0.42612,1.139771 0.59687,1.481564 0.17074,0.341791 0.46317,0.821524 0.65009,1.066084 0.23622,0.309057 0.35245,0.555188 0.38085,0.807186 0.0334,0.296032 -0.0326,0.540625 -0.35967,1.333252 -0.2203,0.533927 -0.58662,1.484918 -0.81442,2.113566 -0.2278,0.62865 -0.56338,1.638426 -0.74569,2.243791 -0.1823,0.605365 -0.43125,1.495263 -0.55294,1.977657 -0.12169,0.482396 -0.29682,1.24427 -0.38912,1.69292 -0.0923,0.448651 -0.24048,1.292453 -0.32918,1.874821 -0.0887,0.582367 -0.20823,1.496919 -0.26613,2.032434 -0.058,0.535516 -0.10484,1.84972 -0.10284,2.920752 0.002,1.351199 0.0476,2.271158 0.1478,3.004985 0.0795,0.581668 0.20021,1.324682 0.26871,1.651062 0.0685,0.326378 0.20181,0.860007 0.29611,1.185974 0.0943,0.325964 0.32593,1.011704 0.5147,1.523938 0.18877,0.512231 0.52954,1.296906 0.75757,1.743563 0.22803,0.446655 0.64028,1.151488 0.91571,1.566312 0.27544,0.414826 0.71386,1.021239 0.97462,1.347205 0.26077,0.325965 0.74713,0.873714 1.08055,1.217497 0.33341,0.343782 0.94393,0.906234 1.35703,1.250052 0.41308,0.34382 1.14735,0.891177 1.63142,1.215947 0.48406,0.324772 1.2914,0.816396 1.79421,1.092956 0.50282,0.27656 1.40949,0.719193 2.01486,0.983403 0.60537,0.26421 1.82464,0.722259 2.7094,1.017509 0.88475,0.295249 2.12312,0.671228 2.75177,0.835608 0.62863,0.16438 1.71427,0.411112 2.41277,0.548803 0.6985,0.137694 2.03231,0.366968 2.96364,0.509013 0.93134,0.142037 2.55048,0.352365 3.59823,0.467672 1.04775,0.115308 2.64781,0.267067 3.55586,0.337447 0.90805,0.07039 2.43226,0.168833 3.38687,0.218591 0.95462,0.04976 2.09752,0.102032 2.5399,0.116272 0.30149,0.0097 0.93778,0.009 1.60868,0.0036 v -13.772803 -1.796273 -1.735294 -4.99246 z m 0,0 c 1.92563,0 2.7399,0.03404 3.55585,0.148829 0.58208,0.08188 1.45874,0.225453 1.94769,0.318843 0.48895,0.09339 1.42235,0.303288 2.07429,0.466638 0.65193,0.163349 1.60445,0.431911 2.11666,0.596346 0.51224,0.164437 1.50292,0.528424 2.20142,0.809253 0.6985,0.280831 1.82231,0.791497 2.49752,1.134815 0.67522,0.343316 1.47499,0.761134 1.77767,0.928108 0.45435,0.25064 0.61283,0.29632 0.90744,0.26355 0.19628,-0.02183 0.53941,-0.154618 0.76223,-0.295072 0.22283,-0.140455 0.74775,-0.38849 1.16685,-0.551388 0.4191,-0.162898 1.08575,-0.376399 1.48156,-0.474389 0.39582,-0.09799 1.08156,-0.21587 1.52394,-0.262 0.44239,-0.04613 1.14722,-0.08372 1.56632,-0.08372 0.41908,0 1.10535,0.03585 1.52445,0.0801 0.4191,0.04425 1.13226,0.174485 1.58492,0.289388 0.45266,0.114902 1.15373,0.34418 1.55804,0.509013 0.4043,0.164832 1.01312,0.458789 1.35289,0.65319 0.33977,0.1944 0.94865,0.601595 1.35341,0.905371 0.40473,0.303778 1.06773,0.887894 1.47329,1.298112 0.40556,0.410216 0.99081,1.09908 1.30018,1.530656 0.30936,0.431574 0.75244,1.165758 0.98444,1.631425 0.232,0.465664 0.53558,1.19901 0.67489,1.629358 0.13931,0.430346 0.31679,1.135178 0.39429,1.566312 0.0958,0.532581 0.14122,1.258829 0.14211,2.265495 9.2e-4,1.031645 -0.0425,1.725612 -0.14314,2.285649 -0.0795,0.442381 -0.27344,1.191893 -0.43098,1.665014 -0.15755,0.473124 -0.42612,1.139771 -0.59687,1.481564 -0.17074,0.341791 -0.46317,0.821524 -0.65009,1.066084 -0.23622,0.309057 -0.35245,0.555188 -0.38085,0.807186 -0.0334,0.296032 0.0326,0.540625 0.35967,1.333252 0.2203,0.533927 0.58662,1.484918 0.81442,2.113566 0.2278,0.62865 0.56338,1.638426 0.74569,2.243791 0.1823,0.605365 0.43125,1.495263 0.55294,1.977657 0.12169,0.482396 0.29682,1.24427 0.38912,1.69292 0.0923,0.448651 0.24048,1.292453 0.32918,1.874821 0.0887,0.582367 0.20823,1.496919 0.26613,2.032434 0.058,0.535516 0.10484,1.84972 0.10284,2.920752 -0.002,1.351199 -0.0476,2.271158 -0.1478,3.004985 -0.0795,0.581668 -0.20021,1.324682 -0.26871,1.651062 -0.0685,0.326378 -0.20181,0.860007 -0.29611,1.185974 -0.0943,0.325964 -0.32593,1.011704 -0.5147,1.523938 -0.18877,0.512231 -0.52954,1.296906 -0.75757,1.743563 -0.22803,0.446655 -0.64028,1.151488 -0.91571,1.566312 -0.27544,0.414826 -0.71386,1.021239 -0.97462,1.347205 -0.26077,0.325965 -0.74713,0.873714 -1.08055,1.217497 -0.33341,0.343782 -0.94393,0.906234 -1.35703,1.250052 -0.41308,0.34382 -1.14735,0.891177 -1.63142,1.215947 -0.48406,0.324772 -1.2914,0.816396 -1.79421,1.092956 -0.50282,0.27656 -1.40949,0.719193 -2.01486,0.983403 -0.60537,0.26421 -1.82464,0.722259 -2.7094,1.017509 -0.88475,0.295249 -2.12312,0.671228 -2.75177,0.835608 -0.62863,0.16438 -1.71427,0.411112 -2.41277,0.548803 -0.6985,0.137694 -2.03231,0.366968 -2.96364,0.509013 -0.93134,0.142037 -2.55048,0.352365 -3.59823,0.467672 -1.04775,0.115308 -2.64781,0.267067 -3.55586,0.337447 -0.90805,0.07039 -2.43226,0.168833 -3.38687,0.218591 -0.95462,0.04976 -2.09752,0.102032 -2.5399,0.116272 -0.30149,0.0097 -0.93778,0.009 -1.60868,0.0036 v -13.772803 -1.796273 -1.735294 -4.99246 z"
     transform="translate(165.63949,117.127)"
     class="UnoptimicedTransforms"
     inkscape:label="FILL"
     inkscape:original-d="m -110.86041,-98.543123 c -1.92563,0 -2.7399,0.03404 -3.55585,0.148829 -0.58208,0.08188 -1.45874,0.225453 -1.94769,0.318843 -0.48895,0.09339 -1.42235,0.303288 -2.07429,0.466638 -0.65193,0.163349 -1.60445,0.431911 -2.11666,0.596346 -0.51224,0.164437 -1.50292,0.528424 -2.20142,0.809253 -0.6985,0.280831 -1.82231,0.791497 -2.49752,1.134815 -0.67522,0.343316 -1.47499,0.761134 -1.77767,0.928108 -0.45435,0.25064 -0.61283,0.29632 -0.90744,0.26355 -0.19628,-0.02183 -0.53941,-0.154618 -0.76223,-0.295072 -0.22283,-0.140455 -0.74775,-0.38849 -1.16685,-0.551388 -0.4191,-0.162898 -1.08575,-0.376399 -1.48156,-0.474389 -0.39582,-0.09799 -1.08156,-0.21587 -1.52394,-0.262 -0.44239,-0.04613 -1.14722,-0.08372 -1.56632,-0.08372 -0.41908,0 -1.10535,0.03585 -1.52445,0.0801 -0.4191,0.04425 -1.13226,0.174485 -1.58492,0.289388 -0.45266,0.114902 -1.15373,0.34418 -1.55804,0.509013 -0.4043,0.164832 -1.01312,0.458789 -1.35289,0.65319 -0.33977,0.1944 -0.94865,0.601595 -1.35341,0.905371 -0.40473,0.303778 -1.06773,0.887894 -1.47329,1.298112 -0.40556,0.410216 -0.99081,1.09908 -1.30018,1.530656 -0.30936,0.431574 -0.75244,1.165758 -0.98444,1.631425 -0.232,0.465664 -0.53558,1.19901 -0.67489,1.629358 -0.13931,0.430346 -0.31679,1.135178 -0.39429,1.566312 -0.0958,0.532581 -0.14122,1.258829 -0.14211,2.265495 -9.2e-4,1.031645 0.0425,1.725612 0.14314,2.285649 0.0795,0.442381 0.27344,1.191893 0.43098,1.665014 0.15755,0.473124 0.42612,1.139771 0.59687,1.481564 0.17074,0.341791 0.46317,0.821524 0.65009,1.066084 0.23622,0.309057 0.35245,0.555188 0.38085,0.807186 0.0334,0.296032 -0.0326,0.540625 -0.35967,1.333252 -0.2203,0.533927 -0.58662,1.484918 -0.81442,2.113566 -0.2278,0.62865 -0.56338,1.638426 -0.74569,2.243791 -0.1823,0.605365 -0.43125,1.495263 -0.55294,1.977657 -0.12169,0.482396 -0.29682,1.24427 -0.38912,1.69292 -0.0923,0.448651 -0.24048,1.292453 -0.32918,1.874821 -0.0887,0.582367 -0.20823,1.496919 -0.26613,2.032434 -0.058,0.535516 -0.10484,1.84972 -0.10284,2.920752 0.002,1.351199 0.0476,2.271158 0.1478,3.004985 0.0795,0.581668 0.20021,1.324682 0.26871,1.651062 0.0685,0.326378 0.20181,0.860007 0.29611,1.185974 0.0943,0.325964 0.32593,1.011704 0.5147,1.523938 0.18877,0.512231 0.52954,1.296906 0.75757,1.743563 0.22803,0.446655 0.64028,1.151488 0.91571,1.566312 0.27544,0.414826 0.71386,1.021239 0.97462,1.347205 0.26077,0.325965 0.74713,0.873714 1.08055,1.217497 0.33341,0.343782 0.94393,0.906234 1.35703,1.250052 0.41308,0.34382 1.14735,0.891177 1.63142,1.215947 0.48406,0.324772 1.2914,0.816396 1.79421,1.092956 0.50282,0.27656 1.40949,0.719193 2.01486,0.983403 0.60537,0.26421 1.82464,0.722259 2.7094,1.017509 0.88475,0.295249 2.12312,0.671228 2.75177,0.835608 0.62863,0.16438 1.71427,0.411112 2.41277,0.548803 0.6985,0.137694 2.03231,0.366968 2.96364,0.509013 0.93134,0.142037 2.55048,0.352365 3.59823,0.467672 1.04775,0.115308 2.64781,0.267067 3.55586,0.337447 0.90805,0.07039 2.43226,0.168833 3.38687,0.218591 0.95462,0.04976 2.09752,0.102032 2.5399,0.116272 0.30149,0.0097 0.93778,0.009 1.60868,0.0036 v -13.772803 -1.796273 -1.735294 -4.99246 z"
     inkscape:path-effect="#path-effect2503" /><path
     id="path4363"
     style="color:#000000;display:inline;fill:#000000;stroke-linejoin:round;stroke-miterlimit:30;-inkscape-stroke:none;paint-order:stroke fill markers"
     inkscape:label="OUTLINE"
     d="M 99.998034 61.704115 L 99.998034 61.704244 C 98.047665 61.704244 97.100812 61.738543 96.150723 61.872193 C 95.521333 61.960693 94.655472 62.10233 94.101752 62.20809 C 93.527013 62.317859 92.609084 62.525442 91.910155 62.700566 C 91.199625 62.878596 90.262269 63.142523 89.66223 63.335153 C 89.04156 63.534399 88.073683 63.891621 87.320254 64.194532 C 86.527554 64.513232 85.418685 65.018701 84.654266 65.407378 C 84.034537 65.72248 83.411557 66.049281 83.005788 66.268824 C 82.584628 66.030655 82.194627 65.839305 81.752118 65.66731 C 81.209628 65.456453 80.566302 65.247557 80.013722 65.110755 C 79.450053 64.971214 78.789759 64.859299 78.20298 64.798112 C 77.64879 64.740323 76.964812 64.704578 76.420143 64.704578 C 75.881303 64.704578 75.213376 64.739095 74.673996 64.796045 C 74.074417 64.859355 73.388683 64.986929 72.792974 65.138143 C 72.195784 65.289732 71.518747 65.509379 70.958977 65.73759 C 70.428908 65.953697 69.841757 66.235017 69.355457 66.513253 C 68.857198 66.798333 68.27785 67.191886 67.78501 67.561768 C 67.227231 67.980419 66.589534 68.546761 66.080205 69.061935 C 65.558405 69.589723 64.990142 70.256005 64.566602 70.846839 C 64.153382 71.42331 63.723563 72.13275 63.408533 72.765069 C 63.110173 73.363925 62.81463 74.067019 62.6153 74.682781 C 62.43002 75.25512 62.258039 75.936183 62.152279 76.524529 C 62.018059 77.27067 61.977519 78.090574 61.976579 79.159511 C 61.975599 80.250916 62.016779 81.066034 62.152279 81.819814 C 62.263899 82.440958 62.453831 83.163079 62.658191 83.7768 C 62.854941 84.367633 63.104059 85.001928 63.369259 85.532766 C 63.577249 85.949138 63.818916 86.325852 64.090145 86.708405 C 64.052745 86.809182 64.053244 86.818219 63.978524 86.999343 C 63.735954 87.587248 63.3734 88.529858 63.131031 89.198692 C 62.882901 89.883465 62.549176 90.882763 62.347616 91.552037 C 62.153676 92.196045 61.907883 93.075084 61.769873 93.622195 C 61.636793 94.149728 61.462952 94.902971 61.359562 95.405549 C 61.251933 95.92872 61.10744 96.759823 61.01178 97.387857 C 60.91608 98.016129 60.797918 98.922679 60.734278 99.511241 C 60.649778 100.29216 60.616919 101.52668 60.619039 102.66144 C 60.621039 104.05718 60.665037 105.06472 60.785437 105.94651 C 60.798405 106.04142 60.816018 106.1214 60.830008 106.21871 L 51.761698 106.21871 L 51.75976 106.21871 A 2.1002099 2.1002099 0 0 0 49.660147 108.31833 L 49.660147 117.80664 A 2.1002099 2.1002099 0 0 0 50.980479 119.75587 L 99.216815 139.10159 A 2.1002099 2.1002099 0 0 0 100.78119 139.10159 L 149.01959 119.75587 A 2.1002099 2.1002099 0 0 0 150.33786 117.80664 L 150.33786 108.31833 A 2.1002099 2.1002099 0 0 0 148.23824 106.21871 L 148.23618 106.21871 L 139.16851 106.21871 C 139.18253 106.1214 139.20024 106.04142 139.21321 105.94651 C 139.33362 105.06472 139.37698 104.05718 139.37909 102.66144 L 139.37909 102.65937 C 139.38119 101.52519 139.34826 100.29168 139.26386 99.511241 L 139.26386 99.509174 C 139.20018 98.920572 139.08196 98.015561 138.98635 97.387857 C 138.8907 96.759823 138.7462 95.92872 138.63857 95.405549 C 138.53518 94.902971 138.36185 94.149728 138.22878 93.622195 C 138.09076 93.075084 137.84445 92.196045 137.65052 91.552037 C 137.44896 90.882763 137.11524 89.883465 136.8671 89.198692 C 136.62474 88.529858 136.26218 87.587248 136.01961 86.999343 C 135.94487 86.818219 135.94592 86.809182 135.90851 86.708405 C 136.17974 86.325852 136.42088 85.948621 136.62888 85.532249 C 136.89407 85.001411 137.1432 84.367633 137.33994 83.7768 C 137.5443 83.163079 137.73423 82.440442 137.84586 81.819297 C 137.98131 81.065518 138.02253 80.250916 138.02155 79.159511 C 138.02061 78.090574 137.98006 77.27067 137.84586 76.524529 C 137.74009 75.936183 137.56811 75.25512 137.38283 74.682781 C 137.1835 74.067019 136.88848 73.363925 136.59012 72.765069 C 136.27509 72.13275 135.84476 71.42331 135.43153 70.846839 C 135.008 70.256005 134.43973 69.589723 133.91793 69.061935 C 133.4086 68.546761 132.7709 67.980419 132.21312 67.561768 C 131.72028 67.191886 131.13887 66.797817 130.64061 66.512737 C 130.15431 66.2345 129.56922 65.953697 129.03916 65.73759 C 128.47939 65.509379 127.80235 65.289732 127.20516 65.138143 C 126.60945 64.986929 125.92373 64.859351 125.32414 64.796045 C 124.78477 64.739095 124.11683 64.704061 123.57799 64.704061 C 123.03332 64.704061 122.34934 64.740323 121.79515 64.798112 C 121.20838 64.859302 120.54807 64.971214 119.98441 65.110755 C 119.43183 65.247557 118.7885 65.456453 118.24602 65.66731 C 117.80351 65.839305 117.41351 66.030655 116.99235 66.268824 C 116.58658 66.049281 115.9636 65.72248 115.34387 65.407378 C 114.57945 65.018701 113.47057 64.513232 112.67788 64.194532 C 111.92446 63.891621 110.95658 63.534399 110.3359 63.335153 C 109.73588 63.142523 108.7985 62.878596 108.08798 62.700566 C 107.38905 62.525442 106.47112 62.317859 105.89638 62.20809 C 105.34266 62.10233 104.47732 61.960593 103.84793 61.872063 C 102.89785 61.738404 101.94841 61.704115 99.998034 61.704115 z M 99.999067 63.803858 C 101.9247 63.803858 102.73897 63.837897 103.55492 63.952686 C 104.137 64.034566 105.01366 64.17814 105.50261 64.27153 C 105.99156 64.36492 106.92496 64.574818 107.5769 64.738168 C 108.22883 64.901517 109.18136 65.17008 109.69357 65.334514 C 110.20581 65.498951 111.19648 65.862939 111.89498 66.143767 C 112.59348 66.424598 113.7173 66.935264 114.3925 67.278581 C 115.06772 67.621896 115.86749 68.039717 116.17017 68.20669 C 116.62452 68.45733 116.783 68.50301 117.07761 68.47024 C 117.27389 68.44841 117.61702 68.315621 117.83984 68.175168 C 118.06267 68.034713 118.5876 67.786678 119.00669 67.62378 C 119.42579 67.460882 120.09245 67.24738 120.48826 67.14939 C 120.88408 67.0514 121.56982 66.933521 122.0122 66.887391 C 122.45458 66.841261 123.15941 66.803675 123.57851 66.803675 C 123.99759 66.803675 124.68386 66.839523 125.10296 66.883773 C 125.52206 66.928023 126.23522 67.058259 126.68788 67.173161 C 127.14054 67.288063 127.84161 67.517342 128.24592 67.682174 C 128.65022 67.847006 129.25904 68.140964 129.59881 68.335365 C 129.93858 68.529764 130.54746 68.93696 130.95222 69.240736 C 131.35695 69.544513 132.01995 70.12863 132.42551 70.538848 C 132.83107 70.949062 133.41632 71.637928 133.72569 72.069504 C 134.03505 72.501076 134.47813 73.235262 134.71013 73.700929 C 134.94213 74.166591 135.24571 74.899939 135.38502 75.330287 C 135.52433 75.760631 135.70181 76.465467 135.77931 76.8966 C 135.87511 77.42918 135.92053 78.155431 135.92142 79.162095 C 135.92234 80.193738 135.87892 80.887707 135.77828 81.447743 C 135.69878 81.890123 135.50484 82.639639 135.3473 83.112758 C 135.18975 83.585882 134.92119 84.252529 134.75044 84.594322 C 134.5797 84.936111 134.28727 85.415848 134.10035 85.660406 C 133.86413 85.969463 133.74789 86.215596 133.71949 86.467592 C 133.68609 86.763624 133.75209 87.008219 134.07916 87.800844 C 134.29946 88.334771 134.66578 89.285764 134.89358 89.914411 C 135.12138 90.54306 135.45696 91.552838 135.63927 92.158201 C 135.82157 92.763565 136.07052 93.653466 136.19221 94.135859 C 136.3139 94.618254 136.48903 95.380129 136.58133 95.828779 C 136.67363 96.277429 136.82181 97.121233 136.91051 97.7036 C 136.99921 98.285965 137.11875 99.200521 137.17665 99.736034 C 137.23465 100.27155 137.28148 101.58576 137.27948 102.65679 C 137.27748 104.00798 137.23188 104.92794 137.13169 105.66177 C 137.10487 105.85798 137.07361 106.00797 137.04099 106.21871 C 136.97689 106.63272 136.90836 107.09655 136.86297 107.31283 C 136.79447 107.63921 136.66116 108.17284 136.56686 108.49881 C 136.47256 108.82477 136.24093 109.51051 136.05217 110.02275 C 135.8634 110.53497 135.52262 111.31965 135.29459 111.76631 C 135.06656 112.21296 134.65431 112.9178 134.37888 113.33262 C 134.10344 113.74745 133.66503 114.35386 133.40427 114.67983 C 133.1435 115.00579 132.65713 115.55354 132.32371 115.89732 C 131.9903 116.2411 131.37979 116.80356 130.96669 117.14738 C 130.55361 117.4912 129.81933 118.03855 129.33526 118.36332 C 128.8512 118.68809 128.04387 119.17972 127.54106 119.45628 C 127.03824 119.73284 126.13156 120.17547 125.52619 120.43968 C 124.92082 120.70389 123.70156 121.16194 122.8168 121.45719 C 121.93205 121.75244 120.69368 122.12842 120.06503 122.2928 C 119.4364 122.45718 118.35075 122.70391 117.65225 122.8416 C 116.95376 122.9793 115.61994 123.20857 114.68861 123.35061 C 113.75727 123.49265 112.13813 123.70298 111.09038 123.81829 C 110.04263 123.93359 108.44257 124.08535 107.53452 124.15573 C 106.62648 124.22612 105.10226 124.32457 104.14765 124.37433 C 103.19303 124.42409 102.05013 124.47636 101.60775 124.4906 C 101.30626 124.5003 100.66997 124.49961 99.999067 124.49421 C 99.328168 124.49961 98.691869 124.5003 98.39038 124.4906 C 97.948 124.47636 96.805102 124.42409 95.850483 124.37433 C 94.895874 124.32457 93.371658 124.22612 92.463609 124.15573 C 91.55556 124.08535 89.955503 123.93359 88.907754 123.81829 C 87.860005 123.70298 86.240862 123.49265 85.309523 123.35061 C 84.378194 123.20857 83.044379 122.9793 82.34588 122.8416 C 81.64738 122.70391 80.561726 122.45718 79.933107 122.2928 C 79.304458 122.12842 78.066076 121.75244 77.181337 121.45719 C 76.296578 121.16194 75.077311 120.70389 74.471941 120.43968 C 73.866572 120.17547 72.959897 119.73284 72.457077 119.45628 C 71.954268 119.17972 71.146931 118.68809 70.662871 118.36332 C 70.178802 118.03855 69.444516 117.4912 69.031446 117.14738 C 68.618347 116.80356 68.007833 116.2411 67.674423 115.89732 C 67.341003 115.55354 66.854638 115.00579 66.593869 114.67983 C 66.333109 114.35386 65.894691 113.74745 65.619251 113.33262 C 65.343821 112.9178 64.931574 112.21296 64.703545 111.76631 C 64.475515 111.31965 64.134738 110.53497 63.945968 110.02275 C 63.757198 109.51051 63.525571 108.82477 63.431271 108.49881 C 63.336971 108.17284 63.203665 107.63921 63.135165 107.31283 C 63.089775 107.09655 63.021201 106.63272 62.957139 106.21871 C 62.924529 106.00797 62.893265 105.85798 62.866447 105.66177 C 62.766247 104.92794 62.720653 104.00798 62.718653 102.65679 C 62.716653 101.58576 62.763449 100.27155 62.821489 99.736034 C 62.879389 99.200521 62.998923 98.285965 63.087622 97.7036 C 63.176322 97.121233 63.324501 96.277429 63.416801 95.828779 C 63.509101 95.380129 63.684235 94.618254 63.805925 94.135859 C 63.927615 93.653466 64.176563 92.763565 64.358863 92.158201 C 64.541173 91.552838 64.876754 90.54306 65.104554 89.914411 C 65.332354 89.285764 65.698675 88.334771 65.918974 87.800844 C 66.246044 87.008219 66.312042 86.763624 66.278642 86.467592 C 66.250242 86.215596 66.134007 85.969463 65.897787 85.660406 C 65.710867 85.415848 65.418437 84.936111 65.247697 84.594322 C 65.076948 84.252529 64.808384 83.585882 64.650835 83.112758 C 64.493295 82.639639 64.299353 81.890123 64.219853 81.447743 C 64.119213 80.887707 64.075789 80.193738 64.076709 79.162095 C 64.077599 78.155431 64.12301 77.42918 64.21882 76.8966 C 64.29632 76.465467 64.473801 75.760631 64.613111 75.330287 C 64.752421 74.899939 65.056005 74.166591 65.288005 73.700929 C 65.520005 73.235262 65.963082 72.501076 66.272441 72.069504 C 66.581811 71.637928 67.167061 70.949062 67.57262 70.538848 C 67.97818 70.12863 68.641196 69.544513 69.045916 69.240736 C 69.450675 68.93696 70.059552 68.529764 70.399321 68.335365 C 70.739091 68.140964 71.347911 67.847006 71.75221 67.682174 C 72.15652 67.517342 72.857595 67.288063 73.310255 67.173161 C 73.762915 67.058259 74.476072 66.928023 74.895171 66.883773 C 75.314271 66.839523 76.000557 66.803675 76.419626 66.803675 C 76.838726 66.803675 77.543549 66.841261 77.985939 66.887391 C 78.428318 66.933521 79.114057 67.0514 79.509877 67.14939 C 79.905687 67.24738 80.572341 67.460882 80.99144 67.62378 C 81.41054 67.786678 81.935465 68.034713 82.158294 68.175168 C 82.381114 68.315621 82.724242 68.44841 82.920522 68.47024 C 83.215131 68.50301 83.37361 68.45733 83.82796 68.20669 C 84.13064 68.039717 84.93041 67.621896 85.605629 67.278581 C 86.280839 66.935264 87.404652 66.424598 88.103152 66.143767 C 88.801651 65.862939 89.792328 65.498951 90.304568 65.334514 C 90.816767 65.17008 91.769305 64.901517 92.421234 64.738168 C 93.073174 64.574818 94.006577 64.36492 94.495527 64.27153 C 94.984476 64.17814 95.861132 64.034565 96.443211 63.952686 C 97.259161 63.837897 98.073449 63.803858 99.999067 63.803858 z M 75.098776 70.761573 C 74.432558 70.759577 73.77646 70.799502 73.342294 70.889214 C 71.910258 71.185106 70.633439 71.91939 69.497568 73.099415 C 68.633756 73.996812 68.250288 74.607646 67.887847 75.664117 C 67.629764 76.416501 67.613301 76.532811 67.609311 77.687766 C 67.606318 78.466458 67.64713 79.082222 67.721448 79.377585 C 67.883314 80.020737 68.152168 80.729441 68.234079 80.729441 C 68.271592 80.729441 68.637237 80.264877 69.046949 79.696946 C 71.063843 76.901182 73.721301 74.186123 76.789113 71.78735 C 77.267506 71.413284 77.579953 71.113178 77.536354 71.069565 C 77.34772 70.88086 76.209167 70.764567 75.098776 70.761573 z M 124.89936 70.761573 C 123.78897 70.764567 122.65041 70.88086 122.46178 71.069565 C 122.41818 71.113178 122.73064 71.413284 123.20902 71.78735 C 126.27683 74.186123 128.9343 76.901182 130.95119 79.696946 C 131.3609 80.264877 131.72654 80.729441 131.76406 80.729441 C 131.84597 80.729441 132.11482 80.020737 132.27669 79.377585 C 132.35101 79.082222 132.39182 78.466458 132.38882 77.687766 C 132.38483 76.532811 132.36837 76.416501 132.11029 75.664117 C 131.74785 74.607646 131.36438 73.996812 130.50057 73.099415 C 129.36468 71.91939 128.08788 71.185106 126.65584 70.889214 C 126.22168 70.799492 125.56559 70.760046 124.89936 70.761573 z M 75.073972 98.517633 C 73.231914 99.509286 71.979716 101.45532 71.979716 103.69393 C 71.979716 106.93861 74.610028 109.5689 77.854681 109.5689 C 81.099344 109.5689 83.729646 106.93861 83.729646 103.69393 C 83.729646 103.63345 83.72867 103.57319 83.726674 103.51319 L 75.073972 98.517633 z M 124.92623 98.517633 L 116.27353 103.51319 C 116.27153 103.57319 116.27056 103.63345 116.27056 103.69393 C 116.27056 106.93861 118.90086 109.5689 122.14552 109.5689 C 125.39018 109.5689 128.02049 106.93861 128.02049 103.69393 C 128.02049 101.45532 126.76829 99.509286 124.92623 98.517633 z M 99.998938 107.47458 C 98.949097 107.47458 98.438596 107.59358 97.71949 108.0053 C 96.978924 108.42932 96.066769 109.44587 96.25653 109.63569 C 96.306714 109.68588 96.575449 109.60538 96.979484 109.41865 C 97.91029 108.98846 98.954804 108.7729 99.998938 108.77269 L 99.998938 107.47458 z M 99.999196 107.47458 L 99.999196 108.77269 C 101.04333 108.7729 102.08783 108.98846 103.01865 109.41865 C 103.42269 109.60538 103.69142 109.68588 103.7416 109.63569 C 103.93136 109.44587 103.01921 108.42932 102.27864 108.0053 C 101.55954 107.59358 101.04904 107.47458 99.999196 107.47458 z M 51.759631 108.31846 L 51.76131 108.31846 L 61.223524 108.31846 C 61.288419 108.5837 61.347275 108.85144 61.414339 109.08327 C 61.545259 109.53581 61.768202 110.18949 61.974512 110.74932 C 62.206222 111.37805 62.538221 112.14267 62.833891 112.72181 C 63.121171 113.28452 63.521837 113.96969 63.869487 114.49327 C 64.191267 114.97789 64.616002 115.56993 64.953142 115.99137 C 65.292711 116.41583 65.767008 116.94735 66.165988 117.35873 C 66.594417 117.80049 67.191159 118.34784 67.687859 118.76123 C 68.199108 119.18677 68.9177 119.72131 69.4924 120.10688 C 70.059349 120.48727 70.853353 120.9704 71.445252 121.29596 C 72.053052 121.63026 72.942266 122.06396 73.631166 122.36463 C 74.368455 122.68641 75.561875 123.13049 76.515744 123.4488 C 77.450833 123.76085 78.668531 124.13179 79.40239 124.32368 C 80.105939 124.50765 81.179254 124.75152 81.939703 124.90142 C 82.701912 125.05168 84.023371 125.27921 84.99223 125.42697 C 85.976729 125.57712 87.587875 125.78555 88.677793 125.9055 C 89.757472 126.02432 91.350389 126.17548 92.300828 126.24915 C 93.238987 126.32187 94.758063 126.42067 95.740412 126.47187 C 96.705691 126.52219 97.830867 126.57336 98.322167 126.58918 C 98.713976 126.60179 99.318361 126.60006 99.982531 126.59486 C 99.995831 126.59476 100.0023 126.59497 100.0156 126.59486 C 100.67977 126.60016 101.28415 126.60178 101.67597 126.58918 C 102.16727 126.57337 103.29243 126.52219 104.25772 126.47187 C 105.24007 126.42067 106.75914 126.32187 107.69731 126.24915 C 108.64774 126.17548 110.24066 126.02432 111.32034 125.9055 C 112.41026 125.78555 114.02141 125.57712 115.0059 125.42697 C 115.97476 125.27921 117.29674 125.05168 118.05895 124.90142 C 118.81939 124.75152 119.89219 124.50765 120.59574 124.32368 C 121.3296 124.13179 122.54523 123.76085 123.48032 123.4488 C 124.43419 123.13049 125.62813 122.68641 126.36542 122.36463 C 127.05433 122.06396 127.94508 121.63026 128.55288 121.29596 C 129.14478 120.9704 129.93879 120.48727 130.50573 120.10688 C 131.08044 119.72131 131.79953 119.18677 132.31079 118.76123 C 132.80749 118.34784 133.40372 117.80049 133.83215 117.35873 C 134.23113 116.94735 134.70543 116.41583 135.04499 115.99137 C 135.38213 115.56993 135.80738 114.97789 136.12916 114.49327 C 136.47681 113.96969 136.87696 113.28452 137.16424 112.72181 C 137.45991 112.14267 137.79192 111.37805 138.02362 110.74932 C 138.22993 110.18949 138.45339 109.53581 138.58431 109.08327 C 138.65138 108.85144 138.71012 108.5837 138.77487 108.31846 L 148.23669 108.31846 L 148.23863 108.31846 L 148.23863 117.80677 L 99.999196 137.15236 L 51.761052 117.80728 L 51.75976 117.80677 L 51.759631 108.31846 z "
     transform="translate(-45.219978,-45.219978)" /></svg>
