<?xml version="1.0" encoding="UTF-8" standalone="no"?>
<svg
   id="Layer_1"
   viewBox="0 0 1000 1000"
   version="1.1"
   sodipodi:docname="kofi.svg"
   inkscape:version="1.3 (0e150ed6c4, 2023-07-21)"
   xmlns:inkscape="http://www.inkscape.org/namespaces/inkscape"
   xmlns:sodipodi="http://sodipodi.sourceforge.net/DTD/sodipodi-0.dtd"
   xmlns="http://www.w3.org/2000/svg"
   xmlns:svg="http://www.w3.org/2000/svg">
  <sodipodi:namedview
     id="namedview6"
     pagecolor="#ffffff"
     bordercolor="#000000"
     borderopacity="0.25"
     inkscape:showpageshadow="2"
     inkscape:pageopacity="0.0"
     inkscape:pagecheckerboard="0"
     inkscape:deskcolor="#d1d1d1"
     inkscape:zoom="0.813"
     inkscape:cx="499.38499"
     inkscape:cy="500"
     inkscape:window-width="1920"
     inkscape:window-height="1009"
     inkscape:window-x="1912"
     inkscape:window-y="-8"
     inkscape:window-maximized="1"
     inkscape:current-layer="Layer_1" />
  <defs
     id="defs2">
    <style
       id="style1">.cls-1{fill:url(#linear-gradient);}.cls-2{fill:#fff;}.cls-3{fill:#ff5e5b;}</style>
    <linearGradient
       id="linear-gradient"
       x1="336.01"
       y1="4124.64"
       x2="421.72"
       y2="3861.61"
       gradientTransform="translate(4.1 4362.59) scale(1 -1)"
       gradientUnits="userSpaceOnUse">
      <stop
         offset="0"
         stop-color="#ff4ea3"
         id="stop1"
         style="stop-color:#000000;stop-opacity:1;" />
      <stop
         offset="1"
         stop-color="#ff5e5b"
         id="stop2"
         style="stop-color:#000000;stop-opacity:1;" />
    </linearGradient>
  </defs>
  <path
     id="path2"
     style="display:inline"
     class="cls-2"
     d="M 207.01953 298.59961 C 191.08955 298.59961 184.5 314.53024 184.5 322.49023 L 184.5 327.80078 C 184.5 327.80078 183.20977 529.14917 185.75977 637.78906 C 189.68976 701.399 253.30078 701.40039 253.30078 701.40039 C 253.30078 701.40039 461.24002 701.41062 561.91992 700.14062 C 567.22992 700.14062 571.16071 700.13937 576.4707 698.85938 C 633.40065 684.30939 638.71094 631.31911 638.71094 602.11914 C 752.76082 607.23914 833.5792 526.43005 812.44922 419.16016 L 812.46094 419.16992 C 803.22095 372.75997 779.33083 343.6592 752.88086 326.44922 C 726.43089 307.86924 694.58028 298.61914 662.82031 298.61914 L 207.01953 298.59961 z M 640.19922 375.41016 L 670.68945 375.41016 C 690.54943 375.41016 709.13056 383.38056 722.31055 399.31055 C 731.55054 409.93054 738.24047 424.48072 738.23047 445.7207 C 738.23047 494.68065 713.05919 514.53931 683.94922 523.7793 L 683.94922 523.76953 C 660.05924 526.41953 640.19922 525.05078 640.19922 525.05078 L 640.19922 375.41016 z M 476.60742 393.72461 C 485.18645 393.7029 494.3015 395.30658 503.74023 399.28906 C 552.80015 420.42902 551.42025 477.44944 522.32031 511.85938 C 522.31746 511.86266 522.3134 511.86584 522.31055 511.86914 C 520.24235 514.26239 518.02021 516.7657 515.66992 519.35352 C 514.72786 520.39083 513.68242 521.49514 512.70117 522.55859 C 511.23104 524.15182 509.80205 525.71777 508.25391 527.36133 C 508.2503 527.36515 508.24774 527.36922 508.24414 527.37305 C 506.12619 529.6214 503.7259 532.03298 501.48828 534.35352 C 498.27088 537.69012 495.15981 540.96685 491.77148 544.38867 C 486.2458 549.96915 480.54963 555.60713 474.88477 561.15039 C 474.66348 561.36692 474.44579 561.58848 474.22461 561.80469 C 474.22132 561.8079 474.21813 561.81124 474.21484 561.81445 C 468.33146 567.56551 462.48624 573.2008 456.90039 578.53711 C 456.89719 578.54017 456.89383 578.54381 456.89062 578.54688 C 445.71718 589.22101 435.57811 598.69928 428.23242 605.50781 C 428.22984 605.5102 428.22523 605.51519 428.22266 605.51758 C 420.88542 612.31814 416.33008 616.46094 416.33008 616.46094 C 416.33008 616.46094 416.31111 616.476 416.31055 616.47656 C 416.25736 616.52936 413.7392 619.01347 410.82031 618.42969 L 410.81055 618.42969 C 409.53055 618.22969 408.34914 617.54016 407.36914 616.66016 C 407.14434 616.45713 405.99082 615.40947 405.69727 615.14453 C 405.69644 615.16685 405.68945 615.17525 405.68945 615.19922 C 393.78949 604.57924 316.9109 535.74932 299.71094 511.85938 C 281.70924 486.23263 272.47566 443.08094 294.81055 416.36328 C 295.52774 415.5049 296.27745 414.6632 297.06055 413.83984 C 297.06308 413.83718 297.06583 413.83469 297.06836 413.83203 L 297.07031 413.83008 C 297.85371 413.00684 298.66556 412.20625 299.50391 411.42969 C 299.50727 411.42658 299.51031 411.42303 299.51367 411.41992 C 300.35226 410.64352 301.21872 409.89266 302.10938 409.16406 C 328.93957 387.21554 378.74326 387.20684 412.30078 424.44922 C 412.30862 424.44038 412.94176 423.72533 414.1582 422.50391 C 415.37822 421.27829 417.17743 419.55137 419.49805 417.54102 C 419.50123 417.53826 419.50463 417.53401 419.50781 417.53125 C 420.66455 416.52948 421.9529 415.45886 423.35938 414.3457 C 434.64596 405.41287 453.72216 393.78252 476.60742 393.72461 z " />
</svg>
