<?xml version="1.0" encoding="UTF-8" standalone="no"?>
<svg
   width="500"
   height="500"
   version="1.1"
   id="svg348"
   sodipodi:docname="chippalrus.dev_DOTS.svg"
   inkscape:version="1.3 (0e150ed6c4, 2023-07-21)"
   xmlns:inkscape="http://www.inkscape.org/namespaces/inkscape"
   xmlns:sodipodi="http://sodipodi.sourceforge.net/DTD/sodipodi-0.dtd"
   xmlns="http://www.w3.org/2000/svg"
   xmlns:svg="http://www.w3.org/2000/svg">
  <sodipodi:namedview
     id="namedview348"
     pagecolor="#ffffff"
     bordercolor="#000000"
     borderopacity="0.25"
     inkscape:showpageshadow="2"
     inkscape:pageopacity="0.0"
     inkscape:pagecheckerboard="0"
     inkscape:deskcolor="#d1d1d1"
     inkscape:zoom="1.626"
     inkscape:cx="250"
     inkscape:cy="250"
     inkscape:window-width="1920"
     inkscape:window-height="1009"
     inkscape:window-x="1912"
     inkscape:window-y="-8"
     inkscape:window-maximized="1"
     inkscape:current-layer="svg348" />
  <defs
     id="defs347">
    <clipPath
       id="clip-path-dot-color">
      <circle
         cx="26"
         cy="154"
         r="8"
         transform="rotate(0,26,154)"
         id="circle1" />
      <circle
         cx="26"
         cy="170"
         r="8"
         transform="rotate(0,26,170)"
         id="circle2" />
      <circle
         cx="26"
         cy="202"
         r="8"
         transform="rotate(0,26,202)"
         id="circle3" />
      <circle
         cx="26"
         cy="218"
         r="8"
         transform="rotate(0,26,218)"
         id="circle4" />
      <circle
         cx="26"
         cy="234"
         r="8"
         transform="rotate(0,26,234)"
         id="circle5" />
      <circle
         cx="26"
         cy="250"
         r="8"
         transform="rotate(0,26,250)"
         id="circle6" />
      <circle
         cx="26"
         cy="282"
         r="8"
         transform="rotate(0,26,282)"
         id="circle7" />
      <circle
         cx="26"
         cy="330"
         r="8"
         transform="rotate(0,26,330)"
         id="circle8" />
      <circle
         cx="26"
         cy="346"
         r="8"
         transform="rotate(0,26,346)"
         id="circle9" />
      <circle
         cx="42"
         cy="154"
         r="8"
         transform="rotate(0,42,154)"
         id="circle10" />
      <circle
         cx="42"
         cy="186"
         r="8"
         transform="rotate(0,42,186)"
         id="circle11" />
      <circle
         cx="42"
         cy="202"
         r="8"
         transform="rotate(0,42,202)"
         id="circle12" />
      <circle
         cx="42"
         cy="218"
         r="8"
         transform="rotate(0,42,218)"
         id="circle13" />
      <circle
         cx="42"
         cy="234"
         r="8"
         transform="rotate(0,42,234)"
         id="circle14" />
      <circle
         cx="42"
         cy="282"
         r="8"
         transform="rotate(0,42,282)"
         id="circle15" />
      <circle
         cx="42"
         cy="314"
         r="8"
         transform="rotate(0,42,314)"
         id="circle16" />
      <circle
         cx="42"
         cy="346"
         r="8"
         transform="rotate(0,42,346)"
         id="circle17" />
      <circle
         cx="58"
         cy="218"
         r="8"
         transform="rotate(0,58,218)"
         id="circle18" />
      <circle
         cx="58"
         cy="250"
         r="8"
         transform="rotate(0,58,250)"
         id="circle19" />
      <circle
         cx="58"
         cy="266"
         r="8"
         transform="rotate(0,58,266)"
         id="circle20" />
      <circle
         cx="58"
         cy="282"
         r="8"
         transform="rotate(0,58,282)"
         id="circle21" />
      <circle
         cx="74"
         cy="170"
         r="8"
         transform="rotate(0,74,170)"
         id="circle22" />
      <circle
         cx="74"
         cy="218"
         r="8"
         transform="rotate(0,74,218)"
         id="circle23" />
      <circle
         cx="74"
         cy="234"
         r="8"
         transform="rotate(0,74,234)"
         id="circle24" />
      <circle
         cx="74"
         cy="266"
         r="8"
         transform="rotate(0,74,266)"
         id="circle25" />
      <circle
         cx="74"
         cy="282"
         r="8"
         transform="rotate(0,74,282)"
         id="circle26" />
      <circle
         cx="74"
         cy="298"
         r="8"
         transform="rotate(0,74,298)"
         id="circle27" />
      <circle
         cx="74"
         cy="346"
         r="8"
         transform="rotate(0,74,346)"
         id="circle28" />
      <circle
         cx="90"
         cy="170"
         r="8"
         transform="rotate(0,90,170)"
         id="circle29" />
      <circle
         cx="90"
         cy="186"
         r="8"
         transform="rotate(0,90,186)"
         id="circle30" />
      <circle
         cx="90"
         cy="202"
         r="8"
         transform="rotate(0,90,202)"
         id="circle31" />
      <circle
         cx="90"
         cy="218"
         r="8"
         transform="rotate(0,90,218)"
         id="circle32" />
      <circle
         cx="90"
         cy="234"
         r="8"
         transform="rotate(0,90,234)"
         id="circle33" />
      <circle
         cx="90"
         cy="298"
         r="8"
         transform="rotate(0,90,298)"
         id="circle34" />
      <circle
         cx="90"
         cy="330"
         r="8"
         transform="rotate(0,90,330)"
         id="circle35" />
      <circle
         cx="90"
         cy="346"
         r="8"
         transform="rotate(0,90,346)"
         id="circle36" />
      <circle
         cx="106"
         cy="170"
         r="8"
         transform="rotate(0,106,170)"
         id="circle37" />
      <circle
         cx="106"
         cy="218"
         r="8"
         transform="rotate(0,106,218)"
         id="circle38" />
      <circle
         cx="106"
         cy="234"
         r="8"
         transform="rotate(0,106,234)"
         id="circle39" />
      <circle
         cx="106"
         cy="266"
         r="8"
         transform="rotate(0,106,266)"
         id="circle40" />
      <circle
         cx="106"
         cy="282"
         r="8"
         transform="rotate(0,106,282)"
         id="circle41" />
      <circle
         cx="106"
         cy="298"
         r="8"
         transform="rotate(0,106,298)"
         id="circle42" />
      <circle
         cx="122"
         cy="154"
         r="8"
         transform="rotate(0,122,154)"
         id="circle43" />
      <circle
         cx="122"
         cy="186"
         r="8"
         transform="rotate(0,122,186)"
         id="circle44" />
      <circle
         cx="122"
         cy="218"
         r="8"
         transform="rotate(0,122,218)"
         id="circle45" />
      <circle
         cx="122"
         cy="250"
         r="8"
         transform="rotate(0,122,250)"
         id="circle46" />
      <circle
         cx="122"
         cy="282"
         r="8"
         transform="rotate(0,122,282)"
         id="circle47" />
      <circle
         cx="122"
         cy="314"
         r="8"
         transform="rotate(0,122,314)"
         id="circle48" />
      <circle
         cx="122"
         cy="346"
         r="8"
         transform="rotate(0,122,346)"
         id="circle49" />
      <circle
         cx="138"
         cy="170"
         r="8"
         transform="rotate(0,138,170)"
         id="circle50" />
      <circle
         cx="138"
         cy="186"
         r="8"
         transform="rotate(0,138,186)"
         id="circle51" />
      <circle
         cx="138"
         cy="218"
         r="8"
         transform="rotate(0,138,218)"
         id="circle52" />
      <circle
         cx="138"
         cy="282"
         r="8"
         transform="rotate(0,138,282)"
         id="circle53" />
      <circle
         cx="138"
         cy="298"
         r="8"
         transform="rotate(0,138,298)"
         id="circle54" />
      <circle
         cx="138"
         cy="314"
         r="8"
         transform="rotate(0,138,314)"
         id="circle55" />
      <circle
         cx="154"
         cy="42"
         r="8"
         transform="rotate(0,154,42)"
         id="circle56" />
      <circle
         cx="154"
         cy="122"
         r="8"
         transform="rotate(0,154,122)"
         id="circle57" />
      <circle
         cx="154"
         cy="138"
         r="8"
         transform="rotate(0,154,138)"
         id="circle58" />
      <circle
         cx="154"
         cy="154"
         r="8"
         transform="rotate(0,154,154)"
         id="circle59" />
      <circle
         cx="154"
         cy="170"
         r="8"
         transform="rotate(0,154,170)"
         id="circle60" />
      <circle
         cx="154"
         cy="218"
         r="8"
         transform="rotate(0,154,218)"
         id="circle61" />
      <circle
         cx="154"
         cy="234"
         r="8"
         transform="rotate(0,154,234)"
         id="circle62" />
      <circle
         cx="154"
         cy="250"
         r="8"
         transform="rotate(0,154,250)"
         id="circle63" />
      <circle
         cx="154"
         cy="266"
         r="8"
         transform="rotate(0,154,266)"
         id="circle64" />
      <circle
         cx="154"
         cy="282"
         r="8"
         transform="rotate(0,154,282)"
         id="circle65" />
      <circle
         cx="154"
         cy="330"
         r="8"
         transform="rotate(0,154,330)"
         id="circle66" />
      <circle
         cx="154"
         cy="362"
         r="8"
         transform="rotate(0,154,362)"
         id="circle67" />
      <circle
         cx="154"
         cy="458"
         r="8"
         transform="rotate(0,154,458)"
         id="circle68" />
      <circle
         cx="154"
         cy="474"
         r="8"
         transform="rotate(0,154,474)"
         id="circle69" />
      <circle
         cx="170"
         cy="42"
         r="8"
         transform="rotate(0,170,42)"
         id="circle70" />
      <circle
         cx="170"
         cy="90"
         r="8"
         transform="rotate(0,170,90)"
         id="circle71" />
      <circle
         cx="170"
         cy="106"
         r="8"
         transform="rotate(0,170,106)"
         id="circle72" />
      <circle
         cx="170"
         cy="138"
         r="8"
         transform="rotate(0,170,138)"
         id="circle73" />
      <circle
         cx="170"
         cy="154"
         r="8"
         transform="rotate(0,170,154)"
         id="circle74" />
      <circle
         cx="170"
         cy="202"
         r="8"
         transform="rotate(0,170,202)"
         id="circle75" />
      <circle
         cx="170"
         cy="218"
         r="8"
         transform="rotate(0,170,218)"
         id="circle76" />
      <circle
         cx="170"
         cy="250"
         r="8"
         transform="rotate(0,170,250)"
         id="circle77" />
      <circle
         cx="170"
         cy="266"
         r="8"
         transform="rotate(0,170,266)"
         id="circle78" />
      <circle
         cx="170"
         cy="282"
         r="8"
         transform="rotate(0,170,282)"
         id="circle79" />
      <circle
         cx="170"
         cy="314"
         r="8"
         transform="rotate(0,170,314)"
         id="circle80" />
      <circle
         cx="170"
         cy="410"
         r="8"
         transform="rotate(0,170,410)"
         id="circle81" />
      <circle
         cx="170"
         cy="442"
         r="8"
         transform="rotate(0,170,442)"
         id="circle82" />
      <circle
         cx="170"
         cy="458"
         r="8"
         transform="rotate(0,170,458)"
         id="circle83" />
      <circle
         cx="186"
         cy="26"
         r="8"
         transform="rotate(0,186,26)"
         id="circle84" />
      <circle
         cx="186"
         cy="42"
         r="8"
         transform="rotate(0,186,42)"
         id="circle85" />
      <circle
         cx="186"
         cy="58"
         r="8"
         transform="rotate(0,186,58)"
         id="circle86" />
      <circle
         cx="186"
         cy="90"
         r="8"
         transform="rotate(0,186,90)"
         id="circle87" />
      <circle
         cx="186"
         cy="122"
         r="8"
         transform="rotate(0,186,122)"
         id="circle88" />
      <circle
         cx="186"
         cy="138"
         r="8"
         transform="rotate(0,186,138)"
         id="circle89" />
      <circle
         cx="186"
         cy="154"
         r="8"
         transform="rotate(0,186,154)"
         id="circle90" />
      <circle
         cx="186"
         cy="170"
         r="8"
         transform="rotate(0,186,170)"
         id="circle91" />
      <circle
         cx="186"
         cy="218"
         r="8"
         transform="rotate(0,186,218)"
         id="circle92" />
      <circle
         cx="186"
         cy="234"
         r="8"
         transform="rotate(0,186,234)"
         id="circle93" />
      <circle
         cx="186"
         cy="266"
         r="8"
         transform="rotate(0,186,266)"
         id="circle94" />
      <circle
         cx="186"
         cy="314"
         r="8"
         transform="rotate(0,186,314)"
         id="circle95" />
      <circle
         cx="186"
         cy="330"
         r="8"
         transform="rotate(0,186,330)"
         id="circle96" />
      <circle
         cx="186"
         cy="362"
         r="8"
         transform="rotate(0,186,362)"
         id="circle97" />
      <circle
         cx="186"
         cy="378"
         r="8"
         transform="rotate(0,186,378)"
         id="circle98" />
      <circle
         cx="186"
         cy="426"
         r="8"
         transform="rotate(0,186,426)"
         id="circle99" />
      <circle
         cx="186"
         cy="442"
         r="8"
         transform="rotate(0,186,442)"
         id="circle100" />
      <circle
         cx="202"
         cy="58"
         r="8"
         transform="rotate(0,202,58)"
         id="circle101" />
      <circle
         cx="202"
         cy="74"
         r="8"
         transform="rotate(0,202,74)"
         id="circle102" />
      <circle
         cx="202"
         cy="106"
         r="8"
         transform="rotate(0,202,106)"
         id="circle103" />
      <circle
         cx="202"
         cy="138"
         r="8"
         transform="rotate(0,202,138)"
         id="circle104" />
      <circle
         cx="202"
         cy="202"
         r="8"
         transform="rotate(0,202,202)"
         id="circle105" />
      <circle
         cx="202"
         cy="218"
         r="8"
         transform="rotate(0,202,218)"
         id="circle106" />
      <circle
         cx="202"
         cy="250"
         r="8"
         transform="rotate(0,202,250)"
         id="circle107" />
      <circle
         cx="202"
         cy="266"
         r="8"
         transform="rotate(0,202,266)"
         id="circle108" />
      <circle
         cx="202"
         cy="314"
         r="8"
         transform="rotate(0,202,314)"
         id="circle109" />
      <circle
         cx="202"
         cy="330"
         r="8"
         transform="rotate(0,202,330)"
         id="circle110" />
      <circle
         cx="202"
         cy="346"
         r="8"
         transform="rotate(0,202,346)"
         id="circle111" />
      <circle
         cx="202"
         cy="378"
         r="8"
         transform="rotate(0,202,378)"
         id="circle112" />
      <circle
         cx="202"
         cy="394"
         r="8"
         transform="rotate(0,202,394)"
         id="circle113" />
      <circle
         cx="202"
         cy="410"
         r="8"
         transform="rotate(0,202,410)"
         id="circle114" />
      <circle
         cx="218"
         cy="26"
         r="8"
         transform="rotate(0,218,26)"
         id="circle115" />
      <circle
         cx="218"
         cy="42"
         r="8"
         transform="rotate(0,218,42)"
         id="circle116" />
      <circle
         cx="218"
         cy="74"
         r="8"
         transform="rotate(0,218,74)"
         id="circle117" />
      <circle
         cx="218"
         cy="122"
         r="8"
         transform="rotate(0,218,122)"
         id="circle118" />
      <circle
         cx="218"
         cy="154"
         r="8"
         transform="rotate(0,218,154)"
         id="circle119" />
      <circle
         cx="218"
         cy="186"
         r="8"
         transform="rotate(0,218,186)"
         id="circle120" />
      <circle
         cx="218"
         cy="202"
         r="8"
         transform="rotate(0,218,202)"
         id="circle121" />
      <circle
         cx="218"
         cy="266"
         r="8"
         transform="rotate(0,218,266)"
         id="circle122" />
      <circle
         cx="218"
         cy="282"
         r="8"
         transform="rotate(0,218,282)"
         id="circle123" />
      <circle
         cx="218"
         cy="346"
         r="8"
         transform="rotate(0,218,346)"
         id="circle124" />
      <circle
         cx="218"
         cy="362"
         r="8"
         transform="rotate(0,218,362)"
         id="circle125" />
      <circle
         cx="218"
         cy="378"
         r="8"
         transform="rotate(0,218,378)"
         id="circle126" />
      <circle
         cx="218"
         cy="426"
         r="8"
         transform="rotate(0,218,426)"
         id="circle127" />
      <circle
         cx="218"
         cy="458"
         r="8"
         transform="rotate(0,218,458)"
         id="circle128" />
      <circle
         cx="234"
         cy="26"
         r="8"
         transform="rotate(0,234,26)"
         id="circle129" />
      <circle
         cx="234"
         cy="58"
         r="8"
         transform="rotate(0,234,58)"
         id="circle130" />
      <circle
         cx="234"
         cy="90"
         r="8"
         transform="rotate(0,234,90)"
         id="circle131" />
      <circle
         cx="234"
         cy="138"
         r="8"
         transform="rotate(0,234,138)"
         id="circle132" />
      <circle
         cx="234"
         cy="154"
         r="8"
         transform="rotate(0,234,154)"
         id="circle133" />
      <circle
         cx="234"
         cy="170"
         r="8"
         transform="rotate(0,234,170)"
         id="circle134" />
      <circle
         cx="234"
         cy="218"
         r="8"
         transform="rotate(0,234,218)"
         id="circle135" />
      <circle
         cx="234"
         cy="234"
         r="8"
         transform="rotate(0,234,234)"
         id="circle136" />
      <circle
         cx="234"
         cy="330"
         r="8"
         transform="rotate(0,234,330)"
         id="circle137" />
      <circle
         cx="234"
         cy="346"
         r="8"
         transform="rotate(0,234,346)"
         id="circle138" />
      <circle
         cx="234"
         cy="378"
         r="8"
         transform="rotate(0,234,378)"
         id="circle139" />
      <circle
         cx="234"
         cy="410"
         r="8"
         transform="rotate(0,234,410)"
         id="circle140" />
      <circle
         cx="234"
         cy="426"
         r="8"
         transform="rotate(0,234,426)"
         id="circle141" />
      <circle
         cx="234"
         cy="458"
         r="8"
         transform="rotate(0,234,458)"
         id="circle142" />
      <circle
         cx="234"
         cy="474"
         r="8"
         transform="rotate(0,234,474)"
         id="circle143" />
      <circle
         cx="250"
         cy="26"
         r="8"
         transform="rotate(0,250,26)"
         id="circle144" />
      <circle
         cx="250"
         cy="42"
         r="8"
         transform="rotate(0,250,42)"
         id="circle145" />
      <circle
         cx="250"
         cy="58"
         r="8"
         transform="rotate(0,250,58)"
         id="circle146" />
      <circle
         cx="250"
         cy="74"
         r="8"
         transform="rotate(0,250,74)"
         id="circle147" />
      <circle
         cx="250"
         cy="122"
         r="8"
         transform="rotate(0,250,122)"
         id="circle148" />
      <circle
         cx="250"
         cy="138"
         r="8"
         transform="rotate(0,250,138)"
         id="circle149" />
      <circle
         cx="250"
         cy="170"
         r="8"
         transform="rotate(0,250,170)"
         id="circle150" />
      <circle
         cx="250"
         cy="186"
         r="8"
         transform="rotate(0,250,186)"
         id="circle151" />
      <circle
         cx="250"
         cy="202"
         r="8"
         transform="rotate(0,250,202)"
         id="circle152" />
      <circle
         cx="250"
         cy="234"
         r="8"
         transform="rotate(0,250,234)"
         id="circle153" />
      <circle
         cx="250"
         cy="250"
         r="8"
         transform="rotate(0,250,250)"
         id="circle154" />
      <circle
         cx="250"
         cy="314"
         r="8"
         transform="rotate(0,250,314)"
         id="circle155" />
      <circle
         cx="250"
         cy="346"
         r="8"
         transform="rotate(0,250,346)"
         id="circle156" />
      <circle
         cx="250"
         cy="378"
         r="8"
         transform="rotate(0,250,378)"
         id="circle157" />
      <circle
         cx="250"
         cy="394"
         r="8"
         transform="rotate(0,250,394)"
         id="circle158" />
      <circle
         cx="266"
         cy="26"
         r="8"
         transform="rotate(0,266,26)"
         id="circle159" />
      <circle
         cx="266"
         cy="42"
         r="8"
         transform="rotate(0,266,42)"
         id="circle160" />
      <circle
         cx="266"
         cy="58"
         r="8"
         transform="rotate(0,266,58)"
         id="circle161" />
      <circle
         cx="266"
         cy="74"
         r="8"
         transform="rotate(0,266,74)"
         id="circle162" />
      <circle
         cx="266"
         cy="106"
         r="8"
         transform="rotate(0,266,106)"
         id="circle163" />
      <circle
         cx="266"
         cy="170"
         r="8"
         transform="rotate(0,266,170)"
         id="circle164" />
      <circle
         cx="266"
         cy="186"
         r="8"
         transform="rotate(0,266,186)"
         id="circle165" />
      <circle
         cx="266"
         cy="202"
         r="8"
         transform="rotate(0,266,202)"
         id="circle166" />
      <circle
         cx="266"
         cy="266"
         r="8"
         transform="rotate(0,266,266)"
         id="circle167" />
      <circle
         cx="266"
         cy="282"
         r="8"
         transform="rotate(0,266,282)"
         id="circle168" />
      <circle
         cx="266"
         cy="330"
         r="8"
         transform="rotate(0,266,330)"
         id="circle169" />
      <circle
         cx="266"
         cy="346"
         r="8"
         transform="rotate(0,266,346)"
         id="circle170" />
      <circle
         cx="266"
         cy="362"
         r="8"
         transform="rotate(0,266,362)"
         id="circle171" />
      <circle
         cx="266"
         cy="410"
         r="8"
         transform="rotate(0,266,410)"
         id="circle172" />
      <circle
         cx="266"
         cy="426"
         r="8"
         transform="rotate(0,266,426)"
         id="circle173" />
      <circle
         cx="266"
         cy="442"
         r="8"
         transform="rotate(0,266,442)"
         id="circle174" />
      <circle
         cx="266"
         cy="458"
         r="8"
         transform="rotate(0,266,458)"
         id="circle175" />
      <circle
         cx="266"
         cy="474"
         r="8"
         transform="rotate(0,266,474)"
         id="circle176" />
      <circle
         cx="282"
         cy="26"
         r="8"
         transform="rotate(0,282,26)"
         id="circle177" />
      <circle
         cx="282"
         cy="106"
         r="8"
         transform="rotate(0,282,106)"
         id="circle178" />
      <circle
         cx="282"
         cy="122"
         r="8"
         transform="rotate(0,282,122)"
         id="circle179" />
      <circle
         cx="282"
         cy="154"
         r="8"
         transform="rotate(0,282,154)"
         id="circle180" />
      <circle
         cx="282"
         cy="234"
         r="8"
         transform="rotate(0,282,234)"
         id="circle181" />
      <circle
         cx="282"
         cy="266"
         r="8"
         transform="rotate(0,282,266)"
         id="circle182" />
      <circle
         cx="282"
         cy="314"
         r="8"
         transform="rotate(0,282,314)"
         id="circle183" />
      <circle
         cx="282"
         cy="346"
         r="8"
         transform="rotate(0,282,346)"
         id="circle184" />
      <circle
         cx="282"
         cy="362"
         r="8"
         transform="rotate(0,282,362)"
         id="circle185" />
      <circle
         cx="282"
         cy="394"
         r="8"
         transform="rotate(0,282,394)"
         id="circle186" />
      <circle
         cx="282"
         cy="426"
         r="8"
         transform="rotate(0,282,426)"
         id="circle187" />
      <circle
         cx="282"
         cy="442"
         r="8"
         transform="rotate(0,282,442)"
         id="circle188" />
      <circle
         cx="298"
         cy="26"
         r="8"
         transform="rotate(0,298,26)"
         id="circle189" />
      <circle
         cx="298"
         cy="42"
         r="8"
         transform="rotate(0,298,42)"
         id="circle190" />
      <circle
         cx="298"
         cy="58"
         r="8"
         transform="rotate(0,298,58)"
         id="circle191" />
      <circle
         cx="298"
         cy="90"
         r="8"
         transform="rotate(0,298,90)"
         id="circle192" />
      <circle
         cx="298"
         cy="106"
         r="8"
         transform="rotate(0,298,106)"
         id="circle193" />
      <circle
         cx="298"
         cy="138"
         r="8"
         transform="rotate(0,298,138)"
         id="circle194" />
      <circle
         cx="298"
         cy="154"
         r="8"
         transform="rotate(0,298,154)"
         id="circle195" />
      <circle
         cx="298"
         cy="170"
         r="8"
         transform="rotate(0,298,170)"
         id="circle196" />
      <circle
         cx="298"
         cy="186"
         r="8"
         transform="rotate(0,298,186)"
         id="circle197" />
      <circle
         cx="298"
         cy="218"
         r="8"
         transform="rotate(0,298,218)"
         id="circle198" />
      <circle
         cx="298"
         cy="250"
         r="8"
         transform="rotate(0,298,250)"
         id="circle199" />
      <circle
         cx="298"
         cy="282"
         r="8"
         transform="rotate(0,298,282)"
         id="circle200" />
      <circle
         cx="298"
         cy="394"
         r="8"
         transform="rotate(0,298,394)"
         id="circle201" />
      <circle
         cx="298"
         cy="410"
         r="8"
         transform="rotate(0,298,410)"
         id="circle202" />
      <circle
         cx="298"
         cy="426"
         r="8"
         transform="rotate(0,298,426)"
         id="circle203" />
      <circle
         cx="298"
         cy="442"
         r="8"
         transform="rotate(0,298,442)"
         id="circle204" />
      <circle
         cx="298"
         cy="474"
         r="8"
         transform="rotate(0,298,474)"
         id="circle205" />
      <circle
         cx="314"
         cy="26"
         r="8"
         transform="rotate(0,314,26)"
         id="circle206" />
      <circle
         cx="314"
         cy="42"
         r="8"
         transform="rotate(0,314,42)"
         id="circle207" />
      <circle
         cx="314"
         cy="74"
         r="8"
         transform="rotate(0,314,74)"
         id="circle208" />
      <circle
         cx="314"
         cy="122"
         r="8"
         transform="rotate(0,314,122)"
         id="circle209" />
      <circle
         cx="314"
         cy="138"
         r="8"
         transform="rotate(0,314,138)"
         id="circle210" />
      <circle
         cx="314"
         cy="218"
         r="8"
         transform="rotate(0,314,218)"
         id="circle211" />
      <circle
         cx="314"
         cy="234"
         r="8"
         transform="rotate(0,314,234)"
         id="circle212" />
      <circle
         cx="314"
         cy="250"
         r="8"
         transform="rotate(0,314,250)"
         id="circle213" />
      <circle
         cx="314"
         cy="282"
         r="8"
         transform="rotate(0,314,282)"
         id="circle214" />
      <circle
         cx="314"
         cy="298"
         r="8"
         transform="rotate(0,314,298)"
         id="circle215" />
      <circle
         cx="314"
         cy="314"
         r="8"
         transform="rotate(0,314,314)"
         id="circle216" />
      <circle
         cx="314"
         cy="330"
         r="8"
         transform="rotate(0,314,330)"
         id="circle217" />
      <circle
         cx="314"
         cy="410"
         r="8"
         transform="rotate(0,314,410)"
         id="circle218" />
      <circle
         cx="314"
         cy="426"
         r="8"
         transform="rotate(0,314,426)"
         id="circle219" />
      <circle
         cx="314"
         cy="474"
         r="8"
         transform="rotate(0,314,474)"
         id="circle220" />
      <circle
         cx="330"
         cy="26"
         r="8"
         transform="rotate(0,330,26)"
         id="circle221" />
      <circle
         cx="330"
         cy="74"
         r="8"
         transform="rotate(0,330,74)"
         id="circle222" />
      <circle
         cx="330"
         cy="90"
         r="8"
         transform="rotate(0,330,90)"
         id="circle223" />
      <circle
         cx="330"
         cy="170"
         r="8"
         transform="rotate(0,330,170)"
         id="circle224" />
      <circle
         cx="330"
         cy="234"
         r="8"
         transform="rotate(0,330,234)"
         id="circle225" />
      <circle
         cx="330"
         cy="250"
         r="8"
         transform="rotate(0,330,250)"
         id="circle226" />
      <circle
         cx="330"
         cy="266"
         r="8"
         transform="rotate(0,330,266)"
         id="circle227" />
      <circle
         cx="330"
         cy="282"
         r="8"
         transform="rotate(0,330,282)"
         id="circle228" />
      <circle
         cx="330"
         cy="314"
         r="8"
         transform="rotate(0,330,314)"
         id="circle229" />
      <circle
         cx="330"
         cy="362"
         r="8"
         transform="rotate(0,330,362)"
         id="circle230" />
      <circle
         cx="330"
         cy="378"
         r="8"
         transform="rotate(0,330,378)"
         id="circle231" />
      <circle
         cx="330"
         cy="394"
         r="8"
         transform="rotate(0,330,394)"
         id="circle232" />
      <circle
         cx="330"
         cy="410"
         r="8"
         transform="rotate(0,330,410)"
         id="circle233" />
      <circle
         cx="330"
         cy="426"
         r="8"
         transform="rotate(0,330,426)"
         id="circle234" />
      <circle
         cx="330"
         cy="458"
         r="8"
         transform="rotate(0,330,458)"
         id="circle235" />
      <circle
         cx="330"
         cy="474"
         r="8"
         transform="rotate(0,330,474)"
         id="circle236" />
      <circle
         cx="346"
         cy="26"
         r="8"
         transform="rotate(0,346,26)"
         id="circle237" />
      <circle
         cx="346"
         cy="58"
         r="8"
         transform="rotate(0,346,58)"
         id="circle238" />
      <circle
         cx="346"
         cy="90"
         r="8"
         transform="rotate(0,346,90)"
         id="circle239" />
      <circle
         cx="346"
         cy="122"
         r="8"
         transform="rotate(0,346,122)"
         id="circle240" />
      <circle
         cx="346"
         cy="138"
         r="8"
         transform="rotate(0,346,138)"
         id="circle241" />
      <circle
         cx="346"
         cy="154"
         r="8"
         transform="rotate(0,346,154)"
         id="circle242" />
      <circle
         cx="346"
         cy="170"
         r="8"
         transform="rotate(0,346,170)"
         id="circle243" />
      <circle
         cx="346"
         cy="202"
         r="8"
         transform="rotate(0,346,202)"
         id="circle244" />
      <circle
         cx="346"
         cy="250"
         r="8"
         transform="rotate(0,346,250)"
         id="circle245" />
      <circle
         cx="346"
         cy="282"
         r="8"
         transform="rotate(0,346,282)"
         id="circle246" />
      <circle
         cx="346"
         cy="298"
         r="8"
         transform="rotate(0,346,298)"
         id="circle247" />
      <circle
         cx="346"
         cy="346"
         r="8"
         transform="rotate(0,346,346)"
         id="circle248" />
      <circle
         cx="346"
         cy="362"
         r="8"
         transform="rotate(0,346,362)"
         id="circle249" />
      <circle
         cx="346"
         cy="378"
         r="8"
         transform="rotate(0,346,378)"
         id="circle250" />
      <circle
         cx="346"
         cy="394"
         r="8"
         transform="rotate(0,346,394)"
         id="circle251" />
      <circle
         cx="346"
         cy="410"
         r="8"
         transform="rotate(0,346,410)"
         id="circle252" />
      <circle
         cx="346"
         cy="442"
         r="8"
         transform="rotate(0,346,442)"
         id="circle253" />
      <circle
         cx="362"
         cy="154"
         r="8"
         transform="rotate(0,362,154)"
         id="circle254" />
      <circle
         cx="362"
         cy="218"
         r="8"
         transform="rotate(0,362,218)"
         id="circle255" />
      <circle
         cx="362"
         cy="234"
         r="8"
         transform="rotate(0,362,234)"
         id="circle256" />
      <circle
         cx="362"
         cy="250"
         r="8"
         transform="rotate(0,362,250)"
         id="circle257" />
      <circle
         cx="362"
         cy="266"
         r="8"
         transform="rotate(0,362,266)"
         id="circle258" />
      <circle
         cx="362"
         cy="298"
         r="8"
         transform="rotate(0,362,298)"
         id="circle259" />
      <circle
         cx="362"
         cy="314"
         r="8"
         transform="rotate(0,362,314)"
         id="circle260" />
      <circle
         cx="362"
         cy="346"
         r="8"
         transform="rotate(0,362,346)"
         id="circle261" />
      <circle
         cx="362"
         cy="410"
         r="8"
         transform="rotate(0,362,410)"
         id="circle262" />
      <circle
         cx="362"
         cy="426"
         r="8"
         transform="rotate(0,362,426)"
         id="circle263" />
      <circle
         cx="362"
         cy="442"
         r="8"
         transform="rotate(0,362,442)"
         id="circle264" />
      <circle
         cx="362"
         cy="458"
         r="8"
         transform="rotate(0,362,458)"
         id="circle265" />
      <circle
         cx="378"
         cy="154"
         r="8"
         transform="rotate(0,378,154)"
         id="circle266" />
      <circle
         cx="378"
         cy="170"
         r="8"
         transform="rotate(0,378,170)"
         id="circle267" />
      <circle
         cx="378"
         cy="218"
         r="8"
         transform="rotate(0,378,218)"
         id="circle268" />
      <circle
         cx="378"
         cy="234"
         r="8"
         transform="rotate(0,378,234)"
         id="circle269" />
      <circle
         cx="378"
         cy="266"
         r="8"
         transform="rotate(0,378,266)"
         id="circle270" />
      <circle
         cx="378"
         cy="298"
         r="8"
         transform="rotate(0,378,298)"
         id="circle271" />
      <circle
         cx="378"
         cy="330"
         r="8"
         transform="rotate(0,378,330)"
         id="circle272" />
      <circle
         cx="378"
         cy="346"
         r="8"
         transform="rotate(0,378,346)"
         id="circle273" />
      <circle
         cx="378"
         cy="378"
         r="8"
         transform="rotate(0,378,378)"
         id="circle274" />
      <circle
         cx="378"
         cy="410"
         r="8"
         transform="rotate(0,378,410)"
         id="circle275" />
      <circle
         cx="394"
         cy="170"
         r="8"
         transform="rotate(0,394,170)"
         id="circle276" />
      <circle
         cx="394"
         cy="186"
         r="8"
         transform="rotate(0,394,186)"
         id="circle277" />
      <circle
         cx="394"
         cy="202"
         r="8"
         transform="rotate(0,394,202)"
         id="circle278" />
      <circle
         cx="394"
         cy="282"
         r="8"
         transform="rotate(0,394,282)"
         id="circle279" />
      <circle
         cx="394"
         cy="298"
         r="8"
         transform="rotate(0,394,298)"
         id="circle280" />
      <circle
         cx="394"
         cy="314"
         r="8"
         transform="rotate(0,394,314)"
         id="circle281" />
      <circle
         cx="394"
         cy="330"
         r="8"
         transform="rotate(0,394,330)"
         id="circle282" />
      <circle
         cx="394"
         cy="346"
         r="8"
         transform="rotate(0,394,346)"
         id="circle283" />
      <circle
         cx="394"
         cy="410"
         r="8"
         transform="rotate(0,394,410)"
         id="circle284" />
      <circle
         cx="394"
         cy="426"
         r="8"
         transform="rotate(0,394,426)"
         id="circle285" />
      <circle
         cx="394"
         cy="474"
         r="8"
         transform="rotate(0,394,474)"
         id="circle286" />
      <circle
         cx="410"
         cy="170"
         r="8"
         transform="rotate(0,410,170)"
         id="circle287" />
      <circle
         cx="410"
         cy="202"
         r="8"
         transform="rotate(0,410,202)"
         id="circle288" />
      <circle
         cx="410"
         cy="234"
         r="8"
         transform="rotate(0,410,234)"
         id="circle289" />
      <circle
         cx="410"
         cy="250"
         r="8"
         transform="rotate(0,410,250)"
         id="circle290" />
      <circle
         cx="410"
         cy="298"
         r="8"
         transform="rotate(0,410,298)"
         id="circle291" />
      <circle
         cx="410"
         cy="330"
         r="8"
         transform="rotate(0,410,330)"
         id="circle292" />
      <circle
         cx="410"
         cy="346"
         r="8"
         transform="rotate(0,410,346)"
         id="circle293" />
      <circle
         cx="410"
         cy="362"
         r="8"
         transform="rotate(0,410,362)"
         id="circle294" />
      <circle
         cx="410"
         cy="378"
         r="8"
         transform="rotate(0,410,378)"
         id="circle295" />
      <circle
         cx="410"
         cy="394"
         r="8"
         transform="rotate(0,410,394)"
         id="circle296" />
      <circle
         cx="410"
         cy="410"
         r="8"
         transform="rotate(0,410,410)"
         id="circle297" />
      <circle
         cx="410"
         cy="458"
         r="8"
         transform="rotate(0,410,458)"
         id="circle298" />
      <circle
         cx="410"
         cy="474"
         r="8"
         transform="rotate(0,410,474)"
         id="circle299" />
      <circle
         cx="426"
         cy="170"
         r="8"
         transform="rotate(0,426,170)"
         id="circle300" />
      <circle
         cx="426"
         cy="186"
         r="8"
         transform="rotate(0,426,186)"
         id="circle301" />
      <circle
         cx="426"
         cy="202"
         r="8"
         transform="rotate(0,426,202)"
         id="circle302" />
      <circle
         cx="426"
         cy="218"
         r="8"
         transform="rotate(0,426,218)"
         id="circle303" />
      <circle
         cx="426"
         cy="234"
         r="8"
         transform="rotate(0,426,234)"
         id="circle304" />
      <circle
         cx="426"
         cy="250"
         r="8"
         transform="rotate(0,426,250)"
         id="circle305" />
      <circle
         cx="426"
         cy="314"
         r="8"
         transform="rotate(0,426,314)"
         id="circle306" />
      <circle
         cx="426"
         cy="330"
         r="8"
         transform="rotate(0,426,330)"
         id="circle307" />
      <circle
         cx="426"
         cy="346"
         r="8"
         transform="rotate(0,426,346)"
         id="circle308" />
      <circle
         cx="426"
         cy="394"
         r="8"
         transform="rotate(0,426,394)"
         id="circle309" />
      <circle
         cx="426"
         cy="426"
         r="8"
         transform="rotate(0,426,426)"
         id="circle310" />
      <circle
         cx="426"
         cy="458"
         r="8"
         transform="rotate(0,426,458)"
         id="circle311" />
      <circle
         cx="442"
         cy="170"
         r="8"
         transform="rotate(0,442,170)"
         id="circle312" />
      <circle
         cx="442"
         cy="266"
         r="8"
         transform="rotate(0,442,266)"
         id="circle313" />
      <circle
         cx="442"
         cy="282"
         r="8"
         transform="rotate(0,442,282)"
         id="circle314" />
      <circle
         cx="442"
         cy="314"
         r="8"
         transform="rotate(0,442,314)"
         id="circle315" />
      <circle
         cx="442"
         cy="330"
         r="8"
         transform="rotate(0,442,330)"
         id="circle316" />
      <circle
         cx="442"
         cy="346"
         r="8"
         transform="rotate(0,442,346)"
         id="circle317" />
      <circle
         cx="442"
         cy="362"
         r="8"
         transform="rotate(0,442,362)"
         id="circle318" />
      <circle
         cx="442"
         cy="378"
         r="8"
         transform="rotate(0,442,378)"
         id="circle319" />
      <circle
         cx="442"
         cy="394"
         r="8"
         transform="rotate(0,442,394)"
         id="circle320" />
      <circle
         cx="442"
         cy="410"
         r="8"
         transform="rotate(0,442,410)"
         id="circle321" />
      <circle
         cx="442"
         cy="458"
         r="8"
         transform="rotate(0,442,458)"
         id="circle322" />
      <circle
         cx="458"
         cy="154"
         r="8"
         transform="rotate(0,458,154)"
         id="circle323" />
      <circle
         cx="458"
         cy="170"
         r="8"
         transform="rotate(0,458,170)"
         id="circle324" />
      <circle
         cx="458"
         cy="218"
         r="8"
         transform="rotate(0,458,218)"
         id="circle325" />
      <circle
         cx="458"
         cy="234"
         r="8"
         transform="rotate(0,458,234)"
         id="circle326" />
      <circle
         cx="458"
         cy="250"
         r="8"
         transform="rotate(0,458,250)"
         id="circle327" />
      <circle
         cx="458"
         cy="282"
         r="8"
         transform="rotate(0,458,282)"
         id="circle328" />
      <circle
         cx="458"
         cy="346"
         r="8"
         transform="rotate(0,458,346)"
         id="circle329" />
      <circle
         cx="458"
         cy="362"
         r="8"
         transform="rotate(0,458,362)"
         id="circle330" />
      <circle
         cx="458"
         cy="410"
         r="8"
         transform="rotate(0,458,410)"
         id="circle331" />
      <circle
         cx="458"
         cy="426"
         r="8"
         transform="rotate(0,458,426)"
         id="circle332" />
      <circle
         cx="458"
         cy="442"
         r="8"
         transform="rotate(0,458,442)"
         id="circle333" />
      <circle
         cx="458"
         cy="474"
         r="8"
         transform="rotate(0,458,474)"
         id="circle334" />
      <circle
         cx="474"
         cy="234"
         r="8"
         transform="rotate(0,474,234)"
         id="circle335" />
      <circle
         cx="474"
         cy="250"
         r="8"
         transform="rotate(0,474,250)"
         id="circle336" />
      <circle
         cx="474"
         cy="266"
         r="8"
         transform="rotate(0,474,266)"
         id="circle337" />
      <circle
         cx="474"
         cy="298"
         r="8"
         transform="rotate(0,474,298)"
         id="circle338" />
      <circle
         cx="474"
         cy="330"
         r="8"
         transform="rotate(0,474,330)"
         id="circle339" />
      <circle
         cx="474"
         cy="346"
         r="8"
         transform="rotate(0,474,346)"
         id="circle340" />
      <circle
         cx="474"
         cy="362"
         r="8"
         transform="rotate(0,474,362)"
         id="circle341" />
      <circle
         cx="474"
         cy="378"
         r="8"
         transform="rotate(0,474,378)"
         id="circle342" />
      <circle
         cx="474"
         cy="410"
         r="8"
         transform="rotate(0,474,410)"
         id="circle343" />
      <circle
         cx="474"
         cy="442"
         r="8"
         transform="rotate(0,474,442)"
         id="circle344" />
      <path
         clip-rule="evenodd"
         d="M 74 18a 56 56 0 1 0 0.1 0zm 0 16a 40 40 0 1 1 -0.1 0Z"
         transform="rotate(0,74,74)"
         id="path344" />
      <circle
         cx="74"
         cy="74"
         r="24"
         transform="rotate(0,74,74)"
         id="circle345" />
      <path
         clip-rule="evenodd"
         d="M 426 18a 56 56 0 1 0 0.1 0zm 0 16a 40 40 0 1 1 -0.1 0Z"
         transform="rotate(90,426,74)"
         id="path345" />
      <circle
         cx="426"
         cy="74"
         r="24"
         transform="rotate(90,426,74)"
         id="circle346" />
      <path
         clip-rule="evenodd"
         d="M 74 370a 56 56 0 1 0 0.1 0zm 0 16a 40 40 0 1 1 -0.1 0Z"
         transform="rotate(-90,74,426)"
         id="path346" />
      <circle
         cx="74"
         cy="426"
         r="24"
         transform="rotate(-90,74,426)"
         id="circle347" />
    </clipPath>
  </defs>
  <rect
     x="0"
     y="0"
     height="500"
     width="500"
     clip-path="url(#clip-path-dot-color)"
     fill="#000000"
     id="rect348"
     style="display:inline" />
</svg>
