<?xml version="1.0" encoding="UTF-8" standalone="no"?>
<svg
   width="500"
   height="500"
   version="1.1"
   id="svg218"
   sodipodi:docname="QR_CARD.svg"
   inkscape:version="1.3 (0e150ed6c4, 2023-07-21)"
   xmlns:inkscape="http://www.inkscape.org/namespaces/inkscape"
   xmlns:sodipodi="http://sodipodi.sourceforge.net/DTD/sodipodi-0.dtd"
   xmlns="http://www.w3.org/2000/svg"
   xmlns:svg="http://www.w3.org/2000/svg">
  <sodipodi:namedview
     id="namedview218"
     pagecolor="#ffffff"
     bordercolor="#000000"
     borderopacity="0.25"
     inkscape:showpageshadow="2"
     inkscape:pageopacity="0.0"
     inkscape:pagecheckerboard="0"
     inkscape:deskcolor="#d1d1d1"
     inkscape:zoom="1.626"
     inkscape:cx="250"
     inkscape:cy="250"
     inkscape:window-width="1920"
     inkscape:window-height="1009"
     inkscape:window-x="1912"
     inkscape:window-y="-8"
     inkscape:window-maximized="1"
     inkscape:current-layer="svg218" />
  <defs
     id="defs217">
    <clipPath
       id="clip-path-dot-color">
      <path
         d="M 18 178v 16h 8a 8 8, 0, 0, 0, 0 -16"
         transform="rotate(-90,26,186)"
         id="path1" />
      <rect
         x="18"
         y="194"
         width="16"
         height="16"
         transform="rotate(0,26,202)"
         id="rect1" />
      <path
         d="M 18 210v 16h 8a 8 8, 0, 0, 0, 0 -16"
         transform="rotate(90,26,218)"
         id="path2" />
      <path
         d="M 18 306v 16h 16v -8a 8 8, 0, 0, 0, -8 -8"
         transform="rotate(-90,26,314)"
         id="path3" />
      <rect
         x="18"
         y="322"
         width="16"
         height="16"
         transform="rotate(0,26,330)"
         id="rect3" />
      <path
         d="M 18 338v 16h 16v -8a 8 8, 0, 0, 0, -8 -8"
         transform="rotate(180,26,346)"
         id="path4" />
      <circle
         cx="42"
         cy="170"
         r="8"
         transform="rotate(0,42,170)"
         id="circle4" />
      <path
         d="M 34 226v 16h 8a 8 8, 0, 0, 0, 0 -16"
         transform="rotate(180,42,234)"
         id="path5" />
      <path
         d="M 34 258v 16h 8a 8 8, 0, 0, 0, 0 -16"
         transform="rotate(-90,42,266)"
         id="path6" />
      <rect
         x="34"
         y="274"
         width="16"
         height="16"
         transform="rotate(0,42,282)"
         id="rect6" />
      <rect
         x="34"
         y="290"
         width="16"
         height="16"
         transform="rotate(0,42,298)"
         id="rect7" />
      <rect
         x="34"
         y="306"
         width="16"
         height="16"
         transform="rotate(0,42,314)"
         id="rect8" />
      <rect
         x="34"
         y="322"
         width="16"
         height="16"
         transform="rotate(0,42,330)"
         id="rect9" />
      <rect
         x="34"
         y="338"
         width="16"
         height="16"
         transform="rotate(0,42,346)"
         id="rect10" />
      <circle
         cx="58"
         cy="154"
         r="8"
         transform="rotate(0,58,154)"
         id="circle10" />
      <rect
         x="50"
         y="226"
         width="16"
         height="16"
         transform="rotate(0,58,234)"
         id="rect11" />
      <path
         d="M 50 290v 16h 8a 8 8, 0, 0, 0, 0 -16"
         transform="rotate(0,58,298)"
         id="path11" />
      <path
         d="M 50 322v 16h 16v -8a 8 8, 0, 0, 0, -8 -8"
         transform="rotate(0,58,330)"
         id="path12" />
      <rect
         x="50"
         y="338"
         width="16"
         height="16"
         transform="rotate(0,58,346)"
         id="rect12" />
      <path
         d="M 66 178v 16h 8a 8 8, 0, 0, 0, 0 -16"
         transform="rotate(180,74,186)"
         id="path13" />
      <path
         d="M 66 210v 16h 8a 8 8, 0, 0, 0, 0 -16"
         transform="rotate(-90,74,218)"
         id="path14" />
      <rect
         x="66"
         y="226"
         width="16"
         height="16"
         transform="rotate(0,74,234)"
         id="rect14" />
      <path
         d="M 66 258v 16h 8a 8 8, 0, 0, 0, 0 -16"
         transform="rotate(180,74,266)"
         id="path15" />
      <path
         d="M 66 306v 16h 8a 8 8, 0, 0, 0, 0 -16"
         transform="rotate(180,74,314)"
         id="path16" />
      <path
         d="M 66 338v 16h 8a 8 8, 0, 0, 0, 0 -16"
         transform="rotate(0,74,346)"
         id="path17" />
      <path
         d="M 82 146v 16h 16v -8a 8 8, 0, 0, 0, -8 -8"
         transform="rotate(-90,90,154)"
         id="path18" />
      <rect
         x="82"
         y="162"
         width="16"
         height="16"
         transform="rotate(0,90,170)"
         id="rect18" />
      <path
         d="M 82 178v 16h 16v -8a 8 8, 0, 0, 0, -8 -8"
         transform="rotate(90,90,186)"
         id="path19" />
      <rect
         x="82"
         y="226"
         width="16"
         height="16"
         transform="rotate(0,90,234)"
         id="rect19" />
      <path
         d="M 82 258v 16h 8a 8 8, 0, 0, 0, 0 -16"
         transform="rotate(0,90,266)"
         id="path20" />
      <path
         d="M 82 290v 16h 16v -8a 8 8, 0, 0, 0, -8 -8"
         transform="rotate(-90,90,298)"
         id="path21" />
      <path
         d="M 82 306v 16h 16v -8a 8 8, 0, 0, 0, -8 -8"
         transform="rotate(90,90,314)"
         id="path22" />
      <rect
         x="98"
         y="146"
         width="16"
         height="16"
         transform="rotate(0,106,154)"
         id="rect22" />
      <path
         d="M 98 162v 16h 16v -8a 8 8, 0, 0, 0, -8 -8"
         transform="rotate(90,106,170)"
         id="path23" />
      <path
         d="M 98 226v 16h 8a 8 8, 0, 0, 0, 0 -16"
         transform="rotate(0,106,234)"
         id="path24" />
      <path
         d="M 98 290v 16h 8a 8 8, 0, 0, 0, 0 -16"
         transform="rotate(0,106,298)"
         id="path25" />
      <circle
         cx="106"
         cy="330"
         r="8"
         transform="rotate(0,106,330)"
         id="circle25" />
      <path
         d="M 114 146v 16h 8a 8 8, 0, 0, 0, 0 -16"
         transform="rotate(0,122,154)"
         id="path26" />
      <path
         d="M 114 178v 16h 8a 8 8, 0, 0, 0, 0 -16"
         transform="rotate(180,122,186)"
         id="path27" />
      <circle
         cx="122"
         cy="218"
         r="8"
         transform="rotate(0,122,218)"
         id="circle27" />
      <circle
         cx="122"
         cy="250"
         r="8"
         transform="rotate(0,122,250)"
         id="circle28" />
      <path
         d="M 114 274v 16h 8a 8 8, 0, 0, 0, 0 -16"
         transform="rotate(180,122,282)"
         id="path28" />
      <circle
         cx="122"
         cy="314"
         r="8"
         transform="rotate(0,122,314)"
         id="circle29" />
      <circle
         cx="122"
         cy="346"
         r="8"
         transform="rotate(0,122,346)"
         id="circle30" />
      <rect
         x="130"
         y="178"
         width="16"
         height="16"
         transform="rotate(0,138,186)"
         id="rect30" />
      <path
         d="M 130 194v 16h 8a 8 8, 0, 0, 0, 0 -16"
         transform="rotate(90,138,202)"
         id="path30" />
      <path
         d="M 130 226v 16h 8a 8 8, 0, 0, 0, 0 -16"
         transform="rotate(180,138,234)"
         id="path31" />
      <path
         d="M 130 258v 16h 16v -8a 8 8, 0, 0, 0, -8 -8"
         transform="rotate(-90,138,266)"
         id="path32" />
      <path
         d="M 130 274v 16h 16v -8a 8 8, 0, 0, 0, -8 -8"
         transform="rotate(90,138,282)"
         id="path33" />
      <path
         d="M 146 34v 16h 8a 8 8, 0, 0, 0, 0 -16"
         transform="rotate(180,154,42)"
         id="path34" />
      <path
         d="M 146 82v 16h 8a 8 8, 0, 0, 0, 0 -16"
         transform="rotate(180,154,90)"
         id="path35" />
      <circle
         cx="154"
         cy="122"
         r="8"
         transform="rotate(0,154,122)"
         id="circle35" />
      <circle
         cx="154"
         cy="154"
         r="8"
         transform="rotate(0,154,154)"
         id="circle36" />
      <path
         d="M 146 178v 16h 8a 8 8, 0, 0, 0, 0 -16"
         transform="rotate(0,154,186)"
         id="path36" />
      <path
         d="M 146 210v 16h 8a 8 8, 0, 0, 0, 0 -16"
         transform="rotate(-90,154,218)"
         id="path37" />
      <rect
         x="146"
         y="226"
         width="16"
         height="16"
         transform="rotate(0,154,234)"
         id="rect37" />
      <rect
         x="146"
         y="242"
         width="16"
         height="16"
         transform="rotate(0,154,250)"
         id="rect38" />
      <path
         d="M 146 258v 16h 16v -8a 8 8, 0, 0, 0, -8 -8"
         transform="rotate(90,154,266)"
         id="path38" />
      <circle
         cx="154"
         cy="330"
         r="8"
         transform="rotate(0,154,330)"
         id="circle38" />
      <path
         d="M 146 354v 16h 8a 8 8, 0, 0, 0, 0 -16"
         transform="rotate(180,154,362)"
         id="path39" />
      <path
         d="M 146 386v 16h 16v -8a 8 8, 0, 0, 0, -8 -8"
         transform="rotate(-90,154,394)"
         id="path40" />
      <path
         d="M 146 402v 16h 16v -8a 8 8, 0, 0, 0, -8 -8"
         transform="rotate(180,154,410)"
         id="path41" />
      <path
         d="M 146 434v 16h 8a 8 8, 0, 0, 0, 0 -16"
         transform="rotate(180,154,442)"
         id="path42" />
      <path
         d="M 162 18v 16h 8a 8 8, 0, 0, 0, 0 -16"
         transform="rotate(-90,170,26)"
         id="path43" />
      <rect
         x="162"
         y="34"
         width="16"
         height="16"
         transform="rotate(0,170,42)"
         id="rect43" />
      <path
         d="M 162 50v 16h 16v -8a 8 8, 0, 0, 0, -8 -8"
         transform="rotate(180,170,58)"
         id="path44" />
      <rect
         x="162"
         y="82"
         width="16"
         height="16"
         transform="rotate(0,170,90)"
         id="rect44" />
      <path
         d="M 162 130v 16h 8a 8 8, 0, 0, 0, 0 -16"
         transform="rotate(180,170,138)"
         id="path45" />
      <path
         d="M 162 162v 16h 8a 8 8, 0, 0, 0, 0 -16"
         transform="rotate(180,170,170)"
         id="path46" />
      <path
         d="M 162 242v 16h 8a 8 8, 0, 0, 0, 0 -16"
         transform="rotate(0,170,250)"
         id="path47" />
      <circle
         cx="170"
         cy="282"
         r="8"
         transform="rotate(0,170,282)"
         id="circle47" />
      <path
         d="M 162 306v 16h 8a 8 8, 0, 0, 0, 0 -16"
         transform="rotate(180,170,314)"
         id="path48" />
      <rect
         x="162"
         y="354"
         width="16"
         height="16"
         transform="rotate(0,170,362)"
         id="rect48" />
      <rect
         x="162"
         y="370"
         width="16"
         height="16"
         transform="rotate(0,170,378)"
         id="rect49" />
      <rect
         x="162"
         y="386"
         width="16"
         height="16"
         transform="rotate(0,170,394)"
         id="rect50" />
      <rect
         x="162"
         y="402"
         width="16"
         height="16"
         transform="rotate(0,170,410)"
         id="rect51" />
      <rect
         x="162"
         y="418"
         width="16"
         height="16"
         transform="rotate(0,170,426)"
         id="rect52" />
      <rect
         x="162"
         y="434"
         width="16"
         height="16"
         transform="rotate(0,170,442)"
         id="rect53" />
      <rect
         x="162"
         y="450"
         width="16"
         height="16"
         transform="rotate(0,170,458)"
         id="rect54" />
      <path
         d="M 162 466v 16h 16v -8a 8 8, 0, 0, 0, -8 -8"
         transform="rotate(180,170,474)"
         id="path54" />
      <path
         d="M 178 34v 16h 16v -8a 8 8, 0, 0, 0, -8 -8"
         transform="rotate(0,186,42)"
         id="path55" />
      <rect
         x="178"
         y="50"
         width="16"
         height="16"
         transform="rotate(0,186,58)"
         id="rect55" />
      <rect
         x="178"
         y="66"
         width="16"
         height="16"
         transform="rotate(0,186,74)"
         id="rect56" />
      <rect
         x="178"
         y="82"
         width="16"
         height="16"
         transform="rotate(0,186,90)"
         id="rect57" />
      <rect
         x="178"
         y="98"
         width="16"
         height="16"
         transform="rotate(0,186,106)"
         id="rect58" />
      <rect
         x="178"
         y="114"
         width="16"
         height="16"
         transform="rotate(0,186,122)"
         id="rect59" />
      <rect
         x="178"
         y="130"
         width="16"
         height="16"
         transform="rotate(0,186,138)"
         id="rect60" />
      <path
         d="M 178 162v 16h 16v -8a 8 8, 0, 0, 0, -8 -8"
         transform="rotate(0,186,170)"
         id="path60" />
      <rect
         x="178"
         y="178"
         width="16"
         height="16"
         transform="rotate(0,186,186)"
         id="rect61" />
      <rect
         x="178"
         y="194"
         width="16"
         height="16"
         transform="rotate(0,186,202)"
         id="rect62" />
      <path
         d="M 178 210v 16h 16v -8a 8 8, 0, 0, 0, -8 -8"
         transform="rotate(180,186,218)"
         id="path62" />
      <path
         d="M 178 258v 16h 8a 8 8, 0, 0, 0, 0 -16"
         transform="rotate(180,186,266)"
         id="path63" />
      <path
         d="M 178 290v 16h 16v -8a 8 8, 0, 0, 0, -8 -8"
         transform="rotate(-90,186,298)"
         id="path64" />
      <path
         d="M 178 306v 16h 16v -8a 8 8, 0, 0, 0, -8 -8"
         transform="rotate(90,186,314)"
         id="path65" />
      <path
         d="M 178 338v 16h 16v -8a 8 8, 0, 0, 0, -8 -8"
         transform="rotate(-90,186,346)"
         id="path66" />
      <rect
         x="178"
         y="354"
         width="16"
         height="16"
         transform="rotate(0,186,362)"
         id="rect66" />
      <rect
         x="178"
         y="466"
         width="16"
         height="16"
         transform="rotate(0,186,474)"
         id="rect67" />
      <rect
         x="194"
         y="66"
         width="16"
         height="16"
         transform="rotate(0,202,74)"
         id="rect68" />
      <path
         d="M 194 130v 16h 8a 8 8, 0, 0, 0, 0 -16"
         transform="rotate(0,202,138)"
         id="path68" />
      <path
         d="M 194 178v 16h 8a 8 8, 0, 0, 0, 0 -16"
         transform="rotate(0,202,186)"
         id="path69" />
      <path
         d="M 194 210v 16h 16v -8a 8 8, 0, 0, 0, -8 -8"
         transform="rotate(0,202,218)"
         id="path70" />
      <path
         d="M 194 226v 16h 16v -8a 8 8, 0, 0, 0, -8 -8"
         transform="rotate(180,202,234)"
         id="path71" />
      <path
         d="M 194 258v 16h 16v -8a 8 8, 0, 0, 0, -8 -8"
         transform="rotate(0,202,266)"
         id="path72" />
      <rect
         x="194"
         y="274"
         width="16"
         height="16"
         transform="rotate(0,202,282)"
         id="rect72" />
      <rect
         x="194"
         y="290"
         width="16"
         height="16"
         transform="rotate(0,202,298)"
         id="rect73" />
      <rect
         x="194"
         y="338"
         width="16"
         height="16"
         transform="rotate(0,202,346)"
         id="rect74" />
      <path
         d="M 194 354v 16h 16v -8a 8 8, 0, 0, 0, -8 -8"
         transform="rotate(90,202,362)"
         id="path74" />
      <path
         d="M 194 418v 16h 8a 8 8, 0, 0, 0, 0 -16"
         transform="rotate(180,202,426)"
         id="path75" />
      <path
         d="M 194 450v 16h 8a 8 8, 0, 0, 0, 0 -16"
         transform="rotate(-90,202,458)"
         id="path76" />
      <rect
         x="194"
         y="466"
         width="16"
         height="16"
         transform="rotate(0,202,474)"
         id="rect76" />
      <path
         d="M 210 18v 16h 16v -8a 8 8, 0, 0, 0, -8 -8"
         transform="rotate(-90,218,26)"
         id="path77" />
      <rect
         x="210"
         y="34"
         width="16"
         height="16"
         transform="rotate(0,218,42)"
         id="rect77" />
      <rect
         x="210"
         y="50"
         width="16"
         height="16"
         transform="rotate(0,218,58)"
         id="rect78" />
      <path
         d="M 210 66v 16h 16v -8a 8 8, 0, 0, 0, -8 -8"
         transform="rotate(90,218,74)"
         id="path78" />
      <path
         d="M 210 98v 16h 16v -8a 8 8, 0, 0, 0, -8 -8"
         transform="rotate(-90,218,106)"
         id="path79" />
      <path
         d="M 210 114v 16h 8a 8 8, 0, 0, 0, 0 -16"
         transform="rotate(90,218,122)"
         id="path80" />
      <path
         d="M 210 146v 16h 16v -8a 8 8, 0, 0, 0, -8 -8"
         transform="rotate(-90,218,154)"
         id="path81" />
      <path
         d="M 210 162v 16h 8a 8 8, 0, 0, 0, 0 -16"
         transform="rotate(90,218,170)"
         id="path82" />
      <path
         d="M 210 226v 16h 8a 8 8, 0, 0, 0, 0 -16"
         transform="rotate(0,218,234)"
         id="path83" />
      <rect
         x="210"
         y="274"
         width="16"
         height="16"
         transform="rotate(0,218,282)"
         id="rect83" />
      <rect
         x="210"
         y="290"
         width="16"
         height="16"
         transform="rotate(0,218,298)"
         id="rect84" />
      <rect
         x="210"
         y="306"
         width="16"
         height="16"
         transform="rotate(0,218,314)"
         id="rect85" />
      <rect
         x="210"
         y="322"
         width="16"
         height="16"
         transform="rotate(0,218,330)"
         id="rect86" />
      <path
         d="M 210 338v 16h 16v -8a 8 8, 0, 0, 0, -8 -8"
         transform="rotate(90,218,346)"
         id="path86" />
      <circle
         cx="218"
         cy="394"
         r="8"
         transform="rotate(0,218,394)"
         id="circle86" />
      <path
         d="M 210 418v 16h 8a 8 8, 0, 0, 0, 0 -16"
         transform="rotate(0,218,426)"
         id="path87" />
      <rect
         x="210"
         y="466"
         width="16"
         height="16"
         transform="rotate(0,218,474)"
         id="rect87" />
      <rect
         x="226"
         y="18"
         width="16"
         height="16"
         transform="rotate(0,234,26)"
         id="rect88" />
      <rect
         x="226"
         y="34"
         width="16"
         height="16"
         transform="rotate(0,234,42)"
         id="rect89" />
      <path
         d="M 226 50v 16h 16v -8a 8 8, 0, 0, 0, -8 -8"
         transform="rotate(90,234,58)"
         id="path89" />
      <path
         d="M 226 82v 16h 16v -8a 8 8, 0, 0, 0, -8 -8"
         transform="rotate(-90,234,90)"
         id="path90" />
      <rect
         x="226"
         y="98"
         width="16"
         height="16"
         transform="rotate(0,234,106)"
         id="rect90" />
      <path
         d="M 226 146v 16h 8a 8 8, 0, 0, 0, 0 -16"
         transform="rotate(0,234,154)"
         id="path91" />
      <circle
         cx="234"
         cy="186"
         r="8"
         transform="rotate(0,234,186)"
         id="circle91" />
      <path
         d="M 226 242v 16h 8a 8 8, 0, 0, 0, 0 -16"
         transform="rotate(180,234,250)"
         id="path92" />
      <rect
         x="226"
         y="274"
         width="16"
         height="16"
         transform="rotate(0,234,282)"
         id="rect92" />
      <path
         d="M 226 306v 16h 8a 8 8, 0, 0, 0, 0 -16"
         transform="rotate(0,234,314)"
         id="path93" />
      <path
         d="M 226 370v 16h 8a 8 8, 0, 0, 0, 0 -16"
         transform="rotate(180,234,378)"
         id="path94" />
      <path
         d="M 226 402v 16h 8a 8 8, 0, 0, 0, 0 -16"
         transform="rotate(180,234,410)"
         id="path95" />
      <path
         d="M 226 434v 16h 8a 8 8, 0, 0, 0, 0 -16"
         transform="rotate(-90,234,442)"
         id="path96" />
      <rect
         x="226"
         y="450"
         width="16"
         height="16"
         transform="rotate(0,234,458)"
         id="rect96" />
      <rect
         x="226"
         y="466"
         width="16"
         height="16"
         transform="rotate(0,234,474)"
         id="rect97" />
      <path
         d="M 242 18v 16h 8a 8 8, 0, 0, 0, 0 -16"
         transform="rotate(0,250,26)"
         id="path97" />
      <path
         d="M 242 82v 16h 16v -8a 8 8, 0, 0, 0, -8 -8"
         transform="rotate(0,250,90)"
         id="path98" />
      <rect
         x="242"
         y="98"
         width="16"
         height="16"
         transform="rotate(0,250,106)"
         id="rect98" />
      <rect
         x="242"
         y="114"
         width="16"
         height="16"
         transform="rotate(0,250,122)"
         id="rect99" />
      <path
         d="M 242 130v 16h 16v -8a 8 8, 0, 0, 0, -8 -8"
         transform="rotate(180,250,138)"
         id="path99" />
      <path
         d="M 242 162v 16h 8a 8 8, 0, 0, 0, 0 -16"
         transform="rotate(180,250,170)"
         id="path100" />
      <path
         d="M 242 194v 16h 8a 8 8, 0, 0, 0, 0 -16"
         transform="rotate(-90,250,202)"
         id="path101" />
      <path
         d="M 242 210v 16h 16v -8a 8 8, 0, 0, 0, -8 -8"
         transform="rotate(180,250,218)"
         id="path102" />
      <path
         d="M 242 242v 16h 8a 8 8, 0, 0, 0, 0 -16"
         transform="rotate(0,250,250)"
         id="path103" />
      <rect
         x="242"
         y="274"
         width="16"
         height="16"
         transform="rotate(0,250,282)"
         id="rect103" />
      <path
         d="M 242 290v 16h 16v -8a 8 8, 0, 0, 0, -8 -8"
         transform="rotate(180,250,298)"
         id="path104" />
      <path
         d="M 242 338v 16h 8a 8 8, 0, 0, 0, 0 -16"
         transform="rotate(-90,250,346)"
         id="path105" />
      <rect
         x="242"
         y="354"
         width="16"
         height="16"
         transform="rotate(0,250,362)"
         id="rect105" />
      <path
         d="M 242 370v 16h 16v -8a 8 8, 0, 0, 0, -8 -8"
         transform="rotate(90,250,378)"
         id="path106" />
      <path
         d="M 242 402v 16h 8a 8 8, 0, 0, 0, 0 -16"
         transform="rotate(0,250,410)"
         id="path107" />
      <rect
         x="242"
         y="466"
         width="16"
         height="16"
         transform="rotate(0,250,474)"
         id="rect107" />
      <path
         d="M 258 50v 16h 8a 8 8, 0, 0, 0, 0 -16"
         transform="rotate(180,266,58)"
         id="path108" />
      <path
         d="M 258 130v 16h 8a 8 8, 0, 0, 0, 0 -16"
         transform="rotate(0,266,138)"
         id="path109" />
      <rect
         x="258"
         y="162"
         width="16"
         height="16"
         transform="rotate(0,266,170)"
         id="rect109" />
      <path
         d="M 258 178v 16h 8a 8 8, 0, 0, 0, 0 -16"
         transform="rotate(90,266,186)"
         id="path110" />
      <path
         d="M 258 210v 16h 8a 8 8, 0, 0, 0, 0 -16"
         transform="rotate(0,266,218)"
         id="path111" />
      <path
         d="M 258 258v 16h 8a 8 8, 0, 0, 0, 0 -16"
         transform="rotate(-90,266,266)"
         id="path112" />
      <rect
         x="258"
         y="274"
         width="16"
         height="16"
         transform="rotate(0,266,282)"
         id="rect112" />
      <rect
         x="258"
         y="290"
         width="16"
         height="16"
         transform="rotate(0,266,298)"
         id="rect113" />
      <rect
         x="258"
         y="306"
         width="16"
         height="16"
         transform="rotate(0,266,314)"
         id="rect114" />
      <path
         d="M 258 322v 16h 16v -8a 8 8, 0, 0, 0, -8 -8"
         transform="rotate(180,266,330)"
         id="path114" />
      <path
         d="M 258 386v 16h 8a 8 8, 0, 0, 0, 0 -16"
         transform="rotate(180,266,394)"
         id="path115" />
      <circle
         cx="266"
         cy="426"
         r="8"
         transform="rotate(0,266,426)"
         id="circle115" />
      <path
         d="M 258 450v 16h 8a 8 8, 0, 0, 0, 0 -16"
         transform="rotate(-90,266,458)"
         id="path116" />
      <path
         d="M 258 466v 16h 16v -8a 8 8, 0, 0, 0, -8 -8"
         transform="rotate(90,266,474)"
         id="path117" />
      <path
         d="M 274 18v 16h 8a 8 8, 0, 0, 0, 0 -16"
         transform="rotate(180,282,26)"
         id="path118" />
      <path
         d="M 274 50v 16h 16v -8a 8 8, 0, 0, 0, -8 -8"
         transform="rotate(0,282,58)"
         id="path119" />
      <rect
         x="274"
         y="66"
         width="16"
         height="16"
         transform="rotate(0,282,74)"
         id="rect119" />
      <path
         d="M 274 82v 16h 16v -8a 8 8, 0, 0, 0, -8 -8"
         transform="rotate(180,282,90)"
         id="path120" />
      <circle
         cx="282"
         cy="122"
         r="8"
         transform="rotate(0,282,122)"
         id="circle120" />
      <path
         d="M 274 162v 16h 8a 8 8, 0, 0, 0, 0 -16"
         transform="rotate(0,282,170)"
         id="path121" />
      <circle
         cx="282"
         cy="250"
         r="8"
         transform="rotate(0,282,250)"
         id="circle121" />
      <path
         d="M 274 306v 16h 16v -8a 8 8, 0, 0, 0, -8 -8"
         transform="rotate(0,282,314)"
         id="path122" />
      <rect
         x="274"
         y="322"
         width="16"
         height="16"
         transform="rotate(0,282,330)"
         id="rect122" />
      <path
         d="M 274 338v 16h 8a 8 8, 0, 0, 0, 0 -16"
         transform="rotate(90,282,346)"
         id="path123" />
      <rect
         x="274"
         y="386"
         width="16"
         height="16"
         transform="rotate(0,282,394)"
         id="rect123" />
      <path
         d="M 290 18v 16h 8a 8 8, 0, 0, 0, 0 -16"
         transform="rotate(0,298,26)"
         id="path124" />
      <path
         d="M 290 82v 16h 16v -8a 8 8, 0, 0, 0, -8 -8"
         transform="rotate(0,298,90)"
         id="path125" />
      <path
         d="M 290 98v 16h 8a 8 8, 0, 0, 0, 0 -16"
         transform="rotate(90,298,106)"
         id="path126" />
      <circle
         cx="298"
         cy="138"
         r="8"
         transform="rotate(0,298,138)"
         id="circle126" />
      <path
         d="M 290 178v 16h 16v -8a 8 8, 0, 0, 0, -8 -8"
         transform="rotate(-90,298,186)"
         id="path127" />
      <path
         d="M 290 194v 16h 8a 8 8, 0, 0, 0, 0 -16"
         transform="rotate(90,298,202)"
         id="path128" />
      <path
         d="M 290 226v 16h 8a 8 8, 0, 0, 0, 0 -16"
         transform="rotate(180,298,234)"
         id="path129" />
      <path
         d="M 290 274v 16h 16v -8a 8 8, 0, 0, 0, -8 -8"
         transform="rotate(-90,298,282)"
         id="path130" />
      <path
         d="M 290 290v 16h 8a 8 8, 0, 0, 0, 0 -16"
         transform="rotate(90,298,298)"
         id="path131" />
      <path
         d="M 290 370v 16h 8a 8 8, 0, 0, 0, 0 -16"
         transform="rotate(-90,298,378)"
         id="path132" />
      <rect
         x="290"
         y="386"
         width="16"
         height="16"
         transform="rotate(0,298,394)"
         id="rect132" />
      <rect
         x="290"
         y="402"
         width="16"
         height="16"
         transform="rotate(0,298,410)"
         id="rect133" />
      <rect
         x="290"
         y="418"
         width="16"
         height="16"
         transform="rotate(0,298,426)"
         id="rect134" />
      <path
         d="M 290 434v 16h 8a 8 8, 0, 0, 0, 0 -16"
         transform="rotate(90,298,442)"
         id="path134" />
      <path
         d="M 290 466v 16h 8a 8 8, 0, 0, 0, 0 -16"
         transform="rotate(180,298,474)"
         id="path135" />
      <circle
         cx="314"
         cy="122"
         r="8"
         transform="rotate(0,314,122)"
         id="circle135" />
      <path
         d="M 306 146v 16h 16v -8a 8 8, 0, 0, 0, -8 -8"
         transform="rotate(-90,314,154)"
         id="path136" />
      <rect
         x="306"
         y="162"
         width="16"
         height="16"
         transform="rotate(0,314,170)"
         id="rect136" />
      <rect
         x="306"
         y="178"
         width="16"
         height="16"
         transform="rotate(0,314,186)"
         id="rect137" />
      <rect
         x="306"
         y="226"
         width="16"
         height="16"
         transform="rotate(0,314,234)"
         id="rect138" />
      <path
         d="M 306 274v 16h 8a 8 8, 0, 0, 0, 0 -16"
         transform="rotate(0,314,282)"
         id="path138" />
      <circle
         cx="314"
         cy="314"
         r="8"
         transform="rotate(0,314,314)"
         id="circle138" />
      <rect
         x="306"
         y="386"
         width="16"
         height="16"
         transform="rotate(0,314,394)"
         id="rect139" />
      <rect
         x="306"
         y="402"
         width="16"
         height="16"
         transform="rotate(0,314,410)"
         id="rect140" />
      <rect
         x="306"
         y="418"
         width="16"
         height="16"
         transform="rotate(0,314,426)"
         id="rect141" />
      <path
         d="M 306 466v 16h 8a 8 8, 0, 0, 0, 0 -16"
         transform="rotate(0,314,474)"
         id="path141" />
      <circle
         cx="330"
         cy="58"
         r="8"
         transform="rotate(0,330,58)"
         id="circle141" />
      <path
         d="M 322 82v 16h 8a 8 8, 0, 0, 0, 0 -16"
         transform="rotate(-90,330,90)"
         id="path142" />
      <path
         d="M 322 98v 16h 8a 8 8, 0, 0, 0, 0 -16"
         transform="rotate(90,330,106)"
         id="path143" />
      <rect
         x="322"
         y="146"
         width="16"
         height="16"
         transform="rotate(0,330,154)"
         id="rect143" />
      <path
         d="M 322 178v 16h 16v -8a 8 8, 0, 0, 0, -8 -8"
         transform="rotate(0,330,186)"
         id="path144" />
      <rect
         x="322"
         y="194"
         width="16"
         height="16"
         transform="rotate(0,330,202)"
         id="rect144" />
      <rect
         x="322"
         y="210"
         width="16"
         height="16"
         transform="rotate(0,330,218)"
         id="rect145" />
      <path
         d="M 322 226v 16h 16v -8a 8 8, 0, 0, 0, -8 -8"
         transform="rotate(90,330,234)"
         id="path145" />
      <path
         d="M 322 290v 16h 8a 8 8, 0, 0, 0, 0 -16"
         transform="rotate(180,330,298)"
         id="path146" />
      <path
         d="M 322 338v 16h 8a 8 8, 0, 0, 0, 0 -16"
         transform="rotate(180,330,346)"
         id="path147" />
      <rect
         x="322"
         y="386"
         width="16"
         height="16"
         transform="rotate(0,330,394)"
         id="rect147" />
      <rect
         x="322"
         y="418"
         width="16"
         height="16"
         transform="rotate(0,330,426)"
         id="rect148" />
      <path
         d="M 338 18v 16h 8a 8 8, 0, 0, 0, 0 -16"
         transform="rotate(-90,346,26)"
         id="path148" />
      <path
         d="M 338 34v 16h 8a 8 8, 0, 0, 0, 0 -16"
         transform="rotate(90,346,42)"
         id="path149" />
      <circle
         cx="346"
         cy="74"
         r="8"
         transform="rotate(0,346,74)"
         id="circle149" />
      <path
         d="M 338 114v 16h 8a 8 8, 0, 0, 0, 0 -16"
         transform="rotate(-90,346,122)"
         id="path150" />
      <rect
         x="338"
         y="130"
         width="16"
         height="16"
         transform="rotate(0,346,138)"
         id="rect150" />
      <rect
         x="338"
         y="146"
         width="16"
         height="16"
         transform="rotate(0,346,154)"
         id="rect151" />
      <path
         d="M 338 162v 16h 8a 8 8, 0, 0, 0, 0 -16"
         transform="rotate(90,346,170)"
         id="path151" />
      <rect
         x="338"
         y="194"
         width="16"
         height="16"
         transform="rotate(0,346,202)"
         id="rect152" />
      <path
         d="M 338 242v 16h 16v -8a 8 8, 0, 0, 0, -8 -8"
         transform="rotate(-90,346,250)"
         id="path152" />
      <path
         d="M 338 258v 16h 16v -8a 8 8, 0, 0, 0, -8 -8"
         transform="rotate(180,346,266)"
         id="path153" />
      <rect
         x="338"
         y="290"
         width="16"
         height="16"
         transform="rotate(0,346,298)"
         id="rect153" />
      <path
         d="M 338 322v 16h 16v -8a 8 8, 0, 0, 0, -8 -8"
         transform="rotate(-90,346,330)"
         id="path154" />
      <rect
         x="338"
         y="338"
         width="16"
         height="16"
         transform="rotate(0,346,346)"
         id="rect154" />
      <rect
         x="338"
         y="354"
         width="16"
         height="16"
         transform="rotate(0,346,362)"
         id="rect155" />
      <rect
         x="338"
         y="370"
         width="16"
         height="16"
         transform="rotate(0,346,378)"
         id="rect156" />
      <rect
         x="338"
         y="386"
         width="16"
         height="16"
         transform="rotate(0,346,394)"
         id="rect157" />
      <rect
         x="338"
         y="402"
         width="16"
         height="16"
         transform="rotate(0,346,410)"
         id="rect158" />
      <path
         d="M 338 418v 16h 16v -8a 8 8, 0, 0, 0, -8 -8"
         transform="rotate(90,346,426)"
         id="path158" />
      <path
         d="M 338 466v 16h 8a 8 8, 0, 0, 0, 0 -16"
         transform="rotate(180,346,474)"
         id="path159" />
      <path
         d="M 354 146v 16h 8a 8 8, 0, 0, 0, 0 -16"
         transform="rotate(0,362,154)"
         id="path160" />
      <rect
         x="354"
         y="194"
         width="16"
         height="16"
         transform="rotate(0,362,202)"
         id="rect160" />
      <path
         d="M 354 226v 16h 8a 8 8, 0, 0, 0, 0 -16"
         transform="rotate(-90,362,234)"
         id="path161" />
      <rect
         x="354"
         y="242"
         width="16"
         height="16"
         transform="rotate(0,362,250)"
         id="rect161" />
      <rect
         x="354"
         y="258"
         width="16"
         height="16"
         transform="rotate(0,362,266)"
         id="rect162" />
      <rect
         x="354"
         y="274"
         width="16"
         height="16"
         transform="rotate(0,362,282)"
         id="rect163" />
      <rect
         x="354"
         y="290"
         width="16"
         height="16"
         transform="rotate(0,362,298)"
         id="rect164" />
      <rect
         x="354"
         y="306"
         width="16"
         height="16"
         transform="rotate(0,362,314)"
         id="rect165" />
      <rect
         x="354"
         y="322"
         width="16"
         height="16"
         transform="rotate(0,362,330)"
         id="rect166" />
      <rect
         x="354"
         y="338"
         width="16"
         height="16"
         transform="rotate(0,362,346)"
         id="rect167" />
      <rect
         x="354"
         y="402"
         width="16"
         height="16"
         transform="rotate(0,362,410)"
         id="rect168" />
      <path
         d="M 354 434v 16h 8a 8 8, 0, 0, 0, 0 -16"
         transform="rotate(-90,362,442)"
         id="path168" />
      <rect
         x="354"
         y="450"
         width="16"
         height="16"
         transform="rotate(0,362,458)"
         id="rect169" />
      <rect
         x="354"
         y="466"
         width="16"
         height="16"
         transform="rotate(0,362,474)"
         id="rect170" />
      <circle
         cx="378"
         cy="170"
         r="8"
         transform="rotate(0,378,170)"
         id="circle170" />
      <rect
         x="370"
         y="194"
         width="16"
         height="16"
         transform="rotate(0,378,202)"
         id="rect171" />
      <rect
         x="370"
         y="242"
         width="16"
         height="16"
         transform="rotate(0,378,250)"
         id="rect172" />
      <rect
         x="370"
         y="258"
         width="16"
         height="16"
         transform="rotate(0,378,266)"
         id="rect173" />
      <rect
         x="370"
         y="274"
         width="16"
         height="16"
         transform="rotate(0,378,282)"
         id="rect174" />
      <path
         d="M 370 306v 16h 16v -8a 8 8, 0, 0, 0, -8 -8"
         transform="rotate(0,378,314)"
         id="path174" />
      <rect
         x="370"
         y="322"
         width="16"
         height="16"
         transform="rotate(0,378,330)"
         id="rect175" />
      <rect
         x="370"
         y="338"
         width="16"
         height="16"
         transform="rotate(0,378,346)"
         id="rect176" />
      <circle
         cx="378"
         cy="378"
         r="8"
         transform="rotate(0,378,378)"
         id="circle176" />
      <rect
         x="370"
         y="402"
         width="16"
         height="16"
         transform="rotate(0,378,410)"
         id="rect177" />
      <rect
         x="370"
         y="466"
         width="16"
         height="16"
         transform="rotate(0,378,474)"
         id="rect178" />
      <rect
         x="386"
         y="194"
         width="16"
         height="16"
         transform="rotate(0,394,202)"
         id="rect179" />
      <path
         d="M 386 242v 16h 16v -8a 8 8, 0, 0, 0, -8 -8"
         transform="rotate(0,394,250)"
         id="path179" />
      <rect
         x="386"
         y="258"
         width="16"
         height="16"
         transform="rotate(0,394,266)"
         id="rect180" />
      <rect
         x="386"
         y="274"
         width="16"
         height="16"
         transform="rotate(0,394,282)"
         id="rect181" />
      <rect
         x="386"
         y="322"
         width="16"
         height="16"
         transform="rotate(0,394,330)"
         id="rect182" />
      <rect
         x="386"
         y="338"
         width="16"
         height="16"
         transform="rotate(0,394,346)"
         id="rect183" />
      <rect
         x="386"
         y="402"
         width="16"
         height="16"
         transform="rotate(0,394,410)"
         id="rect184" />
      <path
         d="M 386 418v 16h 8a 8 8, 0, 0, 0, 0 -16"
         transform="rotate(90,394,426)"
         id="path184" />
      <rect
         x="386"
         y="466"
         width="16"
         height="16"
         transform="rotate(0,394,474)"
         id="rect185" />
      <circle
         cx="410"
         cy="154"
         r="8"
         transform="rotate(0,410,154)"
         id="circle185" />
      <rect
         x="402"
         y="194"
         width="16"
         height="16"
         transform="rotate(0,410,202)"
         id="rect186" />
      <path
         d="M 402 226v 16h 8a 8 8, 0, 0, 0, 0 -16"
         transform="rotate(180,410,234)"
         id="path186" />
      <path
         d="M 402 258v 16h 16v -8a 8 8, 0, 0, 0, -8 -8"
         transform="rotate(0,410,266)"
         id="path187" />
      <path
         d="M 402 274v 16h 16v -8a 8 8, 0, 0, 0, -8 -8"
         transform="rotate(90,410,282)"
         id="path188" />
      <path
         d="M 402 322v 16h 16v -8a 8 8, 0, 0, 0, -8 -8"
         transform="rotate(0,410,330)"
         id="path189" />
      <rect
         x="402"
         y="338"
         width="16"
         height="16"
         transform="rotate(0,410,346)"
         id="rect189" />
      <rect
         x="402"
         y="354"
         width="16"
         height="16"
         transform="rotate(0,410,362)"
         id="rect190" />
      <rect
         x="402"
         y="370"
         width="16"
         height="16"
         transform="rotate(0,410,378)"
         id="rect191" />
      <rect
         x="402"
         y="386"
         width="16"
         height="16"
         transform="rotate(0,410,394)"
         id="rect192" />
      <path
         d="M 402 402v 16h 16v -8a 8 8, 0, 0, 0, -8 -8"
         transform="rotate(90,410,410)"
         id="path192" />
      <path
         d="M 402 466v 16h 8a 8 8, 0, 0, 0, 0 -16"
         transform="rotate(0,410,474)"
         id="path193" />
      <circle
         cx="426"
         cy="170"
         r="8"
         transform="rotate(0,426,170)"
         id="circle193" />
      <path
         d="M 418 194v 16h 8a 8 8, 0, 0, 0, 0 -16"
         transform="rotate(0,426,202)"
         id="path194" />
      <path
         d="M 418 226v 16h 16v -8a 8 8, 0, 0, 0, -8 -8"
         transform="rotate(0,426,234)"
         id="path195" />
      <path
         d="M 418 242v 16h 16v -8a 8 8, 0, 0, 0, -8 -8"
         transform="rotate(180,426,250)"
         id="path196" />
      <circle
         cx="426"
         cy="314"
         r="8"
         transform="rotate(0,426,314)"
         id="circle196" />
      <path
         d="M 418 386v 16h 8a 8 8, 0, 0, 0, 0 -16"
         transform="rotate(0,426,394)"
         id="path197" />
      <path
         d="M 418 450v 16h 8a 8 8, 0, 0, 0, 0 -16"
         transform="rotate(180,426,458)"
         id="path198" />
      <rect
         x="434"
         y="242"
         width="16"
         height="16"
         transform="rotate(0,442,250)"
         id="rect198" />
      <path
         d="M 434 258v 16h 16v -8a 8 8, 0, 0, 0, -8 -8"
         transform="rotate(180,442,266)"
         id="path199" />
      <path
         d="M 434 322v 16h 8a 8 8, 0, 0, 0, 0 -16"
         transform="rotate(-90,442,330)"
         id="path200" />
      <rect
         x="434"
         y="338"
         width="16"
         height="16"
         transform="rotate(0,442,346)"
         id="rect200" />
      <path
         d="M 434 354v 16h 8a 8 8, 0, 0, 0, 0 -16"
         transform="rotate(90,442,362)"
         id="path201" />
      <rect
         x="434"
         y="450"
         width="16"
         height="16"
         transform="rotate(0,442,458)"
         id="rect201" />
      <path
         d="M 434 466v 16h 16v -8a 8 8, 0, 0, 0, -8 -8"
         transform="rotate(180,442,474)"
         id="path202" />
      <circle
         cx="458"
         cy="154"
         r="8"
         transform="rotate(0,458,154)"
         id="circle202" />
      <path
         d="M 450 194v 16h 16v -8a 8 8, 0, 0, 0, -8 -8"
         transform="rotate(-90,458,202)"
         id="path203" />
      <path
         d="M 450 210v 16h 16v -8a 8 8, 0, 0, 0, -8 -8"
         transform="rotate(180,458,218)"
         id="path204" />
      <rect
         x="450"
         y="242"
         width="16"
         height="16"
         transform="rotate(0,458,250)"
         id="rect204" />
      <rect
         x="450"
         y="258"
         width="16"
         height="16"
         transform="rotate(0,458,266)"
         id="rect205" />
      <rect
         x="450"
         y="274"
         width="16"
         height="16"
         transform="rotate(0,458,282)"
         id="rect206" />
      <rect
         x="450"
         y="290"
         width="16"
         height="16"
         transform="rotate(0,458,298)"
         id="rect207" />
      <path
         d="M 450 306v 16h 8a 8 8, 0, 0, 0, 0 -16"
         transform="rotate(90,458,314)"
         id="path207" />
      <rect
         x="450"
         y="338"
         width="16"
         height="16"
         transform="rotate(0,458,346)"
         id="rect208" />
      <circle
         cx="458"
         cy="394"
         r="8"
         transform="rotate(0,458,394)"
         id="circle208" />
      <circle
         cx="458"
         cy="426"
         r="8"
         transform="rotate(0,458,426)"
         id="circle209" />
      <rect
         x="450"
         y="450"
         width="16"
         height="16"
         transform="rotate(0,458,458)"
         id="rect209" />
      <path
         d="M 450 466v 16h 16v -8a 8 8, 0, 0, 0, -8 -8"
         transform="rotate(90,458,474)"
         id="path209" />
      <path
         d="M 466 194v 16h 16v -8a 8 8, 0, 0, 0, -8 -8"
         transform="rotate(0,474,202)"
         id="path210" />
      <rect
         x="466"
         y="210"
         width="16"
         height="16"
         transform="rotate(0,474,218)"
         id="rect210" />
      <rect
         x="466"
         y="226"
         width="16"
         height="16"
         transform="rotate(0,474,234)"
         id="rect211" />
      <path
         d="M 466 242v 16h 16v -8a 8 8, 0, 0, 0, -8 -8"
         transform="rotate(90,474,250)"
         id="path211" />
      <path
         d="M 466 290v 16h 8a 8 8, 0, 0, 0, 0 -16"
         transform="rotate(0,474,298)"
         id="path212" />
      <path
         d="M 466 338v 16h 8a 8 8, 0, 0, 0, 0 -16"
         transform="rotate(0,474,346)"
         id="path213" />
      <circle
         cx="474"
         cy="378"
         r="8"
         transform="rotate(0,474,378)"
         id="circle213" />
      <circle
         cx="474"
         cy="410"
         r="8"
         transform="rotate(0,474,410)"
         id="circle214" />
      <path
         d="M 466 450v 16h 8a 8 8, 0, 0, 0, 0 -16"
         transform="rotate(0,474,458)"
         id="path214" />
      <path
         clip-rule="evenodd"
         d="M 18 58v 32a 40 40, 0, 0, 0, 40 40h 32a 40 40, 0, 0, 0, 40 -40v -32a 40 40, 0, 0, 0, -40 -40h -32a 40 40, 0, 0, 0, -40 40M 58 34h 32a 24 24, 0, 0, 1, 24 24v 32a 24 24, 0, 0, 1, -24 24h -32a 24 24, 0, 0, 1, -24 -24v -32a 24 24, 0, 0, 1, 24 -24"
         transform="rotate(0,74,74)"
         id="path215" />
      <circle
         cx="74"
         cy="74"
         r="24"
         transform="rotate(0,74,74)"
         id="circle215" />
      <path
         clip-rule="evenodd"
         d="M 370 58v 32a 40 40, 0, 0, 0, 40 40h 32a 40 40, 0, 0, 0, 40 -40v -32a 40 40, 0, 0, 0, -40 -40h -32a 40 40, 0, 0, 0, -40 40M 410 34h 32a 24 24, 0, 0, 1, 24 24v 32a 24 24, 0, 0, 1, -24 24h -32a 24 24, 0, 0, 1, -24 -24v -32a 24 24, 0, 0, 1, 24 -24"
         transform="rotate(90,426,74)"
         id="path216" />
      <circle
         cx="426"
         cy="74"
         r="24"
         transform="rotate(90,426,74)"
         id="circle216" />
      <path
         clip-rule="evenodd"
         d="M 18 410v 32a 40 40, 0, 0, 0, 40 40h 32a 40 40, 0, 0, 0, 40 -40v -32a 40 40, 0, 0, 0, -40 -40h -32a 40 40, 0, 0, 0, -40 40M 58 386h 32a 24 24, 0, 0, 1, 24 24v 32a 24 24, 0, 0, 1, -24 24h -32a 24 24, 0, 0, 1, -24 -24v -32a 24 24, 0, 0, 1, 24 -24"
         transform="rotate(-90,74,426)"
         id="path217" />
      <circle
         cx="74"
         cy="426"
         r="24"
         transform="rotate(-90,74,426)"
         id="circle217" />
    </clipPath>
  </defs>
  <rect
     x="0"
     y="0"
     height="500"
     width="500"
     clip-path="url('#clip-path-dot-color')"
     fill="#000000"
     id="rect218" />
</svg>
